<?xml version="1.0" encoding="UTF-8"?>
<svg width="44px" height="44px" viewBox="0 0 44 44" version="1.1" xmlns="http://www.w3.org/2000/svg" xmlns:xlink="http://www.w3.org/1999/xlink">
    <title>Fill 228</title>
    <g id="Onboarding" stroke="none" stroke-width="1" fill="none" fill-rule="evenodd">
        <g id="Onboarding---Messaging" transform="translate(-173.000000, -840.000000)" fill="#008F7C">
            <g id="Group-4" transform="translate(173.000000, 840.000000)">
                <path d="M30.6189959,38.8968737 C30.4966246,38.970275 30.3750898,39.0494053 30.2472214,39.1206584 C30.1183969,39.1902405 29.9877799,39.2607774 29.8551313,39.3325079 C29.6814931,39.3728488 29.5254219,39.4146219 29.3732943,39.4449373 C29.2210472,39.473343 29.0760898,39.5005552 28.9312519,39.5276481 C28.7804388,39.5973496 28.5493196,39.7003502 28.4931531,39.7334107 C27.9515645,40.0925403 27.0287606,40.4378252 25.9221608,40.6671001 C25.0009104,40.8522148 24.058747,40.982547 23.1208858,41.0427003 C20.4379189,41.1933223 17.7377437,40.7677137 15.2206473,39.8060959 C15.007334,39.73353 14.7990399,39.6404356 14.5854877,39.5562925 C14.4787713,39.5138033 14.3716964,39.4711947 14.264263,39.4284667 C14.2108451,39.4067447 14.1559931,39.3876484 14.1034117,39.363778 L13.9451894,39.2919282 C13.7337882,39.1960887 13.522148,39.1001298 13.3112248,39.0044097 C13.1029307,38.9027219 12.9007313,38.7906505 12.6985318,38.6825178 C12.6004197,38.6291675 12.4982444,38.5736689 12.3936791,38.5169768 C12.2921014,38.4550332 12.1882531,38.3917767 12.0836877,38.3280428 C11.9792419,38.2641896 11.8740791,38.199859 11.7699918,38.1361251 C11.666024,38.0720331 11.5616977,38.010567 11.4664536,37.9405074 C11.0802192,37.6680272 10.7316283,37.4253849 10.552971,37.2362123 C10.2465647,36.933536 10.2906614,36.8955821 10.4932194,36.9803219 C10.5945581,37.0226918 10.7354524,37.0960932 10.8924796,37.1831007 C11.0524944,37.2650954 11.2316298,37.356877 11.4047899,37.4455554 C11.5128208,37.5017701 11.5383945,37.4808835 11.6012532,37.494967 C10.9853336,37.041072 10.7015135,36.7838688 10.237124,36.4359582 C10.125508,36.3431025 10.0034952,36.2435631 9.86367639,36.131253 C9.79364751,36.0753963 9.7193165,36.0161978 9.63996636,35.952822 C9.60005229,35.9213131 9.55894318,35.8887301 9.51640003,35.8551922 C9.47564943,35.8193866 9.4335843,35.7826263 9.39008513,35.7444337 C9.21513241,35.5922601 9.01711557,35.4199161 8.78922293,35.2213146 C8.68011649,35.1165237 8.56395936,35.0048104 8.4395565,34.8853392 C8.31646819,34.7646745 8.1797565,34.6411454 8.04328382,34.5003102 C7.9979921,34.5731148 7.98926837,34.6921086 7.89486082,34.7146661 C7.81849826,34.7330463 7.63936293,34.6338649 7.35183818,34.5287159 C6.76220929,33.6515993 6.37370431,32.9782163 5.99762768,32.2075615 C6.12406209,32.3467257 6.24404332,32.4786095 6.35673486,32.6024967 C6.42090809,32.6725562 6.48316927,32.7403481 6.5438769,32.806469 C6.60769162,32.8699641 6.6698333,32.9317884 6.73077994,32.9924191 C6.72337074,32.9812001 6.71608104,32.9698616 6.70855234,32.9586426 C6.73747212,32.9921804 6.76663091,33.0258376 6.79471416,33.058182 C6.83642079,33.1085485 6.88183201,33.1543796 6.9259287,33.20033 C6.97002539,33.2461611 7.01352456,33.2915148 7.05690423,33.3365105 C7.00253027,33.2086846 7.00599586,33.1556924 6.9332184,33.0557949 C6.09334976,31.825755 5.39915554,30.5021431 4.86210807,29.1186167 C4.87728498,29.1393839 4.89186437,29.1622994 4.90751929,29.1822312 C4.99236658,29.2959735 5.07362877,29.4006451 5.15345692,29.5017361 C5.23328507,29.6018722 5.31108167,29.6996214 5.3899538,29.7986834 C5.42819483,29.8485725 5.47073797,29.8965519 5.51316162,29.9458442 C5.55522675,29.9952559 5.5978894,30.045503 5.64174708,30.0971824 C5.72862593,30.2008991 5.81801434,30.3111802 5.91206337,30.4326804 C5.95914764,30.4935498 6.00730744,30.5571643 6.05690127,30.6243594 C6.10733163,30.6910771 6.16409566,30.7582722 6.22014268,30.8310768 C6.33331223,30.9759699 6.45424949,31.1367368 6.58510551,31.3183903 C6.61772989,31.3638634 6.65119079,31.4106493 6.68560772,31.4585094 C6.7216977,31.5051759 6.7589827,31.5529167 6.79698473,31.6019703 C6.87286927,31.7004355 6.9518609,31.804749 7.03419862,31.9150301 C6.87621536,31.6833682 6.70831333,31.4582707 6.56084636,31.209064 C6.4846033,31.0863703 6.40704571,30.9616477 6.32793458,30.8342993 C6.24882345,30.7068315 6.16588821,30.5779315 6.09215473,30.4384092 C6.01579217,30.3004385 5.93727855,30.1587679 5.85613586,30.0124426 C5.77559069,29.8656398 5.68835334,29.71645 5.6125883,29.5537735 C5.53371617,29.3927678 5.45185646,29.2257946 5.36677017,29.0521377 C5.32518305,28.9648915 5.27857679,28.8777647 5.23878222,28.785267 C5.19898765,28.6927693 5.15847606,28.598362 5.11700844,28.5020451 C5.18094266,28.6110133 5.24117229,28.7138946 5.29829483,28.8112857 C5.36019749,28.9059317 5.41875407,28.9953262 5.47432307,29.0801854 C5.58486355,29.2488295 5.68369271,29.3995709 5.77451516,29.5377803 C5.79710127,29.5721536 5.81920937,29.6058109 5.84083945,29.638752 C5.86414258,29.6707383 5.88696769,29.7020084 5.9094343,29.7326819 C5.9541285,29.7940287 5.99726917,29.8529885 6.0392148,29.9102774 C6.0986079,29.991556 6.1544159,30.0679412 6.21034341,30.1443263 C6.21165795,30.1862188 6.21309199,30.2281113 6.21440652,30.2697651 C6.2543206,30.3388698 6.29124709,30.3980683 6.32387147,30.4456897 C6.35625684,30.4931917 6.38828371,30.5269683 6.41230386,30.5486903 C6.41983256,30.555374 6.42568822,30.5581191 6.43214139,30.5621771 C6.60816964,30.9025685 6.80104783,31.2424825 7.01460009,31.5801289 C7.0594138,31.6245278 7.09741582,31.660572 7.13195225,31.6920809 C7.17019329,31.7513988 7.20950985,31.8077328 7.24810939,31.8660959 C7.26292779,31.9001111 7.27870221,31.9352006 7.29591067,31.9717222 C7.36068142,32.1008609 7.43656597,32.2437251 7.50910442,32.3725057 C7.58152337,32.5012863 7.65047673,32.6159834 7.70054858,32.68843 C7.7530105,32.759325 7.7864714,32.7879694 7.7827668,32.7494188 C7.77858419,32.7087198 7.77703064,32.666708 7.77440157,32.6252929 C8.02189274,32.963894 8.27165448,33.2839957 8.51902615,33.5780786 C8.56670793,33.5807043 8.61283617,33.5832107 8.65764988,33.5855977 C8.67808493,33.5861945 8.69732495,33.5866719 8.71728199,33.5871493 C8.76042265,33.6870468 8.81324308,33.7923151 8.87263618,33.8990157 C8.9327463,34.0070291 9.00636028,34.1102684 9.07913774,34.2141045 C9.15263223,34.3171051 9.22911429,34.41748 9.30440132,34.5108131 C9.34204483,34.5575991 9.37944934,34.6025947 9.41601733,34.645442 C9.45401935,34.6867378 9.49178237,34.7254077 9.52787234,34.7618101 C9.44135201,34.6107106 9.36737951,34.4494663 9.28982192,34.2932348 C9.3666625,34.3838228 9.44350307,34.4741721 9.52022413,34.5644021 C9.54018117,34.647471 9.56013821,34.7303012 9.57997575,34.8131313 C9.7972326,35.0231906 9.95055524,35.1202236 9.91793086,34.9898914 C9.98700372,35.0624573 10.053806,35.1372909 10.1247909,35.2077085 C10.2285197,35.3084414 10.332846,35.4041616 10.4370528,35.4971367 C10.480074,35.5580061 10.5334919,35.6224561 10.5939606,35.6878609 C10.6241949,35.7205633 10.6559828,35.7535044 10.6892046,35.7864455 C10.722546,35.8190286 10.7589945,35.849344 10.795204,35.8803754 C10.9412369,36.0035465 11.0995787,36.1202726 11.2393975,36.2110994 L11.0699419,35.9943564 C11.1357882,36.0397101 11.201276,36.0835123 11.2665247,36.1262402 C11.2759655,36.1662231 11.2852867,36.2062059 11.294847,36.2464275 C11.3996513,36.3143387 11.4963294,36.3567086 11.5606221,36.3767597 C11.6252734,36.3962141 11.6599293,36.3906045 11.649413,36.3514571 C11.6821569,36.3688825 11.7154983,36.3864272 11.7480032,36.4036139 C11.8390646,36.4503998 11.9291701,36.4942019 12.0217851,36.5483876 C12.1144001,36.6026927 12.2088076,36.6685749 12.3154045,36.7511664 C12.4706392,36.875531 12.6338806,36.997986 12.8011851,37.1187701 C12.871692,37.1895457 12.9470985,37.2528022 13.0211905,37.3186844 L13.2452591,37.5154955 C13.3954746,37.6466632 13.5449731,37.7815308 13.7033149,37.9024342 L14.1767867,38.2767215 C14.336921,38.3992959 14.502911,38.5126801 14.6677059,38.6314352 C14.8623766,38.7695253 15.025857,38.6982722 14.9462679,38.5882298 C14.8601061,38.4670877 14.7735857,38.3455875 14.6871849,38.2240874 C14.8112293,38.2881793 14.9356321,38.3523906 15.0603935,38.4168406 C15.1224157,38.4500204 15.1869474,38.4778294 15.2512401,38.5064738 C15.3158914,38.5347602 15.3804231,38.5630466 15.4453134,38.5915717 C15.5750939,38.647667 15.7063084,38.7025689 15.8390765,38.7557998 C15.8724179,38.7688092 15.9055203,38.782654 15.9392202,38.7949472 L16.0413954,38.8289625 C16.1099903,38.8508039 16.1787046,38.8725259 16.2477775,38.894606 L16.6632902,39.1228067 C16.7324826,39.1624315 16.803826,39.1948952 16.8746914,39.2299846 L17.0882436,39.3340594 L17.5185747,39.5423284 C17.6640102,39.6070171 17.8109991,39.6676478 17.9583466,39.7306656 C18.1390355,39.8069314 18.3135102,39.7473748 18.2528025,39.6614415 C18.1858807,39.5646472 18.1189589,39.4677335 18.0519176,39.3708198 C18.2053598,39.4383729 18.3586824,39.5115356 18.5149926,39.5747921 L18.9872693,39.7585939 C19.3028773,39.8880906 19.6266116,39.9866753 19.9522578,40.094808 C20.0532381,40.1275104 20.1542183,40.1180816 20.2107433,40.088005 C20.2675073,40.0564961 20.2795772,40.0088747 20.2052462,39.9703241 C19.9671958,39.83665 19.7336865,39.7030953 19.5042403,39.5698987 C19.6157368,39.5794468 19.7312964,39.5929336 19.8462585,39.6128653 L20.1732193,39.7168208 C20.2825648,39.7521489 20.3931052,39.7769741 20.5036457,39.8075282 C20.7249657,39.8650557 20.9476002,39.9262832 21.1721467,39.9799916 C21.3675345,40.0208099 21.535317,39.9164964 21.4375634,39.8453627 C21.6376118,39.8528819 21.8401697,39.8569398 22.0444007,39.8571785 C22.09029,39.8551495 22.1525512,39.8561044 22.2185169,39.8576559 L22.6321176,39.9262832 L22.8401727,39.9604179 C22.9096041,39.9718756 22.9792744,39.9836915 23.0489448,39.9903752 L23.8919206,40.0837083 C24.1092969,40.0969564 24.2623805,39.9459763 24.11097,39.899071 C23.8714855,39.8286534 23.6339131,39.7367525 23.4007623,39.6503418 C23.4765274,39.6461645 23.5509779,39.6433 23.6255479,39.6417485 C23.873039,39.6601286 24.1220838,39.6717058 24.371965,39.6793443 C24.3097038,39.7021405 24.2907028,39.7276818 24.3327679,39.757281 C24.465297,39.8497787 24.5985431,39.9414409 24.9525116,39.9839302 C25.1905621,39.9549277 25.4235933,39.8972807 25.6580587,39.8556269 C25.8928825,39.8148086 26.1234042,39.7564456 26.3532089,39.6990373 C26.7977609,39.6523708 27.1021356,39.5925755 27.3103102,39.5695406 C27.5180068,39.5445961 27.6249622,39.5388672 27.6614107,39.5468638 C27.6983372,39.5562925 27.6663103,39.5850563 27.5947279,39.6240844 C27.5221894,39.6597706 27.4098564,39.7046469 27.2882021,39.7523876 C27.0448935,39.8476304 26.7644195,39.9571954 26.6935541,40.0153197 C26.6238837,40.0767859 26.7719482,40.1210654 27.3870313,40.049693 C27.5160947,40.0205712 27.6297423,39.9972976 27.7290495,39.9722337 C27.8274006,39.9438279 27.913204,39.9191221 27.989925,39.8969227 C28.1425306,39.8508529 28.2570147,39.810512 28.358473,39.7650389 C29.4579026,39.3115019 29.0930593,39.3470688 28.4050792,39.4319279 C29.7424398,39.0186125 30.3321882,38.8635745 30.7172275,38.8368397 C30.6843642,38.8568908 30.6520983,38.8764645 30.6189959,38.8968737 Z M14.1438038,4.88351083 C14.3302288,4.73420169 14.6784612,4.55779968 15.0646956,4.35919823 C15.1604177,4.30775759 15.2630709,4.26491028 15.3658437,4.21991464 C15.4688555,4.17527705 15.5727038,4.13028141 15.6759546,4.08540512 C15.7792054,4.04076754 15.8818586,3.99648801 15.9822413,3.95316329 C16.0846556,3.9149707 16.1846798,3.87749423 16.2808799,3.84156933 C16.4786577,3.76900341 16.6771526,3.69285694 16.879591,3.62709408 C17.0839415,3.56706011 17.2890091,3.50678743 17.4935986,3.44663411 L17.6468017,3.40151912 C17.6979491,3.38660014 17.7502915,3.37621653 17.8016779,3.36320718 C17.9049287,3.33814329 18.0078209,3.31319876 18.1104742,3.28825423 C18.3157807,3.23896192 18.5173827,3.18083758 18.7208967,3.14228693 C19.828811,2.88890299 20.957758,2.74472598 22.0896925,2.70808497 C22.3172266,2.71679765 22.5434462,2.72539098 22.7752824,2.73422302 C23.1400063,2.75618375 23.5783441,2.78256051 23.8738756,2.80034393 C24.6934287,2.81490486 25.5329388,2.92065058 26.3665933,3.09860416 C26.4447484,3.11614888 26.523023,3.13309684 26.6011781,3.15159638 C26.6432432,3.16126388 26.6853084,3.17069267 26.7273735,3.18071823 C27.1226901,3.27810932 27.5153777,3.38910653 27.9040022,3.5110841 C27.9263493,3.51824521 27.9490549,3.52409345 27.9712825,3.53125456 C28.0723822,3.5633602 28.1720479,3.59844964 28.2723111,3.63198751 C28.4483394,3.69178278 28.6238896,3.75241351 28.7980058,3.81698285 C29.6799396,4.15343567 30.3974369,4.55183209 30.8131886,4.91979379 C30.8602729,4.95715091 31.0580507,5.08079941 31.1868752,5.16386829 C31.3155802,5.207193 31.4442851,5.25063707 31.5795628,5.29622947 C31.7146014,5.34349279 31.8516716,5.40173649 32.0047552,5.460935 C32.1168493,5.54328776 32.2271507,5.62444701 32.3358987,5.70453209 C32.4435711,5.78604939 32.5444318,5.87389234 32.6468461,5.95648381 C32.6744513,5.97939936 32.7013395,6.0013601 32.7289448,6.0239176 C32.3811904,5.94991946 31.8629049,5.73246042 30.6952389,5.18332263 C31.3118756,5.34922168 31.6401509,5.42882936 30.6942829,4.87360463 C30.6074041,4.81894149 30.5082164,4.76750085 30.3748508,4.70579595 C30.3075705,4.67571929 30.232403,4.64206207 30.1463606,4.60339208 C30.0588843,4.56770588 29.9582626,4.53201968 29.8442565,4.48869497 C29.2923906,4.34427925 29.1517353,4.36552387 29.2076628,4.43057062 C29.2650244,4.49275293 29.5070184,4.62881402 29.7168661,4.74697233 C29.8217899,4.80629019 29.918707,4.86166944 29.9802512,4.90356194 C30.0407198,4.94831888 30.0662935,4.97875359 30.0315181,4.98257285 C30.0168192,4.98376637 29.9877799,4.97994711 29.9477463,4.97218924 C29.9310158,4.96323785 29.9152414,4.95440582 29.898033,4.94533508 C29.8045814,4.89998138 29.7040792,4.85116648 29.6002309,4.80139677 L29.4056797,4.66175512 C29.3367263,4.61341763 29.268968,4.56185764 29.1983416,4.51638459 L28.9863429,4.37901063 C28.8952814,4.32040888 28.9516869,4.41350331 29.0665295,4.55505458 C28.9492969,4.50361394 28.8324227,4.45420229 28.7188947,4.41040016 L28.4374646,4.49525932 L28.9574231,4.68455132 C28.9991297,4.70030577 29.0402388,4.71773113 29.0815869,4.73444039 C29.010841,4.71510539 28.9387806,4.69541234 28.8577574,4.67524188 C28.6554385,4.59312782 28.452522,4.5101783 28.2435109,4.44286386 C28.1529274,4.41326461 28.063061,4.38092026 27.9728361,4.34905332 C27.6759901,4.2306563 27.3618161,4.11560113 27.042862,4.01176504 C26.9061503,3.9670081 26.7694386,3.92237052 26.6338025,3.87809099 C26.4970908,3.83775007 26.3602596,3.80218322 26.2262965,3.76494545 C26.0920944,3.72794638 25.9602823,3.69190213 25.8319358,3.65669334 C25.7997895,3.64774195 25.7678821,3.63890991 25.7362138,3.63031658 C25.7043064,3.62291677 25.6725185,3.61563631 25.6410892,3.60835584 C25.578111,3.59391427 25.5162083,3.57983076 25.4553812,3.56598594 C25.2121921,3.50929382 24.9876456,3.45713707 24.7911823,3.41142532 C24.593524,3.37215857 24.4244269,3.33575626 24.2934514,3.30281515 C24.1235178,3.26008719 23.8929961,3.31331811 24.0036561,3.40139976 C24.1371412,3.5076229 24.2682362,3.61360732 24.3971802,3.7197111 C24.3773426,3.71720472 24.3576246,3.71434027 24.3377871,3.71195323 L24.0851573,3.6508451 C23.9771263,3.62458769 23.8689759,3.59773353 23.75975,3.57899529 L23.1033188,3.45546615 C22.9934953,3.43290865 22.8831939,3.41906384 22.7726534,3.40402551 L22.4405539,3.35914922 L22.1071399,3.31451163 C21.9956434,3.29935395 21.8841469,3.29398311 21.7722919,3.2833608 C21.5502549,3.26486127 21.4047,3.36941347 21.517272,3.43469893 C21.4572814,3.42467337 21.3839064,3.41500587 21.3018077,3.40593513 C21.219709,3.39793856 21.1286476,3.38528727 21.033523,3.38409375 C20.8431544,3.37729069 20.6352188,3.3745456 20.4462842,3.37561977 C20.3517571,3.37621653 20.2620102,3.3777681 20.1815845,3.38003579 C20.1015174,3.38612273 20.0307715,3.39280643 19.9738879,3.39937078 C19.8600014,3.41285754 19.8019228,3.42694106 19.8353837,3.439473 L20.1764459,3.56896974 C20.2406191,3.59522714 20.3038363,3.62327482 20.367412,3.65096445 C19.976517,3.67757991 19.5840684,3.71374351 19.1918589,3.768526 C19.1679582,3.77031628 19.1444161,3.77031628 19.1203959,3.77270332 C18.7640373,3.80266063 18.3946529,3.83249859 18.0727112,3.89456154 C17.9110233,3.92189311 17.7596127,3.94922468 17.6249326,3.97488532 C17.489655,3.99780088 17.3744539,4.03253226 17.2804048,4.05616392 C17.0932628,4.1065304 16.9978992,4.13994891 17.044386,4.14257465 C16.9613312,4.14901965 16.8728988,4.16071613 16.7823154,4.17647057 C16.7370237,4.18446714 16.6911344,4.19317983 16.6452452,4.20284732 C16.599834,4.21442445 16.5544228,4.22707575 16.5092505,4.2400851 C16.3285617,4.29283861 16.1525334,4.35561767 16.0067395,4.41636775 C15.933723,4.44668312 15.8683548,4.47640173 15.8136223,4.50409135 C15.8131443,4.50444941 15.8126663,4.50468811 15.8121882,4.50492681 C15.3705043,4.64277818 14.9356321,4.79256473 14.5102006,4.95368971 C14.4894071,4.96085082 14.4669405,4.96872804 14.4467444,4.97565044 C14.2927048,5.03496831 14.1550371,5.08366385 14.0572834,5.1093245 C13.8620152,5.16040708 13.8265227,5.12006616 14.1438038,4.88351083 Z M39.0652446,25.7110025 C39.0250915,25.6205338 38.9532701,25.5719576 38.9029583,25.653833 C38.9028397,25.6488202 38.914551,25.6039439 38.9351056,25.5294683 C38.9484899,25.4810115 38.9661764,25.4190679 38.9843409,25.3478149 C39.0155312,25.2658201 39.0467216,25.1840641 39.0757609,25.1040984 C39.0892647,25.0747379 39.1008565,25.0448999 39.1141214,25.0155394 C39.1015736,25.2287017 39.0890257,25.4311224 39.0786289,25.6204144 C39.0739683,25.6506105 39.0696662,25.6808065 39.0652446,25.7110025 Z M35.0498168,33.8948383 L35.0804097,33.8677455 C35.0978571,33.8586747 35.1139901,33.8484105 35.13084,33.838743 L35.1658545,33.8410107 C35.0908064,33.9347018 35.0149219,34.0282737 34.9364083,34.1214875 C34.9637745,34.0362703 34.9525412,33.9786233 35.0498168,33.8948383 Z M27.0131057,39.1841535 L26.820586,39.1496608 C26.9366236,39.1377257 27.0527808,39.1240002 27.1690574,39.109678 C27.1273508,39.1340258 27.0747693,39.1590896 27.0131057,39.1841535 Z M22.7158893,39.726727 C22.7586715,39.7199239 22.8008561,39.713837 22.8428018,39.7083468 C22.9000438,39.7329333 22.9578834,39.7585939 23.0157229,39.7793611 C22.9091261,39.7675453 22.8021707,39.7458233 22.6955738,39.7293527 C22.702744,39.7283979 22.7099142,39.7275624 22.7158893,39.726727 Z M16.972445,39.0454667 C17.0717522,38.9816135 17.267857,39.0350831 17.4854724,39.1143327 C17.5409218,39.2028918 17.5962518,39.2955088 17.6543304,39.3801292 C17.4218966,39.2745029 17.1938845,39.1586122 16.9659918,39.0484505 C16.9680234,39.0473763 16.9706525,39.0466602 16.972445,39.0454667 Z M23.1052308,3.70491148 L22.9776014,3.65621593 C22.9348192,3.64093889 22.8920371,3.62757149 22.8491354,3.61301057 C22.9636195,3.62649732 23.0775061,3.65036769 23.1912732,3.67137361 L23.5318573,3.73570425 C23.3912021,3.72997536 23.2497102,3.71994981 23.1052308,3.70491148 Z M25.892763,3.9992331 C25.8965871,3.99577189 25.8969456,3.99147523 25.8896559,3.98526893 L25.9828684,4.01928421 C25.9529926,4.01176504 25.9227583,4.00603615 25.892763,3.9992331 Z M25.6629583,39.4717914 C25.5501473,39.4781171 25.4362607,39.4771623 25.3233301,39.4800267 C25.595439,39.4241701 25.8708939,39.3495752 26.1378641,39.2753383 C26.2438635,39.2999248 26.3510578,39.3248693 26.4584912,39.3482623 C26.2887967,39.385142 26.1070323,39.4221411 25.9202487,39.4544854 L25.6629583,39.4717914 Z M22.4615865,35.0074361 C22.6550622,35.0074361 22.8469844,35.0011105 23.038309,34.9926365 C22.8866595,35.0105393 22.7348904,35.0259357 22.5831213,35.0395418 C20.6587609,35.12273 18.7312934,34.8703009 16.9192661,34.2900123 C16.8144618,34.2527745 16.7098964,34.2147013 16.6059286,34.1749571 C16.4527255,34.1228003 16.302988,34.0559633 16.1495458,33.9954519 C16.0727053,33.9648979 15.9957452,33.9343438 15.9186656,33.9036704 C15.8801856,33.8880353 15.840869,33.8741905 15.8029865,33.8571232 L15.6893389,33.8054438 C15.5374503,33.7365778 15.3853227,33.6675924 15.2336732,33.5988458 C15.0840551,33.5256831 14.9386197,33.44524 14.7934233,33.3674226 C14.7227969,33.32923 14.6494219,33.2893665 14.5742544,33.2485482 C14.5012379,33.2040299 14.4266679,33.1584375 14.3515004,33.1127258 C14.2764523,33.0667753 14.2008068,33.0205862 14.1259978,32.9747551 C14.0513083,32.9286852 13.9763798,32.8845251 13.9079044,32.8341586 C13.6302984,32.6384216 13.3797002,32.4640486 13.2513537,32.3279875 C13.0311093,32.1105284 13.0627776,32.0831969 13.2084521,32.1440663 C13.2812295,32.1746204 13.3825683,32.2273739 13.4953793,32.2899142 C13.6103414,32.348874 13.7391659,32.4148756 13.8635687,32.4784901 C13.9412458,32.5188311 13.9595298,32.5039121 14.004702,32.514057 C13.5620621,32.1877491 13.3581896,32.0029924 13.0244171,31.7529503 C12.9442304,31.6861133 12.8563956,31.6146216 12.7560129,31.5339397 C12.7055825,31.4937182 12.6521646,31.4512289 12.5951615,31.4057559 C12.5664808,31.3829597 12.5369635,31.359686 12.5063706,31.3354576 C12.4770923,31.309797 12.446858,31.2833009 12.4155482,31.2559693 C12.2899503,31.1465237 12.147622,31.0226365 11.983783,30.8798917 C11.9053889,30.8047 11.8218562,30.7243762 11.7325873,30.6384429 C11.7258951,30.6319979 11.7183664,30.6250755 11.7116742,30.6185112 C11.7140643,30.6170789 11.7168128,30.6160048 11.7188444,30.6142145 C11.7568464,30.5827056 11.7340213,30.5176589 11.5857178,30.3192961 C11.5122233,30.2193986 11.4056265,30.0878729 11.2546939,29.914216 C11.1051954,29.7392462 10.9271356,29.5090165 10.6933873,29.2257946 C10.4922633,28.9647722 10.3038068,28.7223686 10.1243129,28.4891551 C9.75146287,27.8499067 9.42868467,27.1826106 9.16135596,26.4939505 C9.17223075,26.5088695 9.18286654,26.52534 9.19398034,26.5396623 C9.25492698,26.6214183 9.31336406,26.6967293 9.3707256,26.7692952 C9.42808715,26.8413837 9.48401466,26.9114432 9.54077869,26.9826963 C9.56826443,27.0186212 9.59873775,27.0531138 9.62933058,27.088442 C9.65944539,27.1240088 9.69015772,27.1601724 9.72170657,27.1972909 C9.78408725,27.2718858 9.84837998,27.351016 9.9158993,27.4385009 C9.94983822,27.4821837 9.98449415,27.5280148 10.0201061,27.5762329 C10.0563156,27.624093 10.0970662,27.6723112 10.1373388,27.7247066 C10.2187205,27.8289008 10.3055993,27.9444333 10.3997678,28.0750042 C10.4231905,28.1077066 10.4472106,28.1411252 10.4718283,28.1756178 C10.49788,28.2091557 10.5245292,28.243529 10.5520149,28.2788572 C10.6065084,28.3495135 10.6632724,28.4243471 10.7224265,28.503716 C10.6088985,28.3372202 10.4883197,28.1754985 10.3823204,27.9963514 C10.3274684,27.9081504 10.2717799,27.8186365 10.2147769,27.7269743 C10.1580128,27.6354314 10.0983807,27.5428144 10.0454408,27.4425589 C9.99058881,27.3433775 9.93406379,27.2415704 9.87586572,27.1363021 C9.81790666,27.0309144 9.75516747,26.9237365 9.7007935,26.8067717 C9.64402947,26.6910004 9.58523389,26.5710518 9.52404824,26.4462098 C9.49417243,26.3834307 9.46059203,26.3208904 9.43215026,26.2544114 C9.40346949,26.1879324 9.3743107,26.1201406 9.3445544,26.0509165 C9.39056314,26.1292113 9.43382331,26.2030901 9.47493241,26.2731496 C9.51938761,26.3411802 9.56145275,26.4053915 9.60136682,26.4663802 C9.68083646,26.5876417 9.75182138,26.6958938 9.81707014,26.7953139 C9.83332258,26.8200197 9.8492165,26.8441288 9.86475192,26.8677605 C9.88148237,26.8907954 9.89797382,26.9132335 9.91398725,26.9354329 C9.94625312,26.9794738 9.97720445,27.0217243 10.0073193,27.0630201 C10.0599007,27.1349892 10.1097335,27.2030198 10.1589689,27.2702148 C10.3192227,27.6021323 10.5002701,27.9340497 10.7083252,28.2629834 C10.7404715,28.2949697 10.7678378,28.3207497 10.7925749,28.3435459 C11.1157116,28.8437494 11.4559373,29.3022991 11.7894708,29.6990246 C11.8238877,29.7009343 11.8571096,29.7026052 11.889256,29.7043955 C11.9219999,29.7053503 11.9536682,29.7061858 11.9846196,29.7067825 C11.9898777,29.7069019 11.9944188,29.7070212 11.9995575,29.7070212 C14.3897414,32.9259402 18.1860002,35.0074361 22.4615865,35.0074361 Z M20.6000848,37.1618561 L20.6488421,37.1647205 C20.5918391,37.1618561 20.5347166,37.1606625 20.4777135,37.1568433 L20.3227178,37.1431178 C20.4152133,37.1496822 20.5074698,37.1576788 20.6000848,37.1618561 Z M22.9870422,37.2270222 C22.9421089,37.230364 22.8986098,37.2360929 22.85284,37.2382412 C22.8423238,37.2352574 22.831927,37.2313188 22.8214107,37.2282157 C22.8766212,37.2277383 22.9317122,37.2274996 22.9870422,37.2270222 Z M9.07686718,22.6163288 C9.11522772,22.5410178 9.1553808,22.6148966 9.200075,22.7816311 C9.21035228,22.8235236 9.22445366,22.8704289 9.23903305,22.9223469 C9.25349294,22.9742649 9.26855035,23.0311958 9.28408577,23.0920652 C9.31623214,23.2136847 9.34658595,23.3527296 9.38673904,23.4995324 C9.45688743,23.7311943 9.52058264,23.9647658 9.59730371,24.1946374 C9.76150114,25.0759314 10.0107849,25.9263132 10.3371482,26.7368315 C10.3343996,26.7321768 10.3317705,26.727522 10.3291414,26.7228673 C10.2903029,26.6590141 10.256364,26.5921771 10.2221861,26.5247433 C10.2004365,26.4826121 10.1785674,26.4397648 10.1566983,26.3972755 C9.95378182,25.9153328 9.84359985,25.5223072 9.72565017,25.1310719 C9.60292036,24.6486518 9.46417712,24.1637253 9.3000992,23.4502401 L9.27261346,23.497384 C9.24190113,23.3787483 9.21441539,23.2578449 9.18430058,23.1349125 C9.16458255,23.0504114 9.14462551,22.9650749 9.12454897,22.8790222 C9.10626498,22.7927308 9.09276111,22.7046492 9.07686718,22.6163288 Z M11.2066536,28.5075353 C11.1968543,28.4935711 11.186338,28.479965 11.1768973,28.4660009 C11.1099755,28.3645518 11.0449657,28.2650124 10.9822265,28.1671439 C10.9511557,28.1180903 10.9204434,28.0696334 10.8899701,28.0215346 C10.8599748,27.9731971 10.8292624,27.9261725 10.8036887,27.8765221 C10.6973309,27.6805464 10.6008918,27.4905383 10.5170005,27.3050656 C10.5769911,27.3871796 10.6375793,27.4712033 10.6980479,27.5555851 C10.8550751,27.8806995 11.0248892,28.198056 11.2066536,28.5075353 Z M19.5173856,37.0747292 C19.346018,37.0542007 19.1738139,37.0297336 19.0014902,37.0012085 C18.9925275,36.9948829 18.9839232,36.9883185 18.9749605,36.9819929 C19.1385604,37.0082503 19.3025188,37.0323593 19.4669553,37.0545588 L19.5173856,37.0747292 Z M21.5052022,37.2061356 C21.3758997,37.202555 21.2463582,37.2019583 21.1180118,37.1905005 L21.109288,37.1839362 L21.4301542,37.1868006 L21.5052022,37.2061356 Z M37.6675349,20.4413803 C37.6451878,20.5645514 37.6197336,20.684142 37.5912918,20.7996745 C37.5626111,20.9152071 37.5329743,21.0265624 37.4901921,21.1338597 C37.4498,20.1808353 37.3264727,19.2328237 37.1194931,18.3030729 C37.1553441,18.3189467 37.1818738,18.2930473 37.2048184,18.252229 C37.20924,18.4195603 37.4650964,18.5781789 37.4860095,18.4224247 C37.4880411,18.428631 37.5072811,18.5126547 37.524609,18.647761 C37.5403835,18.7828673 37.561655,18.9673852 37.5854362,19.1715962 C37.6137584,19.3744943 37.6231992,19.6000693 37.6381371,19.8137091 C37.6455463,19.9204096 37.652597,20.0246037 37.6592892,20.122711 C37.6610817,20.1471781 37.6627548,20.1711678 37.6644278,20.1947995 C37.6650253,20.2184311 37.6655033,20.2418241 37.6658619,20.2645009 C37.6669374,20.3100933 37.6680129,20.3535374 37.6688494,20.3944751 L37.6675349,20.4413803 Z M38.2939708,22.2418027 C38.2860836,22.2117261 38.2781964,22.1814107 38.2704286,22.1510954 C38.2386408,22.0294758 38.1482964,21.9807803 38.1075458,22.1297314 C38.0792235,22.2326127 38.0510207,22.3352552 38.022818,22.4377785 C37.9621103,22.4632004 37.9125165,22.4941125 37.8776216,22.5308729 L37.8571865,22.3400293 C37.8379465,22.1582565 37.70721,22.1065771 37.6756611,22.312101 L37.6295329,22.6152546 C37.6116074,22.7158682 37.5889018,22.8158851 37.5690642,22.9159019 C37.559743,22.8564647 37.5383519,22.7747087 37.5108662,22.6892528 C37.4845755,22.6037969 37.4426298,22.5138056 37.4068984,22.4378978 C37.3330454,22.2859629 37.2634945,22.1889299 37.2556073,22.2803534 C37.2342162,22.5198925 37.206372,22.7581188 37.1742256,22.9953902 C37.2553683,22.2965852 37.2918168,21.5943191 37.2858416,20.8930077 C37.299465,21.1346951 37.3095032,21.3767407 37.3123713,21.6191442 C37.3163149,21.7842078 37.4146661,21.8969953 37.4742982,21.774421 C37.5254456,21.6693914 37.5733664,21.55732 37.6186581,21.4408326 C37.6248722,21.6152056 37.7399538,21.7494764 37.7867991,21.5820258 C37.9215987,21.5196048 38.1943051,21.4693577 38.4696405,21.381276 C38.4196882,21.6820427 38.3600561,21.9734998 38.2939708,22.2418027 Z M37.060339,24.6226331 L37.1585707,24.2140918 C37.1862954,24.0768372 37.2103156,23.9388665 37.2368453,23.8010151 C37.2618215,23.662925 37.2906217,23.5249543 37.3130883,23.3861481 L37.3698524,22.96782 L37.4163391,23.2614255 L37.4396423,23.4093024 C37.4475295,23.458714 37.4508756,23.5077676 37.4566117,23.55706 C37.4611528,23.5989524 37.4737007,23.6281936 37.4898336,23.6474093 C37.4843365,23.6568381 37.4790783,23.6660282 37.4738202,23.6789182 L37.2774764,24.1566836 C37.2220269,24.2849868 37.1608412,24.410903 37.1012091,24.5364611 L37.1204491,24.449931 C37.113996,24.4813205 37.1050332,24.5117553 37.098102,24.5429061 C37.0855542,24.5692828 37.0726479,24.5960177 37.060339,24.6226331 Z M16.4938346,8.69966634 C16.5626685,8.66254792 16.6365215,8.63175515 16.7103745,8.59953016 C16.784347,8.56742451 16.8590365,8.53508017 16.933248,8.50285517 C17.0074595,8.47074953 17.081193,8.43888259 17.1532534,8.40761241 C17.2268674,8.38028084 17.2988083,8.35330732 17.3680007,8.32740798 C17.51009,8.27537058 17.6527769,8.22070744 17.7983318,8.17332476 C17.9450817,8.1301194 18.0924292,8.08691403 18.2395377,8.04370867 L18.3497197,8.01124497 C18.3864071,8.00050331 18.4239312,7.99310349 18.4609771,7.98379405 C18.5350691,7.96565257 18.6091611,7.9477498 18.6828946,7.92972767 C18.8304811,7.89439953 18.975319,7.85274574 19.121591,7.82505611 C19.9178409,7.64280586 20.7292678,7.53920847 21.5427262,7.51283172 C21.7063261,7.51915736 21.8688505,7.52536366 22.035438,7.53156995 C22.2976281,7.54744375 22.6126386,7.56642069 22.8249958,7.57919133 C23.4140272,7.5896943 24.0172794,7.66572141 24.6165881,7.79354723 C24.6727546,7.80607917 24.7290406,7.81837241 24.7850876,7.83162046 C24.8153219,7.83866222 24.8455563,7.84534592 24.8759101,7.85262638 C25.1599692,7.92256656 25.4421163,8.00241294 25.7213954,8.08989783 C25.7375283,8.09502996 25.7537807,8.09932662 25.7699137,8.10445875 C25.8424521,8.12761301 25.9140346,8.15279625 25.9862145,8.17690532 C26.1126489,8.21975262 26.2388443,8.26343539 26.3639642,8.30986326 C26.9978093,8.55167007 27.5134657,8.83799512 27.8122237,9.10235943 C27.8461626,9.12921359 27.988252,9.21813071 28.0807475,9.27780663 C28.173243,9.30895745 28.265858,9.34022763 28.3630141,9.37293004 C28.4600507,9.40694531 28.5585213,9.4488378 28.6685838,9.4912077 C28.7492485,9.55064492 28.8284791,9.60888861 28.9066342,9.66641619 C28.9839528,9.72489859 29.0564913,9.78815506 29.1301053,9.84759228 C29.1499428,9.86394348 29.1693023,9.87969792 29.1890203,9.89592977 C28.9392586,9.8428182 28.5666476,9.6864673 27.7274959,9.29177079 C28.1706139,9.41112262 28.4065132,9.46829215 27.7267789,9.06917962 C27.6643982,9.02991287 27.5930548,8.99303315 27.4972132,8.94863427 C27.4489339,8.92703159 27.3949185,8.90280317 27.3330158,8.87499419 C27.2701571,8.8494529 27.1978577,8.8236729 27.1158785,8.79264142 C26.7192473,8.68892468 26.618267,8.70420171 26.6584201,8.75086828 C26.6995292,8.79550587 26.8735259,8.89337437 27.024339,8.97835288 C27.0997455,9.02084213 27.1692964,9.06070564 27.2137516,9.0907823 C27.2570118,9.1230073 27.2755348,9.14484868 27.2504391,9.14759378 C27.2399228,9.14830989 27.2190097,9.14556479 27.1902095,9.14007461 C27.1782591,9.13362961 27.1669063,9.12730396 27.154478,9.12073961 C26.9049553,8.9995975 26.5911398,8.84599169 26.3070807,8.73630736 L26.1048812,8.79729614 L26.4785678,8.93335723 C26.5085631,8.94457631 26.5380804,8.9572276 26.5677172,8.96916278 C26.5169283,8.95519862 26.4650639,8.9411151 26.4069853,8.92667353 C26.2614304,8.86771373 26.1156365,8.80803781 25.9654209,8.75970032 C25.8155639,8.71052736 25.6679774,8.6512095 25.5146548,8.61015247 C25.41236,8.60800414 25.337312,8.61600071 25.2763654,8.62960682 C25.2210354,8.61242015 25.1651079,8.59439803 25.1115704,8.58114997 C24.7887922,8.50345193 24.5128593,8.45415962 24.3059992,8.48041703 C24.186735,8.43279565 24.3515299,8.45738212 24.2316682,8.40964139 C24.0260032,8.36786825 23.8205771,8.32681122 23.6135975,8.29947965 C23.4069765,8.26916428 23.2011919,8.23431355 22.9940928,8.21748494 C22.906019,8.27190937 22.6568548,8.31821789 22.8522425,8.41716056 C22.8505695,8.4170412 22.8488964,8.4170412 22.8472234,8.41692185 C22.5669883,8.36977788 22.3190191,8.43016991 21.9197589,8.37013593 C20.905296,8.32346937 21.795117,8.22548151 21.4272861,8.15172208 C20.7814907,8.15410912 20.1149017,8.18287291 19.4507028,8.27620604 C18.7863844,8.36607797 18.121588,8.49676823 17.4745976,8.67221542 C17.0036354,8.80397985 16.5427114,8.9574663 16.0954109,9.12682656 C16.080473,9.13207804 16.06434,9.13768757 16.0497607,9.14270035 C15.9391007,9.1851896 15.840152,9.22015969 15.7698841,9.23853987 C15.6295873,9.27541959 15.6040136,9.24641709 15.8320258,9.07646008 C15.9661084,8.96892408 16.2163481,8.84229179 16.4938346,8.69966634 Z M24.7274871,3.61742658 L24.8073152,3.63807445 L24.8865459,3.66254158 L25.0447681,3.71111777 L25.3598981,3.80862822 L25.6735941,3.90637737 L25.783537,3.94647959 C25.5132208,3.8916971 25.2431435,3.83846618 24.9710346,3.80254128 C24.9586063,3.800751 24.9462975,3.79884137 24.9339886,3.79693174 C24.8658718,3.73570425 24.7973965,3.67316389 24.7274871,3.61742658 Z M20.7874659,3.53758021 C20.9105542,3.55261854 21.0331645,3.56467307 21.1554163,3.58257585 L21.2977446,3.60644621 C21.1891162,3.60919131 21.0797707,3.61456214 20.9706643,3.6188588 C20.9095982,3.59176594 20.848532,3.56467307 20.7874659,3.53758021 Z M17.880789,3.97369181 L17.9761526,3.96784357 C17.9576296,3.97142412 17.9391066,3.97452727 17.9205836,3.97810782 L17.880789,3.97369181 Z M14.2453815,38.0714364 C14.1250418,37.9760743 14.0050605,37.8808315 13.8851988,37.7857081 C13.9776943,37.8376261 14.0698313,37.8894248 14.1617293,37.9411042 L14.2453815,38.0714364 Z M43.9878213,20.7616013 C43.976827,20.4539123 43.9706128,20.1459846 43.9403785,19.8397278 L43.9030935,19.3798651 L43.8843315,19.1499935 C43.8784758,19.0733696 43.866167,18.9974619 43.8573238,18.9210767 C43.8180072,18.6163715 43.7814392,18.3111888 43.7390156,18.0070804 C43.6863146,17.7045235 43.6336137,17.4022053 43.5809128,17.0998871 C43.216189,15.6430786 42.6772294,14.2754259 41.993432,13.0402538 C41.8678341,12.8205271 41.7229962,12.5541338 41.5700321,12.2559929 C41.4961791,12.1054903 41.4083442,11.9529586 41.3196728,11.79434 C41.2319575,11.6354827 41.141374,11.471374 41.0491176,11.304162 C40.9611632,11.1346824 40.8545663,10.9714091 40.7550201,10.8028843 C40.6541594,10.6350757 40.5525817,10.4661928 40.4514819,10.2981454 C40.2392442,9.96837633 40.0210313,9.64720055 39.8170393,9.34356949 C39.1658663,8.43267629 38.4440668,7.55317264 37.6729125,6.76843433 C37.5499437,6.64884379 37.4275724,6.53259511 37.3048426,6.41551096 L37.2476006,6.35404477 L37.0279537,6.11904101 C36.9910272,6.08013231 36.9552957,6.04003009 36.9172937,6.00219556 L36.8020926,5.89012419 L36.3404516,5.44243546 L36.2247725,5.3306028 C36.186173,5.29348438 36.1448248,5.2592304 36.1050303,5.2235442 L35.8636338,5.01133664 C35.2273986,4.43606081 34.537626,3.92607042 33.8366201,3.43589244 L33.2976606,3.08833991 L33.0275833,2.9153991 L32.7503358,2.75499024 L32.1948849,2.43524667 L31.6258105,2.14199922 L31.3409149,1.99627063 C31.2453123,1.94888795 31.1472001,1.90711481 31.050522,1.86235788 L30.4677048,1.59882903 C30.2717195,1.51516339 30.0721491,1.44032979 29.8744908,1.36108018 C29.6763545,1.28290473 29.4790547,1.20234224 29.2762577,1.13741484 L28.6716909,0.932487743 C28.5715472,0.896324137 28.4684159,0.870066734 28.3664797,0.83987072 L28.0598344,0.752147123 C27.6529259,0.627305105 27.2370547,0.539223452 26.8235736,0.441593653 C26.7718287,0.430016525 26.7203228,0.416768472 26.6683389,0.406504214 L26.5116702,0.377740422 L26.1984522,0.320451542 L25.8852343,0.263401366 L25.7286851,0.235234333 L25.5709408,0.213989707 L24.9402028,0.130682127 L24.7825781,0.110153612 C24.7298771,0.103589261 24.6769372,0.100724817 24.6242363,0.095831392 L24.3074333,0.0694546369 C23.4632625,-0.011465906 22.6145506,-0.0103917395 21.7696628,0.0161043674 L21.1367738,0.0585936201 C21.0313719,0.0662321374 20.9258506,0.072199729 20.8206878,0.081509172 L20.5059163,0.118269537 L19.8769708,0.193461192 C19.6684377,0.226521649 19.4605021,0.263162662 19.252447,0.298371453 C17.5675711,0.585770667 15.9252383,1.11581216 14.3678723,1.82738779 C14.2703577,1.87154797 14.1722455,1.91427592 14.0753284,1.95986832 L13.7889987,2.10547756 L13.2166978,2.3977702 C13.0284802,2.49981602 12.8444452,2.60973906 12.6583787,2.71584283 L12.3800557,2.8764904 C12.3339275,2.90358327 12.2866042,2.92900521 12.241432,2.957769 L12.1062738,3.04489584 C11.7469277,3.27906414 11.3806503,3.50225206 11.03672,3.76076813 C10.8627233,3.88668432 10.6872926,4.01057152 10.514969,4.13887474 L10.0105459,4.54144848 C9.62347492,4.85188259 9.25050536,5.18021949 8.88888862,5.52108832 C8.88733507,5.52096897 8.88578153,5.52073027 8.88422799,5.52061092 C8.83570968,5.5164336 8.78563783,5.51213694 8.73389294,5.50760157 C7.76818741,6.37779578 6.73866715,7.49648051 5.8316377,8.75993902 C5.73209152,8.8625816 5.63146981,8.96641769 5.52475343,9.07657943 C5.47133549,9.13183933 5.4162445,9.18865081 5.35900246,9.24784931 C5.33032169,9.27744857 5.3011629,9.30764458 5.2714066,9.33855671 C5.24320384,9.3707817 5.21452307,9.40348411 5.18512527,9.43702197 C5.06705609,9.57200889 4.93859013,9.7191697 4.79458875,9.88375588 C4.7224088,9.96658605 4.64628525,10.0538322 4.56562057,10.1463299 C4.48985553,10.2424081 4.40978837,10.3439766 4.32494109,10.4513932 C4.38373667,10.3541215 4.44133722,10.2587593 4.49774274,10.1653069 C4.55414827,10.071735 4.61712646,9.98520494 4.67472702,9.89760069 C4.79195968,9.72370507 4.90453171,9.55661251 5.01327964,9.39536818 C5.11880099,9.23173682 5.23471911,9.08445666 5.34298903,8.93884742 C5.45185646,8.79371559 5.5571388,8.65323848 5.65979207,8.51646128 C5.75969676,8.37753575 5.86784718,8.25150021 5.97181498,8.12641949 C6.07578278,8.00133877 6.17748003,7.87912249 6.27774323,7.75857714 C6.473131,7.51283172 6.68692226,7.29632749 6.89103376,7.07099123 C6.78622944,7.17721436 6.68596623,7.27735055 6.58976614,7.37175785 C6.54148684,7.41878247 6.49452207,7.46461357 6.44863283,7.50925116 C6.40465565,7.55555967 6.36175399,7.60067466 6.31992787,7.64459614 C6.15238435,7.82004333 5.9985837,7.97472331 5.85529934,8.11341014 C5.78431443,8.18311161 5.71332951,8.24684549 5.64927579,8.31105678 C5.58605858,8.37574547 5.52475343,8.43685361 5.46512132,8.49521665 C5.34597661,8.61158469 5.23352408,8.71661431 5.12489565,8.81496022 C5.07004367,8.86401382 5.01662573,8.91151585 4.96416382,8.95842112 C4.91122389,9.00472963 4.85840347,9.04996398 4.80988516,9.09806276 C4.71033898,9.19258942 4.61234633,9.2858032 4.51160512,9.38152337 C4.4108639,9.478079 4.30785213,9.57833454 4.19982121,9.68778017 C4.08916123,9.79543553 3.98363989,9.91896467 3.86999232,10.0570547 C3.91624007,9.9664667 3.96272682,9.87563996 4.00933308,9.78445516 C4.06012195,9.69577674 4.11103032,9.60685963 4.1621777,9.51758446 C4.26506997,9.33879541 4.36867927,9.1586935 4.47276657,8.97787547 C4.57350779,8.79383494 4.69348902,8.62220701 4.80606106,8.44341796 C4.92066465,8.26582243 5.03586575,8.08739144 5.15130586,7.90848304 C5.27224312,7.7333939 5.39879703,7.56140791 5.52331939,7.38691553 L5.71141746,7.12541566 C5.77427616,7.03816947 5.83617882,6.94972977 5.90477367,6.86701895 L6.30797754,6.36180264 L6.5105355,6.1088961 C6.57996687,6.02642398 6.65250533,5.94681631 6.72360975,5.86565707 C6.64915924,5.92163307 6.57303569,5.97868325 6.49511959,6.037285 C6.42007156,6.09934795 6.34299199,6.16284313 6.26364185,6.22836729 C6.10470256,6.36060912 5.93620302,6.50096687 5.75479713,6.65194694 C5.70938591,6.69013953 5.66301866,6.72880952 5.61593439,6.76819563 C5.57076217,6.80973007 5.52487293,6.85186126 5.47802767,6.89494727 C5.38433714,6.981358 5.28694202,7.07111058 5.18572279,7.16444371 C4.98376235,7.3525422 4.7594548,7.55162106 4.53658129,7.78805704 C4.58282904,7.72432316 4.62740374,7.66297632 4.6703054,7.60389716 C4.69181598,7.57429791 4.71284854,7.54541477 4.7336421,7.51677033 C4.7556307,7.48943876 4.77726078,7.46246524 4.79841285,7.43608849 C4.88326014,7.33022341 4.96189326,7.2321162 5.03550724,7.14033464 C5.18309372,6.95701023 5.31036465,6.79886905 5.42664128,6.65469203 C5.66935233,6.37505069 5.87059575,6.15317563 6.10040045,5.89465956 C6.09418628,5.89251123 6.08785261,5.89036289 6.08175794,5.88821456 C5.76555242,6.24770228 5.43811359,6.59668704 5.14604772,6.97562911 C4.9967882,7.16241473 4.84549712,7.34717137 4.69874716,7.53550856 L4.27761781,8.11531977 L4.06765065,8.40534472 C3.9990558,8.50297452 3.9358386,8.60466229 3.86975332,8.70420171 L3.47826076,9.30418338 C3.41098045,9.40276799 3.35421642,9.50839437 3.29291127,9.61067889 L3.11174438,9.92003884 L2.93117502,10.2293988 C2.90141871,10.2811975 2.87022837,10.3320414 2.84178661,10.3845562 L2.75885137,10.5434135 L2.42782745,11.178962 L2.34525072,11.3378193 C2.3183625,11.3910502 2.29470086,11.445952 2.26912717,11.5000184 L2.11915063,11.8253715 L1.96953259,12.150844 C1.92029727,12.2595735 1.86771585,12.3666321 1.8251727,12.4784647 L1.55736598,13.1426577 L1.49068318,13.3087954 L1.45734179,13.391745 L1.42782449,13.4762461 L1.30987481,13.8143698 C1.23267573,14.0401835 1.15045751,14.2642069 1.07791906,14.4913334 L0.875241594,15.1774871 C0.842497711,15.2921842 0.806049229,15.4056878 0.77641243,15.521101 L0.691326136,15.8684149 C0.635279125,16.1000768 0.577081056,16.3312613 0.523543613,16.5632812 L0.386831928,17.264712 L0.319790621,17.6156063 L0.267926222,17.9688878 L0.165511962,18.6754506 L0.0952440675,19.385594 L0.0605881333,19.7405464 L0.0419456307,20.0966923 L0.00561665141,20.8086259 L0.00143403866,21.5211564 L0,21.8773023 L0.0138623737,22.2330901 L0.043738179,22.9443076 L0.105043332,23.6532575 L0.136472679,24.0073744 C0.150454556,24.1251747 0.167424013,24.2423782 0.182839929,24.3599397 L0.278323003,25.0643543 C0.318237079,25.2978064 0.362333767,25.5305425 0.404398901,25.7635173 L0.468572131,26.1127408 C0.492233769,26.2287507 0.520795039,26.3436866 0.546727238,26.4589804 L0.706861555,27.1505049 C0.767210682,27.3791831 0.833534969,27.6064289 0.896752174,27.8341522 L0.992952267,28.1754985 C1.02593516,28.2888827 1.06608824,28.400238 1.10241722,28.5126674 L1.32624675,29.185215 C1.40571639,29.4076868 1.49414878,29.6265781 1.57804004,29.8472596 L1.70578898,30.1776255 C1.74701759,30.2882646 1.7990015,30.3943684 1.84512974,30.5028592 L2.13110095,31.1503429 C2.17663168,31.2593112 2.23375421,31.3625505 2.2850211,31.4687736 L2.44300436,31.785056 C2.54936222,31.9954733 2.64998394,32.2088743 2.76924815,32.4121305 C3.67568008,34.0633631 4.76937357,35.6120725 6.05546724,36.9755479 L6.53873826,37.4854189 C6.70520625,37.649647 6.87585685,37.8096978 7.0444759,37.9716583 C7.37633634,38.3020241 7.73747508,38.5978973 8.08953157,38.9046315 L8.22218014,39.0188512 C8.26651584,39.0566858 8.31360011,39.0910591 8.35925034,39.1274614 L8.63494427,39.3426528 C8.81969625,39.4849201 9.00146065,39.6312455 9.1888417,39.769813 L9.76150114,40.1713125 L10.0480699,40.3715849 C10.145465,40.4353188 10.2448917,40.4961882 10.3433623,40.5584899 C11.9138737,41.5611646 13.6028127,42.3812311 15.3731334,42.9468394 C15.5918243,43.0163022 15.8100372,43.0873165 16.0294451,43.154631 L16.6951975,43.3312717 L17.0283725,43.4187566 C17.1402275,43.4446559 17.2527996,43.4670941 17.3651326,43.4913225 L18.0397283,43.6334705 C18.9448457,43.7904182 19.8578503,43.920631 20.7780251,43.9621655 L21.1227919,43.9819779 C21.180273,43.984723 21.2376345,43.9896164 21.2952351,43.9905712 L21.4679172,43.9926002 L22.1588848,43.9988065 L22.3316865,44 L22.5042491,43.993555 L22.8496135,43.9798295 L23.1950973,43.9658654 L23.3677794,43.9587043 C23.42538,43.9554818 23.4827415,43.9490368 23.5401031,43.9445014 C23.9993539,43.9024896 24.4599194,43.8708613 24.9160632,43.7985341 L25.2589179,43.750674 C25.3730435,43.7338454 25.4878861,43.7211941 25.6009361,43.6975625 L26.281746,43.5690205 C26.5093996,43.5299925 26.7335877,43.4733004 26.9582537,43.4194727 C27.1826808,43.3642128 27.4083028,43.314085 27.6315349,43.253693 L28.2974068,43.0589108 C28.4081863,43.0254923 28.5199218,42.995535 28.6296258,42.9591327 L28.9577816,42.8456291 L29.6133763,42.6165929 L30.2579767,42.3572414 L30.5800378,42.2269092 L30.8961239,42.0817773 L31.5273399,41.7899621 C32.3537047,41.3691275 33.1711067,40.9253774 33.9405879,40.4030938 L34.2315783,40.2116535 C34.2796186,40.1793091 34.3292124,40.148755 34.3762967,40.1146204 L34.5170715,40.0119778 L35.0799316,39.6004527 L35.2204674,39.4974521 C35.2668347,39.462482 35.3111704,39.4247668 35.3565816,39.3886032 L35.6276149,39.1691152 L35.8984092,38.9493885 C35.9876781,38.8749129 36.0808906,38.8053308 36.1659769,38.7258425 C36.0967846,38.7658254 36.0376305,38.7893377 35.9962823,38.7937537 C35.9551732,38.7986471 35.9324676,38.785041 35.9330651,38.7475645 C35.9936533,38.7000625 36.0495808,38.6504121 36.1034767,38.6020746 C36.1577312,38.5540952 36.2104321,38.5077867 36.2613405,38.4629104 C36.3641133,38.3741126 36.4600743,38.2910438 36.5498213,38.2134651 C36.6407632,38.1371992 36.725252,38.0661849 36.8040046,38.0003027 C36.8833548,37.9351366 36.9519496,37.8694931 37.0191104,37.8126816 C37.2845271,37.5825713 37.4762102,37.4392297 37.6184191,37.3546093 C37.6975302,37.2788209 37.7711442,37.1975423 37.8447582,37.1161443 L38.0663171,36.8730246 C38.2130671,36.7102287 38.3629241,36.5501779 38.5066865,36.3848756 L38.9245893,35.8771529 C39.0628545,35.7071959 39.2058999,35.5410582 39.3331708,35.3622691 L39.7247829,34.8340179 C39.7888366,34.7451008 39.8575509,34.6596449 39.9176611,34.5678633 L40.100501,34.2940702 L40.4652248,33.7462453 C40.5841305,33.5619661 40.6925199,33.3706451 40.806287,33.1829047 C40.7226348,33.2816086 40.6392215,33.3798352 40.5500721,33.4849841 C40.748567,33.1555731 40.9214881,32.8766478 41.0609484,32.6369894 C41.194792,32.393989 41.3040179,32.1957456 41.3912553,32.0373658 C41.4790901,31.8793439 41.549597,31.7638114 41.5975178,31.6816973 C41.6448411,31.5993445 41.676868,31.5543489 41.6964665,31.542175 C42.2483324,30.4314868 42.6894188,29.2672097 43.0447018,28.0812105 C43.3981924,26.8941372 43.6565583,25.6802097 43.8180072,24.4548244 C43.9714493,23.2284844 44.0271378,21.9924768 43.9878213,20.7616013 L43.9878213,20.7616013 Z" id="Fill-228"></path>
            </g>
        </g>
    </g>
</svg>