<?xml version="1.0" encoding="UTF-8"?>
<svg width="46px" height="44px" viewBox="0 0 46 44" version="1.1" xmlns="http://www.w3.org/2000/svg" xmlns:xlink="http://www.w3.org/1999/xlink">
    <title>Group 2</title>
    <g id="Onboarding" stroke="none" stroke-width="1" fill="none" fill-rule="evenodd">
        <g id="Onboarding---Messaging" transform="translate(-172.000000, -1027.000000)" fill="#008F7C">
            <g id="Group-2" transform="translate(172.950000, 1027.000000)">
                <path d="M30.0401458,39.013231 L30.0796706,38.9716374 L30.1,38.95 C30.0669816,38.9840643 30.0338283,39.0176901 30,39.05 L30.0401458,39.013231" id="Fill-208"></path>
                <path d="M44.0233,25.95 C44.0196,25.9606112 44.0193,25.966129 44.0162,25.9766553 C44.0437,26.0033107 44.0672,26.027674 44.0838,26.05 L44.0233,25.95" id="Fill-209"></path>
                <path d="M41.0206,11.9664 C41.0399,11.9847 41.0589,12.0043 41.0794,12.0336 C41.0585,11.9937 41.0393,11.9763 41.0206,11.9664" id="Fill-210"></path>
                <path d="M7.05254617,21.02245 C7.05144617,21.00735 7.04874617,20.99265 7.04804617,20.97755 C7.04634617,21.00065 7.04844617,21.01455 7.05254617,21.02245" id="Fill-211"></path>
                <path d="M33.07245,37.97325 L33.02755,38.02675 C33.04875,38.00635 33.06235,37.98905 33.07245,37.97325" id="Fill-212"></path>
                <path d="M27.7771292,40.7886175 C27.8361326,40.7654633 27.8943132,40.7414737 27.951436,40.7187969 C28.122922,40.6483794 28.2848875,40.5789168 28.4365098,40.5108864 C28.5120859,40.4762745 28.5851937,40.4427367 28.6560683,40.410273 C28.7264727,40.3770933 28.7924108,40.3398556 28.8565858,40.3058404 C28.922994,40.2697962 28.9859936,40.2343488 29.0462899,40.1997369 L29.3904373,40.0941107 C29.4434463,40.0774015 29.4969255,40.0622439 29.5495819,40.0442218 L29.7066109,39.9876491 L30.0205512,39.8742651 C31.1444367,39.4740793 32.2263616,38.9596741 33.2618595,38.3611259 C33.3268572,38.3772384 33.3572992,38.4129245 33.3155737,38.4794033 L33.5083338,38.246071 C33.9281747,38.0481861 34.2274231,37.8677265 34.4848283,37.7292787 C34.7438791,37.593576 34.9426336,37.465273 35.1519664,37.3503375 C35.2837249,37.2774137 35.4190096,37.2048479 35.5656954,37.1234501 C35.0993099,37.4951109 34.6241093,37.8394402 34.1355094,38.1587057 C33.1780558,38.7825563 32.166653,39.3160578 31.0533458,39.7654165 L31.0559316,39.7644617 L31.3994912,39.6269687 C31.5143245,39.5820925 31.624809,39.5263553 31.7376442,39.476347 C31.961669,39.3728692 32.1873394,39.2726139 32.4097188,39.1654362 L33.0676889,38.8236133 L33.2320052,38.7377995 C33.2859545,38.7077229 33.339081,38.675856 33.3926778,38.6450633 L33.7132002,38.45792 L33.9808312,38.3012114 C33.4502707,38.6264445 32.9017272,38.9324619 32.3330849,39.2115059 C31.1734683,39.7808129 29.9390983,40.246642 28.6571261,40.5813038 C28.3662229,40.6575695 28.0724988,40.7260773 27.7771292,40.7886175 Z M31.3160402,38.6984135 C31.3162753,38.6982941 31.3165104,38.6982941 31.3167454,38.6981748 C31.6061207,38.608303 31.8524775,38.4926514 32.1438508,38.3731804 C32.1520784,38.3694805 32.1614813,38.3660193 32.1698264,38.3623194 L32.0651013,38.4176986 C31.8855053,38.5073316 31.7022656,38.5893261 31.5210241,38.6751399 C31.2987623,38.784824 31.0705061,38.8800666 30.8416623,38.9733995 C31.0023349,38.8848406 31.1600691,38.7922238 31.3160402,38.6984135 Z M6.58433074,30.041844 C6.52638517,29.9414693 6.4754918,29.8372754 6.42436336,29.7333202 C6.37288231,29.629365 6.32140126,29.5258872 6.27015528,29.4224093 C6.21867422,29.3190509 6.16731071,29.2158118 6.11594719,29.112692 C6.06411353,29.0100497 6.02121265,28.9031107 5.97337523,28.798678 C5.87958098,28.5889773 5.78613935,28.3801121 5.69305032,28.1720823 C5.77990991,28.362448 5.86688703,28.5526944 5.95362908,28.7428215 L6.08385968,29.0273556 C6.12934637,29.1212853 6.17871176,29.2129473 6.22584396,29.3058029 C6.32116618,29.4905591 6.41648841,29.675196 6.51181063,29.8597135 C6.61089403,30.041844 6.71749977,30.2195585 6.81999173,30.3991826 C6.83139278,30.4198304 6.84385167,30.4397621 6.8554878,30.4602906 C6.81623056,30.4170853 6.77826622,30.3728059 6.74182986,30.327333 C6.68929097,30.2322098 6.63663455,30.1368478 6.58433074,30.041844 Z M6.25781393,27.4347283 C6.26051727,27.4422474 6.26322061,27.4498859 6.26592396,27.4574051 C6.30941252,27.5743696 6.36148125,27.6974211 6.39991574,27.8198758 C6.41977943,27.8809838 6.43388383,27.9426886 6.44587257,28.0024837 C6.45786131,28.0623982 6.46350307,28.1214772 6.4600945,28.1792434 C6.45938928,28.1916559 6.45938928,28.2038298 6.45868406,28.216123 C6.40837838,28.0990391 6.35689732,27.9819552 6.30847222,27.8643939 C6.25440536,27.7339427 6.20280677,27.6020592 6.15144326,27.470295 C6.18799716,27.4606276 6.2237283,27.4492892 6.25781393,27.4347283 Z M28.0837823,39.240747 C28.3993682,39.2751203 28.5753206,39.2553079 28.6847472,39.2134155 C28.7444558,39.2853845 28.8247334,39.3633211 28.9323969,39.4830307 C28.9704788,39.2044641 28.9991578,39.0479942 29.0060924,38.9732801 C29.0440568,38.9614643 29.0918942,38.9554967 29.1566569,38.9585999 C29.2431638,38.9710124 29.3302585,38.9829476 29.4172356,38.9941667 C29.4173532,39.0251981 29.4164129,39.0567069 29.4181759,39.0872609 C29.405717,39.098838 29.3949037,39.1086248 29.3827974,39.1199632 C29.3206205,39.1318984 29.2584436,39.1438335 29.1962667,39.1552913 C29.250216,39.1545752 29.298171,39.1538591 29.3468312,39.1531429 C29.1820448,39.3056743 29.0469952,39.4249065 28.9339249,39.5063042 C28.8695148,39.5539255 28.8101588,39.5863892 28.7549166,39.6072757 C28.6996744,39.6285203 28.6488985,39.6383071 28.5998857,39.6366362 C28.4383904,39.631146 28.2951132,39.4996206 28.0837823,39.240747 Z M15.0502606,37.7274884 C14.99208,37.685596 14.9350747,37.6437036 14.8837112,37.593576 C14.8048441,37.5192199 14.7365553,37.434719 14.6748486,37.3442505 C14.9428321,37.4911723 15.2134015,37.6327233 15.4876145,37.766039 C15.5763547,37.844453 15.6661527,37.916422 15.7602995,37.9721591 C15.8801869,38.0459184 16.0012497,38.1083393 16.1225475,38.1658668 C16.1831964,38.1945111 16.2438453,38.2222007 16.3044942,38.2490548 C16.3660834,38.2736412 16.4275551,38.2979889 16.4891443,38.322456 C16.6019795,38.3675709 16.7219844,38.4056441 16.8381106,38.4486106 C16.8964088,38.4699746 16.9532965,38.4934868 17.0086563,38.5181926 C17.0644862,38.5415855 17.1182005,38.5679622 17.1683886,38.5988743 C17.1700341,38.5998291 17.1714446,38.6010226 17.1730901,38.6019774 C17.0891689,38.5746459 17.0050127,38.5475531 16.9219143,38.519028 C16.2807518,38.2883215 15.6479345,38.0372058 15.0502606,37.7274884 Z M9.33339547,32.635831 C9.34209318,32.6928811 9.35278902,32.7495731 9.36677588,32.8054296 C9.3402126,32.790272 9.31118104,32.7722499 9.28273717,32.7548246 C9.13675665,32.578781 8.9932444,32.4001117 8.85208289,32.2192941 C8.8585474,32.164273 8.8678328,32.1085358 8.88311256,32.0510083 C9.02921062,32.249132 9.18001014,32.443675 9.33339547,32.635831 Z M7.8746481,17.4895199 C7.89086815,17.548957 7.90708821,17.6082747 7.92319073,17.6674731 C7.93835296,17.7260747 7.96021478,17.7856311 7.97714006,17.8438747 C8.01275366,17.9608393 8.04401841,18.0756555 8.06399964,18.1886814 C8.07399026,18.245254 8.08127753,18.3012299 8.08492117,18.3570865 C8.09138568,18.4134204 8.09467671,18.4695156 8.0933838,18.5253722 C8.09267858,18.5547327 8.08703683,18.5840932 8.0837458,18.6133343 C8.07011155,18.6539138 8.05753513,18.6966417 8.04166768,18.7335213 C8.00440856,18.8177835 7.98383965,18.9074166 7.97361396,18.9987205 C7.95833419,19.0452676 7.94411226,19.0920534 7.92930264,19.139078 C7.90038862,19.2327689 7.87276751,19.327176 7.84667437,19.4222992 C7.83421549,19.4699205 7.81975848,19.5175418 7.81023801,19.5656405 L7.78355719,19.7101752 C7.76686699,19.80685 7.75205737,19.9040022 7.73959849,20.0013931 C7.73301643,20.055698 7.73137092,20.1104804 7.73701268,20.1662176 C7.74406488,20.2220741 7.75558347,20.2788855 7.76898265,20.3372484 C7.79589854,20.4540936 7.831042,20.5772644 7.85607731,20.7127284 C7.94857865,20.6859937 8.03496809,20.6585428 8.11665606,20.6304952 C8.10290427,20.6973321 8.085979,20.7579627 8.06787835,20.8089258 C8.02638791,20.938661 7.97643484,21.0070494 7.95986217,20.9750632 C8.00370334,21.569434 8.27650591,22.1172577 8.21961817,22.9305193 C8.15708867,23.0075011 8.15473794,23.18808 8.18177137,23.4150867 C8.2149167,23.6414966 8.28684913,23.9125441 8.35278719,24.1741627 C8.41496408,24.4016468 8.48007939,24.6205376 8.52121721,24.7990875 C8.46479962,24.7704432 8.40896971,24.7420375 8.34726297,24.7101706 C8.22655283,25.0030594 8.001,25.2825807 8.06317689,25.498249 C8.0898577,25.5995785 8.10913372,25.7003112 8.12253289,25.8009246 C8.135697,25.8983155 8.14098615,25.9959451 8.14968386,26.0928586 C7.95821666,25.5543443 7.79002171,25.0081915 7.65027063,24.4545195 C7.60043509,24.2398061 7.55059955,24.0250926 7.50088155,23.8107372 C7.46162431,23.593756 7.4224846,23.3770136 7.3833449,23.1601518 C7.3384459,22.9443641 7.31940496,22.7241605 7.28896297,22.5059858 L7.24617962,22.178127 C7.23783452,22.1237027 7.23407335,22.0685623 7.2300771,22.0135412 L7.21726561,21.8485973 C7.19211277,21.6711215 7.16531441,21.4968683 7.13698808,21.3260762 C7.12053295,21.2408591 7.11489119,21.1556421 7.10337259,21.0718573 C7.09244169,20.9878338 7.08174585,20.9048845 7.07105002,20.8227706 C7.04954081,20.6585428 7.02238984,20.4981343 7.00029295,20.3414257 C6.98266245,20.1847171 6.96303383,20.0318277 6.94117202,19.8831157 C6.96526703,19.7623319 6.98712885,19.6318806 7.00746269,19.492836 C7.03520134,19.3542688 7.06152955,19.2071084 7.08632978,19.0523094 C7.09808344,18.9748502 7.11007218,18.8956008 7.12241353,18.8143223 C7.1354601,18.7332826 7.14239476,18.6497365 7.16026033,18.5658324 C7.19164262,18.3975467 7.22184954,18.2223385 7.2512337,18.0412822 C7.26639593,17.9508137 7.27908989,17.8583163 7.29566255,17.765222 C7.3124703,17.6825114 7.32963065,17.5983685 7.34690853,17.5135096 C7.51004941,17.4867748 7.68588424,17.4778234 7.8746481,17.4895199 Z M26.5264217,39.1326145 C26.3927825,39.1624524 26.2591433,39.1920516 26.1242113,39.2184283 C26.118687,39.2143703 26.1130453,39.2106704 26.1075211,39.2066125 L26.094357,39.1963482 C26.2343431,39.1753423 26.3738591,39.151472 26.5132576,39.1274824 C26.5176064,39.1292726 26.5220728,39.1310629 26.5264217,39.1326145 Z M24.4426144,40.2663351 C24.3656279,40.3028566 24.2892291,40.3310236 24.2122426,40.3454651 C24.1303195,40.3607421 24.0478088,40.361697 23.9636526,40.3441523 C23.9321527,40.3374686 23.9003003,40.3274431 23.8683303,40.3153885 C23.8565767,40.3044082 23.8441178,40.2949794 23.832129,40.2843571 C23.9722327,40.2810153 24.1116312,40.276838 24.2498543,40.2730187 C24.3144995,40.2708704 24.3783219,40.2686027 24.4426144,40.2663351 Z M26.6035257,39.5403194 L26.5310056,39.47396 C26.5157259,39.4738406 26.5011513,39.4736019 26.4866943,39.4734826 L26.5940053,39.5464064 C26.5331213,39.5892536 26.469534,39.6250591 26.4026556,39.6529873 C26.2837085,39.705144 26.1568865,39.7393979 26.0226596,39.7607618 C25.9555462,39.7713841 25.8865522,39.7789032 25.8157951,39.783916 C25.7451556,39.7891675 25.6725179,39.7914352 25.5968243,39.7880933 C25.4477878,39.783916 25.2889958,39.8191247 25.135493,39.8789199 C25.0587415,39.9087577 24.983283,39.9446826 24.9111155,39.9847847 C24.838948,40.0245288 24.7705417,40.0704791 24.705779,40.1126102 C24.7028406,40.1146392 24.6999021,40.1163101 24.6968462,40.1183391 C24.3490552,40.1392256 24.0006766,40.1506834 23.6520629,40.1527124 C23.6240892,40.1348096 23.5975259,40.1138037 23.5688469,40.0978106 C23.5007932,40.0600955 23.4307414,40.0276319 23.3586914,39.9950489 C23.3341263,39.9841879 23.3083857,39.9765494 23.2833504,39.9667626 C23.830366,39.9116222 24.375501,39.8250923 24.9151117,39.7093213 C24.7276408,39.6929701 24.4983268,39.685809 24.240804,39.6901057 C24.1123364,39.694641 23.9752887,39.689867 23.8328343,39.6908218 C23.7540847,39.6909411 23.673102,39.6917766 23.5910614,39.6930895 C23.5994065,39.681393 23.6077516,39.6698159 23.6160967,39.6582388 L24.2579643,39.6453488 C24.3693891,39.6422457 24.4810489,39.6428424 24.5923561,39.6363975 L24.9261602,39.6120497 L25.2599643,39.5874633 C25.3711539,39.5776765 25.4829313,39.5749314 25.5934158,39.5581028 L26.075081,39.4968755 C26.0796649,39.5127492 26.0841313,39.528623 26.0888327,39.5444967 L26.3105069,39.4975916 L26.4212264,39.4733632 L26.4242823,39.4726471 C26.4449688,39.4727665 26.4662429,39.47396 26.4866943,39.4734826 C26.4806999,39.4693053 26.4747056,39.465128 26.4687112,39.4609506 L26.5307705,39.4448382 C26.5714382,39.4338578 26.6122234,39.4229969 26.6528911,39.4121359 L26.7720733,39.3906526 C26.7184766,39.4473446 26.6625291,39.4978303 26.6035257,39.5403194 Z M18.7648889,38.9718479 C18.797094,38.9803219 18.8291815,38.98987 18.8613865,38.9982246 C18.8273009,39.0112339 18.7939205,39.0225723 18.7592472,39.0370139 C18.7620681,39.013979 18.7632434,38.9932118 18.7648889,38.9718479 Z M14.5784685,37.181813 C14.5698883,37.1633136 14.5610731,37.1449334 14.5531981,37.1258372 C14.7687604,37.2456661 14.9862032,37.3615565 15.2057616,37.4721954 C15.2356159,37.5090751 15.2658229,37.5444031 15.2963824,37.5779409 C15.0541393,37.4515476 14.8150698,37.3190674 14.5784685,37.181813 Z M10.6552126,29.8136438 C10.6880054,29.8813161 10.7210332,29.9497046 10.7535908,30.0170189 C10.7097497,30.041844 10.6672014,30.0660724 10.6237128,30.0906588 C10.6092558,30.0071127 10.5949163,29.9234472 10.5805769,29.840856 C10.6053771,29.8316659 10.6300598,29.8221178 10.6552126,29.8136438 Z M19.1224354,38.9083529 C19.0382792,38.9338941 18.9524774,38.9634933 18.8652652,38.9967924 C18.8317673,38.9873636 18.7987395,38.9765026 18.7653591,38.9668351 C18.7692378,38.9130076 18.7695904,38.8638347 18.7661819,38.8193166 C18.8847763,38.8502287 19.0033708,38.8798278 19.1224354,38.9083529 Z M24.2247015,39.4319482 C24.2740668,39.4178647 24.3231972,39.3984104 24.3716223,39.3727498 C24.4274522,39.3696467 24.4835172,39.3682145 24.5393471,39.3646339 C24.7141241,39.3610534 24.9018301,39.3683338 25.0991741,39.3837302 C24.6852101,39.4368416 24.2660744,39.4746761 23.843295,39.4961594 C23.9643578,39.4736019 24.0943533,39.4665602 24.2247015,39.4319482 Z M19.9590613,39.4683504 C20.0651969,39.4412576 20.1761515,39.4537896 20.3055594,39.5326809 C20.3308297,39.5478386 20.3596262,39.5590576 20.3904208,39.5668155 C20.3874824,39.5701573 20.3847791,39.574454 20.3818407,39.5779152 C20.3394099,39.574812 20.2963915,39.5715896 20.254666,39.5686058 C20.1803828,39.5606092 20.107275,39.552732 20.0358128,39.5452129 C19.9636453,39.5376937 19.8928882,39.5307713 19.8237766,39.5244457 C19.8684406,39.5002173 19.9133396,39.4800469 19.9590613,39.4683504 Z M21.4484858,39.4215646 C21.5735448,39.4095101 21.6978985,39.4037812 21.8218997,39.4034232 C21.8839591,39.4033038 21.9459009,39.404378 22.0078427,39.4066457 C22.069667,39.4096295 22.1317263,39.4081973 22.1936681,39.4109423 C22.2779419,39.4135681 22.3624508,39.4206098 22.4468421,39.4268161 C22.539461,39.458683 22.6298466,39.4885209 22.7141204,39.5131073 C22.2612517,39.5051107 21.8057972,39.478376 21.3496374,39.4334998 C21.3825477,39.4297999 21.4155755,39.4253839 21.4484858,39.4215646 Z M23.4745825,39.6951184 C23.4462562,39.6957152 23.4185176,39.6960732 23.3898386,39.6967894 C23.2371585,39.6979829 23.0797769,39.6930895 22.9199271,39.6934475 C22.8400022,39.6934475 22.7592545,39.6934475 22.6779191,39.6934475 C22.6372514,39.6933282 22.5965838,39.6944023 22.555681,39.6934475 C22.5147783,39.6918959 22.473758,39.6904637 22.4327377,39.6890315 C22.2683039,39.6833026 22.1024597,39.6787673 21.936733,39.674948 L21.8123792,39.6724416 C21.7708888,39.6710094 21.7295159,39.6675482 21.688143,39.6652805 C21.6053972,39.6605065 21.5227689,39.6557324 21.4406108,39.6509584 C21.4243907,39.6500035 21.4085233,39.6492874 21.3924208,39.648452 C21.391598,39.6476165 21.3910103,39.6466617 21.3901876,39.6459456 C21.3218988,39.5750508 21.2531398,39.5214619 21.184616,39.4775405 L21.5876492,39.5335164 C21.697781,39.5515385 21.8092057,39.5558351 21.9201603,39.5669348 L22.2532592,39.5954599 L22.5864756,39.6239849 C22.6976653,39.6319815 22.8092076,39.6324589 22.9205148,39.6371136 L23.5101962,39.6562098 C23.4945638,39.6639677 23.4791665,39.672919 23.4635341,39.6799608 C23.4672953,39.6849735 23.4710565,39.6901057 23.4745825,39.6951184 Z M9.27016075,32.9830248 L9.30271841,33.0197851 C9.30342363,33.0226495 9.30448146,33.0253946 9.30530421,33.028259 C9.29378562,33.0131014 9.28156181,32.9981824 9.27016075,32.9830248 Z M9.79343392,34.0189964 C9.85420037,34.0799851 9.91543697,34.1412124 9.97702617,34.2030365 L9.99418652,34.2201038 C10.0164009,34.2458837 10.0387329,34.2716637 10.0609473,34.2973243 C10.1424002,34.3917314 10.2331385,34.4830353 10.3183526,34.5772037 C10.3611359,34.6241089 10.4019212,34.6723269 10.4405907,34.7210223 C10.4804356,34.7686436 10.5169895,34.8178165 10.5487244,34.8694957 C10.5567169,34.882505 10.5634165,34.8962305 10.5708213,34.9098365 C10.4898386,34.8272452 10.4089734,34.7447733 10.3297537,34.6612272 C10.0716432,34.3813478 9.81987967,34.0962169 9.57775417,33.8044023 C9.64945153,33.8757745 9.72032613,33.9461919 9.79343392,34.0189964 Z M19.9438991,40.0435057 C19.882545,40.0314512 19.8211908,40.0192773 19.7599542,40.0073421 C19.7210496,39.9529178 19.677561,39.9109061 19.6287833,39.8834552 C19.6045708,39.8703265 19.5785952,39.8608978 19.5517968,39.853498 C19.5885858,39.8506335 19.6257274,39.8495594 19.662869,39.8486046 L19.7060049,39.8587494 L19.79451,39.8749813 L19.9715202,39.9079223 C20.0405142,39.9206929 20.1100959,39.9335829 20.1792075,39.9464728 C20.1750937,39.9575725 20.1705098,39.9678368 20.1665135,39.9791752 C20.15523,40.0125936 20.14712,40.0469669 20.1367767,40.080624 C20.0724842,40.0682114 20.0080741,40.0559182 19.9438991,40.0435057 Z M6.06517136,26.7179027 C6.06164526,26.7140835 6.05694379,26.7110997 6.05365276,26.7071611 C5.97784163,26.6206312 5.90426368,26.525508 5.84420245,26.4235818 C5.81528844,26.3744089 5.78990052,26.3236845 5.76850885,26.2718859 C5.7609865,26.2346482 5.7535817,26.1975299 5.74617689,26.1606503 C5.73054451,26.0841459 5.71420692,26.0096705 5.69786932,25.9351951 C5.68693841,25.8549909 5.6756549,25.7746673 5.66542921,25.6948211 L5.6403939,25.4931169 L5.62828763,25.3926229 C5.6249966,25.3589657 5.62323355,25.3248312 5.62076528,25.2910547 L5.60419261,25.0393422 C5.73124973,25.5558958 5.87793547,26.067198 6.04577781,26.5714584 C6.05165464,26.6202732 6.05717886,26.6689686 6.06517136,26.7179027 Z M19.4934986,43.3612406 C19.3852474,43.3615987 19.2771137,43.3515732 19.1694501,43.3429799 C19.0619041,43.3336704 18.9547106,43.3224514 18.8481049,43.3092034 C18.6347759,43.2817525 18.4233274,43.2504824 18.2148174,43.2034579 C18.0816484,43.1709942 17.9500073,43.1341146 17.8190715,43.0949673 C18.2270412,43.1672943 18.6374792,43.2294765 19.0506205,43.27853 C19.3176638,43.3103969 19.586,43.3361768 19.8549238,43.3584956 C19.7342137,43.3614794 19.6135036,43.3627922 19.4934986,43.3612406 Z M4.26556769,12.3103778 L4.23065931,12.3733954 L4.19833673,12.4379646 L4.13392665,12.567103 C4.04835996,12.7400435 3.96267575,12.9128645 3.87734414,13.0852082 C3.80729229,13.0472544 3.73759306,13.00942 3.66707107,12.9713468 C3.85336666,12.6273756 4.02920149,12.2797045 4.23371526,11.9500554 C4.29224851,11.9870544 4.34725567,12.0219051 4.40531877,12.0586654 C4.35877426,12.1424502 4.31222975,12.2263543 4.26556769,12.3103778 Z M43.864018,22.0488693 C43.8718929,21.9350079 43.8814134,21.8269947 43.8989264,21.7360488 L43.9680379,21.750729 C44.0221048,21.4931684 44.0554852,21.244201 44.0492558,20.9989335 C44.0439666,20.7534273 44.0190488,20.5115017 43.9861386,20.2655181 C43.90257,19.7741477 43.7865613,19.2692905 43.6866552,18.6753971 L43.8475629,18.8120547 C43.9274878,18.3809568 43.6267115,18.7311343 43.6124896,18.238451 L43.7791565,18.1835493 C43.4740314,17.8003114 43.7343751,17.6223582 43.7480093,17.3078668 L43.5573649,17.4945327 L43.4773224,16.9363254 C43.4459401,16.6249371 43.4883709,16.5137015 43.5601857,16.4869667 C43.6324708,16.4601126 43.7369609,16.5178788 43.8045444,16.5475973 C43.7103976,16.4244265 43.6121369,16.303762 43.5164621,16.1838137 L43.6863026,16.0454852 C43.3737726,15.8140625 43.6456349,15.7274133 43.3475619,15.2467845 C43.4048023,15.1781574 43.4907216,15.2960767 43.4612199,15.1070238 L43.1821879,14.726173 L42.885878,14.3597636 C42.9889576,14.5121756 43.0995596,14.663036 43.197115,14.8203414 L42.9010402,14.863666 C42.6974667,14.643343 42.6350548,14.4675381 42.5973255,14.3002072 C42.5584209,14.1338311 42.5472549,13.9750935 42.4252518,13.812298 C42.4886041,13.8836702 42.5553649,13.9537296 42.6141332,14.0280856 C42.2887918,13.4611657 42.384114,13.3789324 42.2892619,13.011807 C42.2896146,13.140826 42.2871463,13.3359659 42.1444568,13.1137332 C42.0427876,12.9493861 42.1892383,12.9728984 42.1347012,12.7943484 C42.0377335,12.8207251 41.9133797,12.7430273 41.7999569,12.6075632 C41.6871217,12.4716218 41.5850999,12.2774368 41.5168111,12.0739424 C41.5434919,12.0640362 41.5712305,12.0579492 41.6002621,12.0725101 C41.5191618,11.9956477 41.4482872,11.9742838 41.3952782,11.7878566 L41.6370511,11.7687604 L41.2792695,11.5664595 C41.2105106,11.3247725 40.8812904,11.1248587 41.0231571,11.0667344 L41.1336416,11.1569642 C40.8248728,10.6322947 40.4875426,10.1242151 40.1284682,9.63188985 L40.2481205,9.49976766 C40.0982612,9.50573524 39.9608609,9.29651194 39.8350967,9.11473949 C39.7102727,8.93225094 39.5846261,8.78998387 39.4950631,8.91327404 C39.4405261,8.73018873 39.1994585,8.49005337 39.0078737,8.30052307 C38.814761,8.1121863 38.6837076,7.9569099 38.8730592,7.90618548 C38.769862,7.79566593 38.6686629,7.69541061 38.5691094,7.60267444 C38.4656772,7.51411557 38.3634203,7.43319521 38.2625738,7.35609409 C38.0946139,7.23077494 37.932766,7.11237818 37.7638658,6.999949 C37.7256664,6.95996623 37.6869968,6.92046086 37.64915,6.88012003 C37.5680497,6.79538041 37.4869495,6.71052144 37.4057316,6.62554312 C37.3243963,6.54068416 37.2430609,6.45582519 37.161608,6.37072752 C37.0765115,6.28956845 36.9912974,6.20817068 36.9060833,6.12677291 C36.8209868,6.04537514 36.7356552,5.96385801 36.650206,5.88234089 C36.5651095,5.80046571 36.4803656,5.71811313 36.3898624,5.64196682 C36.2117943,5.48669043 36.0333737,5.33105598 35.8544829,5.17506348 C35.8105242,5.13531941 35.7645674,5.09772366 35.7176703,5.06144078 L35.5783893,4.95068252 L35.2994748,4.72904666 C35.2056806,4.65588414 35.1148248,4.57890238 35.0185623,4.50884301 L34.7289519,4.29973905 L34.438989,4.09027705 C34.3904464,4.05566509 34.342609,4.01974027 34.2933611,3.98608313 L34.1435019,3.88821484 C33.9436896,3.75752487 33.7435247,3.62671554 33.5428896,3.49566752 C33.130336,3.25350318 32.7217786,3.0005972 32.2918295,2.78528697 L31.9725999,2.61735931 L31.892675,2.57558626 L31.8109871,2.53739375 L31.647376,2.46124745 C31.4287579,2.36075343 31.2119027,2.25488858 30.9910514,2.15845251 C30.7679668,2.06738727 30.5445296,1.97608331 30.3208574,1.88477936 C30.2647924,1.86246062 30.2095502,1.83787419 30.1526624,1.81746508 L29.9818817,1.75731188 L29.6399676,1.6367668 C28.7260026,1.32275281 27.7880601,1.06340185 26.8313118,0.897741868 C26.431217,0.82648898 26.0281838,0.767768006 25.6239753,0.718953214 C25.600703,0.701050478 25.5768431,0.68601218 25.5541585,0.676822109 C25.3605756,0.598408127 25.1671103,0.509610558 24.9717644,0.428093435 C24.7754782,0.35027621 24.5754308,0.287258581 24.3749133,0.245366179 C24.3725626,0.244888773 24.3704469,0.24465007 24.3682137,0.244172663 C24.3552847,0.229253717 24.3440012,0.212186442 24.3296617,0.199177121 C24.2056605,0.0914026521 24.0264171,0.0554778292 23.7496183,0.138904578 C23.6461861,0.170174689 23.5388751,0.18998705 23.4294485,0.200967395 C23.3197868,0.213260606 23.2070691,0.222689381 23.0941164,0.222808732 C22.8679759,0.224837709 22.638897,0.201206098 22.4212191,0.176022916 C22.2047166,0.158955641 21.9888017,0.137114304 21.7727694,0.113005287 C21.6646357,0.101666887 21.5566195,0.0866285893 21.4484858,0.0770804636 L21.123732,0.0518972821 C20.9071119,0.0360235231 20.6901393,0.015733756 20.4726965,0.00582757556 C20.2553712,0.000934161138 20.0375758,-0.00145287029 19.8196629,0.000934161138 C18.7748796,0.025759288 17.7319769,0.171129502 16.7042364,0.391571854 C16.9340205,0.411622918 17.2151682,0.420454934 17.5308717,0.415084113 C17.6883708,0.409593941 17.8564482,0.415322817 18.0309901,0.414129301 C18.1276052,0.414009949 18.2268062,0.412935785 18.3274175,0.411622918 C18.2909812,0.462108632 18.2540747,0.512355644 18.2183435,0.562722007 C18.3063785,0.516532949 18.3946485,0.468314914 18.4837413,0.427496677 C18.4791574,0.421290395 18.4745734,0.415084113 18.470107,0.408877832 C18.5048979,0.408161722 18.5389835,0.407803668 18.574127,0.406968207 C18.7611278,0.405416636 18.954123,0.411503566 19.1501741,0.41102616 C19.2480821,0.41102616 19.347048,0.41102616 19.4468366,0.41102616 C19.4966721,0.411264863 19.5465077,0.409713293 19.5966958,0.411145512 C19.6467664,0.412816434 19.6970721,0.414726059 19.7473778,0.416516332 C19.9489532,0.423438723 20.152174,0.429048247 20.3555124,0.433583607 L20.5079575,0.436806099 C20.5587333,0.438477021 20.6093916,0.442654326 20.6601674,0.445518764 C20.7616016,0.451486343 20.8628006,0.45733457 20.9636471,0.463063445 C21.0644935,0.468314914 21.1648698,0.473566383 21.2646584,0.478817852 C21.3644471,0.484427376 21.4635305,0.486098298 21.5617911,0.49683994 C21.7583124,0.514026566 21.9514251,0.529780973 22.1394837,0.543745107 C22.2335131,0.550667498 22.3262495,0.557351186 22.4174579,0.564154226 C22.5085488,0.573821703 22.5981117,0.58348918 22.6857941,0.592798603 C22.7011914,0.594469525 22.7156484,0.595782392 22.7309282,0.597214611 C22.6460667,0.598527478 22.5610877,0.600317752 22.4765788,0.607836901 L22.3689153,0.615117347 C22.3642138,0.612372261 22.3597474,0.611178745 22.3550459,0.608194956 C22.2304571,0.532884114 22.0364041,0.537180771 21.8883079,0.582534368 C21.7289282,0.627291207 21.5718992,0.66166446 21.4165158,0.686966993 C21.3455237,0.698663447 21.2750017,0.707495463 21.2047147,0.715969425 L21.1458289,0.722891816 C21.0817714,0.730172262 21.0178315,0.736975301 20.9540091,0.744375098 C20.8006237,0.759174693 20.6481787,0.766097084 20.4962038,0.766455139 C20.4201576,0.766693842 20.3442289,0.765380975 20.2683003,0.762516537 C20.1924891,0.75893599 20.1164429,0.760726264 20.0403967,0.75738442 C19.8884218,0.752491005 19.7363294,0.742465473 19.5838843,0.728620691 C19.507603,0.7216983 19.4313218,0.713821096 19.3549229,0.705227783 C19.2784066,0.696515118 19.2018902,0.692576517 19.1251388,0.685057368 C18.9717535,0.671331937 18.8177804,0.655100123 18.6631022,0.637794145 L18.4307323,0.611178745 C18.3530405,0.602824135 18.2755839,0.598766182 18.1977746,0.592321197 C18.2054145,0.583131126 18.2110562,0.572866891 18.2183435,0.562722007 C18.2013007,0.571912078 18.1841404,0.581102149 18.1668625,0.59029222 L18.1665099,0.590411572 L18.1857859,0.608911065 C17.9942011,0.680283305 17.7724095,0.672644804 17.5506178,0.731485129 C17.3301191,0.794741462 17.1110307,0.933786042 16.9415429,1.275967 C17.0710683,1.2720284 17.1908381,1.27059618 17.3030856,1.26999942 C17.3592681,1.26976072 17.4135701,1.26964136 17.466344,1.26940266 C17.5190004,1.26868655 17.5702464,1.26916396 17.6205521,1.27178969 C17.8210696,1.27859273 18.0010183,1.28074106 18.1797915,1.26534471 C18.2690018,1.25794491 18.3583297,1.24732262 18.4478926,1.23574552 C18.4769242,1.23323913 18.5059557,1.22953924 18.5349873,1.2266748 C18.4125141,1.25997389 18.2893357,1.29064724 18.1675677,1.32704947 C18.0509713,1.36082596 17.9329645,1.39054451 17.817426,1.4277822 L17.4719858,1.54379192 L17.1267806,1.659921 L16.9544719,1.71840327 L16.7849841,1.78500145 C16.7555999,1.7964592 16.7262157,1.8080363 16.696714,1.81973276 C16.5557876,1.85148027 16.4147436,1.88310844 16.273347,1.91282698 L16.1402955,1.94051655 L16.0085369,1.97345758 L15.7440795,2.03683326 L15.4616389,2.10283468 L15.3202423,2.13589507 C15.2731101,2.14699476 15.2269182,2.16155566 15.1801386,2.17420692 L14.619959,2.33246711 L14.4796202,2.37221118 C14.4328406,2.38593661 14.3871188,2.40240713 14.3408094,2.41732607 L14.063658,2.50970419 L13.7859189,2.60232101 L13.646873,2.64898747 C13.6009162,2.66545799 13.5556646,2.68371878 13.5099428,2.70102476 L12.9616343,2.9133512 L12.824234,2.96670136 L12.6894195,3.02601909 L12.4194378,3.14560936 L12.1489859,3.26579639 C12.1040869,3.28608616 12.0586003,3.30565982 12.0139363,3.32678505 L11.8814725,3.39290582 L11.3505595,3.66049204 C10.6521567,4.03680754 9.96115872,4.44582538 9.31047582,4.92335101 L9.06400147,5.09975264 C8.98125567,5.1579962 8.90415162,5.22340086 8.82387409,5.28522498 L8.34714543,5.66428557 C8.19164444,5.79533359 8.04002216,5.93175244 7.88663684,6.06673907 L7.6575579,6.27059155 C7.58303967,6.34077027 7.51040202,6.41297798 7.43694161,6.48458892 C7.28214584,6.63700087 7.12546948,6.78821932 6.97302445,6.94445052 L6.52803069,7.42639217 C6.37699609,7.58524911 6.23983082,7.75711537 6.09749394,7.92492368 C5.95750778,8.09464161 5.81129219,8.25994354 5.68012129,8.43777738 L5.27744072,8.96602744 C5.1468575,9.14517414 5.02215112,9.32933362 4.8941537,9.51158347 C4.83091899,9.60324547 4.76627383,9.69419137 4.70409694,9.78680819 L4.52391325,10.0694327 L4.34372957,10.3528927 C4.2844911,10.4480159 4.2210213,10.5407521 4.16636676,10.6388591 L3.74182438,11.3691713 L3.66225207,11.5188382 L3.5029899,11.8187687 C3.28319637,12.2159707 3.09431497,12.6300013 2.89179932,13.0410481 C2.79659463,13.2490779 2.70632648,13.4598528 2.61229716,13.6700309 L2.47242855,13.9864319 L2.34360838,14.3077264 C2.25839431,14.5226785 2.16812616,14.7371533 2.08502775,14.9543732 C2.00498529,15.1737414 1.92494283,15.3929902 1.84490037,15.6121197 C1.75533744,15.8422295 1.74769756,16.098358 1.70491422,16.3455351 C1.80258718,16.0996709 1.89379562,15.8546421 2.0018118,15.6149841 C2.02567174,15.5603211 2.04870892,15.5064935 2.07221625,15.4519499 L1.89297286,16.0561075 C1.82609451,16.2702242 1.7773168,16.489115 1.72207457,16.7068123 C1.66977076,16.925345 1.6099446,17.1428036 1.56915939,17.3643201 L1.43563775,18.0282729 C1.39579283,18.2507442 1.36335271,18.4747671 1.32715142,18.6985513 C1.30987354,18.8107418 1.29118521,18.9226936 1.27520022,19.0351227 L1.2353553,19.3734844 L1.19574545,19.7126816 C1.18363917,19.8259463 1.16671389,19.9390915 1.15989677,20.0527142 L1.1067702,20.7362407 L1.09337102,20.9075102 L1.07256704,21.4228703 C1.04635636,21.8823738 1.054819,22.3421161 1.05,22.8057969 C1.05387871,23.0368616 1.06339918,23.2681649 1.06951108,23.5005424 L1.08008938,23.8497651 L1.10253888,24.1981524 C1.11828879,24.4305299 1.12945478,24.6650557 1.14826064,24.8987461 C1.1705926,25.1326752 1.19292457,25.3666042 1.21513899,25.6002946 C1.23359225,25.8483072 1.33631928,26.080446 1.40378532,26.3214168 C1.38568467,26.0552628 1.36241242,25.7930474 1.35630051,25.5274902 C1.34689758,25.2630071 1.3334984,25.0015078 1.32585852,24.7404859 C1.32362532,24.4799414 1.32139213,24.2191582 1.31915893,23.9584944 C1.31892386,23.8936865 1.31669066,23.829356 1.3181011,23.7645481 L1.3229201,23.5701244 L1.34113828,22.7985165 L1.36335271,22.4144431 L1.38486192,22.0327568 L1.39567529,21.8426298 L1.41330579,21.6525027 L1.48253488,20.897246 L1.57856232,20.1492697 C1.72007645,19.1568613 1.91542236,18.1849815 2.16941906,17.2387622 C2.42999782,16.2939752 2.75275346,15.3773551 3.13510019,14.4984502 C3.1200555,14.597512 3.09807614,14.693948 3.0799755,14.7915776 C3.06175732,14.8892072 3.04071826,14.985882 3.017446,15.0818407 C2.97184178,15.2738773 2.91307345,15.4618561 2.85642079,15.6509089 C2.80305915,15.841036 2.7445259,16.0300889 2.68505235,16.2196192 C2.65637341,16.3145037 2.622993,16.4084334 2.59795769,16.5046307 L2.52167641,16.7928648 C2.47325131,16.9857369 2.42329823,17.1787284 2.38980028,17.374823 C2.35888814,17.5712757 2.33573342,17.7689219 2.32456744,17.9676423 C2.32010105,18.0670622 2.31387161,18.166124 2.31998351,18.2663793 C2.32480252,18.3665152 2.33338269,18.4668899 2.34595911,18.5671452 C2.37205225,18.7676559 2.4103692,18.9676891 2.47736509,19.1666482 C2.53871922,18.9559927 2.60465728,18.7471274 2.66295546,18.5386202 L2.7506378,18.2266352 C2.78284284,18.1233961 2.81422513,18.0202763 2.84466712,17.9172759 C2.87510911,17.8141562 2.90461081,17.7111558 2.93317222,17.6082747 C2.96161609,17.505155 2.98829691,17.4021545 3.0209721,17.3003477 C3.08291391,17.0960178 3.14097702,16.8914492 3.19504388,16.6861645 C3.22054933,16.5812544 3.25545772,16.4786121 3.28636986,16.3752536 L3.38133947,16.0658944 L3.47666169,15.7573705 L3.58385512,15.453024 L3.69093101,15.149513 L3.74441018,14.9981752 C3.76204068,14.9475701 3.78366743,14.8985166 3.80306097,14.8486277 L4.04260067,14.2541375 C4.38122376,13.4713105 4.76345295,12.7140248 5.20304002,11.9992283 C5.64944422,11.2889671 6.14262801,10.6173758 6.69011373,10.0058183 C6.82798422,9.85412248 6.97231923,9.70851356 7.11406843,9.56242724 C7.18365013,9.49260657 7.25076355,9.42099563 7.32257845,9.35403939 C7.13310937,9.6315318 6.95033987,9.91308215 6.77556287,10.1991679 L6.51839268,10.5529259 L6.36183386,10.7689523 C6.30917744,10.8408019 6.26275047,10.9167095 6.21279739,10.9904688 L5.91672257,11.4376791 C5.86571166,11.5114384 5.82163542,11.589375 5.77485583,11.6659987 L5.49582382,12.1278893 L5.42612459,12.2437796 L5.36089174,12.3625345 C5.1882304,12.6796516 5.0060486,12.994501 4.84901963,13.3235533 C4.29659737,14.4214684 3.7931879,15.5723756 3.40367143,16.7908358 C3.01427251,18.0078638 2.74088226,19.2902964 2.65002643,20.6034024 C2.6207598,20.9053619 2.61253224,21.2111406 2.60289423,21.5196644 L2.59854538,21.7514452 L2.59784016,21.8673355 L2.60265916,21.9832259 C2.6101815,22.1375475 2.62111241,22.2919884 2.63697986,22.4458326 C2.64497235,22.522695 2.65414021,22.5994381 2.66471851,22.6760618 C2.67564942,22.7524468 2.68564003,22.8290705 2.70362314,22.9043813 C2.73688601,23.0553611 2.77637833,23.2050279 2.82362806,23.3525465 C2.85407005,23.4459988 2.88803815,23.5382575 2.92470958,23.6296808 C2.94480835,24.2581862 2.98806184,24.8905108 3.06199239,25.5248644 C3.05153163,25.578692 3.04353914,25.6327583 3.04083579,25.6857504 C3.03942535,25.7500808 3.04483204,25.8125017 3.05740846,25.8706259 C3.10113209,26.0660045 3.14591356,26.2619797 3.19339837,26.4573583 C3.37452234,27.5444124 3.65567001,28.6266924 4.066108,29.6650511 C4.16918764,29.9482724 4.29248359,30.2249293 4.415662,30.50457 L4.51086669,30.7133159 L4.55976193,30.8172712 L4.61347618,30.9181232 C4.68623137,31.0520357 4.76192497,31.1846353 4.84184989,31.3141317 C4.88181236,31.3789397 4.92283265,31.4430314 4.96491077,31.5061684 C5.00745904,31.5690667 5.04906701,31.6326811 5.09725704,31.6911634 C5.19140389,31.8099182 5.29060483,31.9243763 5.39568259,32.033225 C5.50134804,32.1414768 5.61030452,32.2461482 5.73054451,32.3394811 C5.76698087,32.366932 5.80529782,32.3922345 5.84290955,32.4182531 C6.05259494,32.7370412 6.27015528,33.0505778 6.49723609,33.35755 C6.4966484,33.3797494 6.49735362,33.400994 6.49582565,33.4240288 C6.48689286,33.5488706 6.49700101,33.6879151 6.52697286,33.819918 C6.54190001,33.8860388 6.56176371,33.9501306 6.58656394,34.009687 C6.61289215,34.0676918 6.64427444,34.1206839 6.68035819,34.1665149 C6.85348967,34.3831381 7.02650362,34.6021482 7.20903804,34.8117295 C7.39509856,35.0173723 7.5840975,35.2213441 7.77521209,35.4240031 C7.97196844,35.6193816 8.17319119,35.8107022 8.37476655,36.0027389 C8.47408502,36.1007265 8.58139598,36.1877338 8.68553345,36.2796345 L9.00111936,36.5517561 C9.06799771,36.6072546 9.14181073,36.653563 9.23254902,36.6934264 C9.32269964,36.734364 9.42495652,36.7763758 9.54249317,36.8341419 C9.51111089,36.7019004 9.45034444,36.5950807 9.37782433,36.5000769 C9.55354162,36.6546372 9.73043428,36.8082426 9.91191087,36.9565966 C9.90967767,36.9513452 9.90709186,36.9452582 9.90532881,36.9408422 C9.9023904,36.9389326 9.89933445,36.9367843 9.89627849,36.9363069 C9.89839415,36.9360682 9.90074489,36.9347553 9.90356576,36.9335618 C9.81529574,36.6960522 9.73913199,36.4413559 9.64463252,36.1342643 C9.7407775,36.1014426 9.82775462,36.060147 9.90767955,36.0249383 C10.0997344,36.2096945 10.2948453,36.3911089 10.4933647,36.568704 C10.4481131,36.6360183 10.3965145,36.7007069 10.3467965,36.7483281 C10.2377225,36.8549091 10.0565985,36.8769891 9.90356576,36.9335618 C9.90427098,36.9358295 9.9049762,36.9380971 9.90532881,36.9408422 C10.1354656,37.0458716 10.3591378,37.1962546 10.588922,37.27992 C10.5945637,37.3082064 10.5973846,37.3389991 10.6043193,37.3662112 C10.6421661,37.513133 10.6974083,37.6474035 10.7738071,37.7612649 C10.9249593,37.9922102 11.1413442,38.1774439 11.4059192,38.3445361 C12.3116567,38.8999983 13.2649964,39.3803883 14.2538323,39.7797387 C14.2813359,39.7942996 14.3076641,39.8085024 14.3354027,39.8231827 C14.4254358,39.8700878 14.5171144,39.9179478 14.6103209,39.9665239 C14.7045853,40.012713 14.8015531,40.0563956 14.8998137,40.1021073 C15.0966876,40.1926951 15.3008488,40.2851926 15.511592,40.3786449 C15.7237456,40.4657715 15.9436567,40.5496757 16.1689745,40.6362056 C16.2818097,40.6788141 16.3957027,40.7235709 16.5117114,40.7643892 C16.6284252,40.8024623 16.7463145,40.8407742 16.8651441,40.8794441 C16.9846788,40.9173979 17.1050364,40.9555904 17.2264517,40.9941409 C17.3481022,41.0322141 17.4708104,41.0718388 17.5956343,41.1023928 C17.8446945,41.1677975 18.0983386,41.2326054 18.3555088,41.2959811 L18.4521239,41.3198514 L18.5492092,41.3396637 C18.614207,41.3525537 18.6792047,41.3654437 18.7444376,41.3785723 C18.8752559,41.4038749 19.0066618,41.4294161 19.1384204,41.454838 C19.2704141,41.4788277 19.403113,41.5068753 19.536282,41.5263296 C19.6696861,41.5445904 19.8034428,41.5630899 19.937317,41.5813507 C20.071779,41.598776 20.2063584,41.6162013 20.3409379,41.6336267 C20.4082864,41.6417426 20.47587,41.651052 20.5434535,41.657855 L20.7463218,41.6738481 C21.0171263,41.6947347 21.2886359,41.7135922 21.559793,41.7301821 C21.6313728,41.7322111 21.7024825,41.731853 21.7739447,41.7331659 C22.2931041,41.7892611 22.8137915,41.8242311 23.3342438,41.8335405 C24.513489,41.8593205 25.6947323,41.7822194 26.8630467,41.5994921 C28.4316908,41.3480183 29.970128,40.8990177 31.4434499,40.2732574 C31.2821897,40.3630098 31.1203417,40.4514493 30.9614321,40.5439468 C30.787948,40.6462311 30.6149341,40.748396 30.442978,40.8497255 C30.2724323,40.953084 30.1065881,41.0626487 29.9472084,41.181881 C29.8558824,41.2493146 29.7654967,41.3180611 29.6717025,41.3797659 C29.5779082,41.4408739 29.4832912,41.5004303 29.3882041,41.5583158 C29.1980298,41.6738481 29.0055047,41.7828161 28.8112166,41.8840262 C28.7148366,41.9363022 28.6141077,41.9791495 28.5145541,42.0230708 C28.414648,42.0663955 28.3141541,42.1076911 28.2134252,42.1469578 C28.0114973,42.2248943 27.8095693,42.2982956 27.6036451,42.3563004 C27.3961929,42.4110828 27.1876829,42.4571525 26.9783501,42.4941515 C26.7687823,42.5300763 26.5602722,42.5621819 26.3463555,42.5695817 C26.1334967,42.5804427 25.9205203,42.5813975 25.7078965,42.5722074 C25.6014082,42.5671946 25.4955077,42.5612271 25.388902,42.54965 C25.2817086,42.5362826 25.1747502,42.5201701 25.0680269,42.5014319 C24.8912518,42.4706392 24.7040159,42.4523784 24.5257128,42.4726682 C24.3263707,42.4980901 24.1247953,42.5088317 23.9241602,42.5204088 C23.7235252,42.5319859 23.5234778,42.5420115 23.3242532,42.5510822 C23.1245584,42.558482 22.9240409,42.5547821 22.7250513,42.5559756 C22.5258267,42.5546627 22.3277774,42.5580046 22.1294931,42.5517983 L21.5361681,42.5270925 L21.240916,42.5152767 C21.1428905,42.5131284 21.0443948,42.5019093 20.9463692,42.4958224 C20.5536792,42.4650297 20.1635751,42.4484398 19.7742937,42.4078603 C18.3556263,42.2899409 16.9591734,42.0398994 15.6067967,41.6524842 C14.9622257,41.4678473 14.3281155,41.2509855 13.7068167,41.0038084 C13.553784,40.9213365 13.4003987,40.8405355 13.2500693,40.7536475 L12.7314976,40.447272 L12.4733871,40.2952181 C12.3867626,40.246284 12.3037817,40.1889952 12.2189203,40.1365999 C11.8819427,39.9209316 11.5412039,39.7191081 11.2113961,39.4961594 C9.99677233,38.7110647 8.85831233,37.818673 7.81799543,36.8249518 C6.77791361,35.8314694 5.83585735,34.7364187 5.01850748,33.554122 C4.87793365,33.3496728 4.73406879,33.1097761 4.53778258,32.9919761 C4.43905179,32.9315842 4.34537508,32.8660602 4.2562823,32.7960009 C4.17024547,32.7233157 4.08879257,32.646334 4.01145346,32.565533 C3.85654015,32.4040503 3.7178469,32.227768 3.59043717,32.0425344 C3.46843413,31.8532428 3.35924258,31.6538063 3.25487003,31.4511474 C3.2028013,31.3498179 3.152143,31.2472949 3.10207239,31.1444138 C3.05423497,31.0402199 3.00921843,30.933997 2.96290899,30.8286096 C2.86523604,30.602319 2.74734678,30.3861733 2.61899675,30.1448444 C2.49570081,29.9006511 2.35653741,29.634139 2.20479759,29.3159477 C2.19856815,29.6330649 2.17188733,29.7420329 2.20291701,29.8249822 C2.3905055,30.3181429 2.5957245,30.8066489 2.8166934,31.2884712 C2.77966935,31.3021966 2.74299792,31.315922 2.70597387,31.3298862 C2.76438959,31.455444 2.82280531,31.5815986 2.88133856,31.7076339 L2.97019627,31.8964481 L3.06598864,32.0809656 C3.09972165,32.062108 3.13486511,32.0426537 3.16965596,32.0231994 C3.48618216,32.648721 3.83561863,33.2581301 4.22290189,33.8435496 C4.17941333,33.85083 4.12052747,33.876968 4.07386542,33.887471 C4.1241711,33.968272 4.16624922,34.0585018 4.23054177,34.1252193 C4.25205098,34.1476574 4.32280804,34.1138809 4.3945054,34.0958588 C4.43775889,34.1587571 4.47913179,34.2227295 4.52332557,34.2849117 C5.39709303,35.5268842 6.39509674,36.6812526 7.49900096,37.7291594 C7.46362243,37.7020665 7.42906665,37.6759286 7.39251276,37.6475229 C7.52239075,37.9332505 7.54519286,38.0432927 7.60831005,38.1023717 C8.80636113,39.2110285 10.1267679,40.2094044 11.5833996,40.9670481 C12.229381,41.306484 12.8935806,41.6114273 13.5722372,41.8830714 C14.844689,42.4872291 16.176967,42.984209 17.5521458,43.3644631 C18.9634084,43.7545041 20.4232136,43.9643241 21.9015896,43.9959523 C23.3818461,44.0273418 24.8844347,43.876004 26.360695,43.5475484 C27.837308,43.219809 29.287005,42.715668 30.6727621,42.0566086 C32.0588718,41.3976686 33.3811592,40.584407 34.6165869,39.642365 C36.0621702,38.5357373 37.3705882,37.2275247 38.5162179,35.7756128 C38.5900309,35.6866959 38.6576145,35.5922888 38.7274313,35.5001494 L38.9348835,35.2212248 L39.1409252,34.941226 C39.209214,34.8476544 39.2785606,34.7549182 39.3426181,34.657766 L39.7308417,34.0786722 L39.922779,33.7875737 L40.1048433,33.4890754 L40.1824175,33.359937 C40.2847919,33.2862971 40.3590751,33.2052574 40.3383886,33.0999893 L40.4647405,32.8893338 C40.5175145,32.803162 40.565587,32.7137676 40.6141296,32.6248507 C40.8110035,32.3322007 41.0035285,32.0358507 41.1873558,31.7319816 C41.2027531,31.7411717 41.2123911,31.7455877 41.2059266,31.701905 C41.2413052,31.6433034 41.2790344,31.5869694 41.3138253,31.5280098 C41.6200083,31.0089498 41.9056223,30.4735386 42.1721954,29.9247601 L42.1927644,29.9127056 C42.4327742,29.5902177 42.5012981,29.3617787 42.5721727,29.0902539 C42.5778144,29.0670997 42.5832211,29.0426326 42.5885103,29.0185236 C42.7247352,28.7036742 42.8552009,28.3851248 42.9777916,28.0619208 C43.023866,27.9407789 43.0728788,27.8176081 43.1134289,27.69026 C43.1210688,27.6655542 43.1278859,27.6406097 43.1352908,27.6157846 C43.3262878,27.4181384 43.4963633,27.4126482 43.5479619,27.7104304 C43.5158744,27.426135 43.4895462,27.3572691 43.4895462,27.273723 C43.488841,27.1906543 43.5098801,27.0919506 43.548197,26.7513212 C43.676312,26.6816199 43.6771347,26.7559759 43.7228565,26.9278422 C43.8678967,26.6553625 43.8702474,26.5577329 43.8507363,26.4747836 C43.8325182,26.3918342 43.7960818,26.3238039 43.8536748,26.1040776 C43.7497724,25.9854421 43.5995605,25.849262 43.516227,25.729433 C43.5168147,25.7154689 43.5181076,25.7000725 43.5184602,25.6869439 C43.5186953,25.61772 43.514464,25.5598344 43.5075293,25.515555 C43.4933074,25.4269961 43.4655687,25.3927422 43.4225503,25.4290251 C43.4055075,25.4433473 43.3852912,25.472111 43.3633119,25.5094681 C43.3693062,25.3361696 43.3772987,25.1590519 43.4055075,24.9816954 C43.4462927,24.73237 43.4977738,24.4769576 43.5847509,24.2165325 L43.6779575,24.2522186 C43.6880656,24.0582723 43.7086345,23.866355 43.7092222,23.67217 L43.8367495,23.6516415 C43.8507363,23.3742685 43.8729508,23.098447 43.8789451,22.8215513 L43.8385125,22.9321902 C43.8367495,22.8344413 43.8334585,22.6256954 43.8419211,22.3966597 C43.8460349,22.2820822 43.852852,22.162492 43.864018,22.0488693 L43.864018,22.0488693 Z" id="Fill-213"></path>
                <path d="M1.0952,17.0359081 C1.0791,17.0062614 1.0641,16.978636 1.0484,16.95 C1.0344,16.9647391 1.0193,16.9805732 1.0048,16.9957334 C1.0135,17.0141784 1.0163,17.0408773 1.032,17.0483732 C1.0454,17.0546057 1.0728,17.0412984 1.0952,17.0359081" id="Fill-214"></path>
                <path d="M0.0887557078,21.7551714 C0.0892694064,21.6748371 0.0909246575,21.5942193 0.0920091324,21.5140266 C0.0946917808,21.3537829 0.0973744292,21.1935392 0.1,21.0327288 C0.0684360731,21.0221026 0.0355593607,21.0109096 0.00319634703,21 C0.00239726027,21.1663361 0.00159817352,21.3329555 0.000742009132,21.499575 L0,21.7500708 L0.00313926941,22 C0.0311643836,21.9990082 0.0608447489,21.9978748 0.0891552511,21.9967413 C0.0889840183,21.9161235 0.088869863,21.8356475 0.0887557078,21.7551714" id="Fill-215"></path>
                <path d="M1,26.0662362 C1.01561858,26.379296 1.03111385,26.6900646 1.04656802,27 C1.06440608,26.9745886 1.08228524,26.9491773 1.1,26.9237659 C1.08471023,26.6173714 1.06925606,26.3066028 1.0540074,26 C1.03608714,26.0220787 1.01783806,26.044574 1,26.0662362" id="Fill-216"></path>
                <path d="M0,23.95 C0.00492893224,23.9781075 0.0044248369,24.0075768 0.0181474323,24.0340084 C0.0229643434,24.0432612 0.0631799497,24.0439246 0.0985226343,24.05 C0.0970103482,24.0206006 0.106308107,23.9905377 0.0912972677,23.9674232 C0.0830637104,23.9555866 0.0318700278,23.9555517 0,23.95" id="Fill-217"></path>
                <path d="M10.0134287,38 C10.0245039,37.9703727 10.0367328,37.9421488 10.05,37.9115858 L9.55253807,37.4639015 L9.30461467,37.2381101 C9.22247347,37.1618587 9.14321643,37.07937 9.06245962,37 C9.05807568,37.0394511 9.05299954,37.074848 9.05,37.1127397 C9.12879557,37.189303 9.20516844,37.2711679 9.28627134,37.3432091 L9.52784956,37.5629191 C9.68947854,37.7082489 9.85122289,37.8538905 10.0134287,38" id="Fill-218"></path>
                <path d="M12.1,1.98769071 C12.096633,1.9751387 12.0932142,1.96237864 12.0899249,1.95 C12.0595442,1.97291956 12.0298886,1.99819695 12,2.0223301 C12.0037814,2.03144938 12.0075369,2.04053398 12.0114737,2.05 C12.0409738,2.02919556 12.0703445,2.00752427 12.1,1.98769071" id="Fill-219"></path>
                <path d="M14.5819577,1.00981186 L14.6977249,0.999856284 L14.8149735,0.991102691 L15.05,0.973778417 C15.0406878,0.965913248 15.0312698,0.957943559 15.0218519,0.95 L14.7771958,0.962568592 L14.6548677,0.969074993 L14.5340212,0.976757251 C14.3725397,0.987235432 14.2112698,0.997713614 14.05,1.0081918 C14.0721164,1.02214528 14.0963492,1.03607264 14.1197354,1.05 C14.2737037,1.0366475 14.4277778,1.02324275 14.5819577,1.00981186" id="Fill-220"></path>
                <path d="M5.6240835,5.53831675 L5.72718941,5.42323205 L5.83449593,5.31258403 L6.05,5.09222909 C6.02339613,5.06171014 5.9962831,5.03092229 5.96942464,5 L5.73355397,5.20449045 L5.61619145,5.30747513 L5.50264766,5.41529981 C5.35168024,5.56023124 5.20084012,5.70502823 5.05,5.84995967 C5.10333503,5.90064533 5.15870672,5.94998656 5.21331466,6 C5.35015275,5.84619521 5.48699084,5.69239043 5.6240835,5.53831675" id="Fill-221"></path>
                <path d="M8.21502099,4.3580825 C8.36703517,4.27062747 8.52421598,4.17744991 8.68507086,4.08004266 C8.84741832,3.98512346 9.01803241,3.89443396 9.1886465,3.79603149 C9.27395355,3.74701686 9.3600643,3.69750462 9.44697874,3.64774357 C9.49037856,3.62311185 9.53331912,3.5967385 9.57752263,3.5729776 C9.62195578,3.54958991 9.66650374,3.52620222 9.71116651,3.50256572 C9.88958798,3.40839294 10.0690428,3.31210531 10.2479235,3.21482247 L10.3820266,3.14154933 C10.4270339,3.11766403 10.4729596,3.09626678 10.5183112,3.0735011 C10.6091294,3.02834295 10.6997179,2.9831848 10.7899619,2.93827545 C10.8800912,2.8928685 10.9696464,2.84746155 11.0587423,2.8024278 C11.147953,2.75789166 11.2350971,2.70987225 11.3249967,2.67068543 C11.5034182,2.5884553 11.6781656,2.50659838 11.8478612,2.42573668 C11.9325941,2.38518143 12.0162938,2.34499938 12.0985009,2.30568816 C12.1818561,2.26923819 12.2639483,2.23353464 12.3442035,2.1984531 C12.5048288,2.12729481 12.6585651,2.05750494 12.8036905,1.9893323 C13.389588,1.73380933 13.8437935,1.51374111 14.05,1.35587419 C13.904071,1.19178714 13.766179,1.05357583 13.6117537,1.01115454 C13.4587062,0.972838534 13.2876329,1.02906852 13.0813115,1.24490705 C13.0042711,1.32564435 12.9191937,1.39767347 12.8283755,1.46261163 C12.7380167,1.52879382 12.6437541,1.59373199 12.5453582,1.65033518 C12.3492553,1.76528319 12.1399488,1.85771434 11.9397126,1.94305453 C11.744069,2.03536127 11.546818,2.12306512 11.3486485,2.20865412 C11.2497933,2.25207063 11.1493308,2.29200387 11.0511645,2.33716202 L10.7578139,2.47599534 C10.5623999,2.5695461 10.3650341,2.65924039 10.1714572,2.75863808 C9.98006167,2.86276307 9.78935507,2.96925171 9.60060031,3.08034324 C8.70091523,3.6253511 7.85312623,4.2815749 7.05,5 C7.25850282,4.90383678 7.50707584,4.7714724 7.77987469,4.60887818 C7.91466671,4.52503081 8.06346608,4.44628396 8.21502099,4.3580825" id="Fill-222"></path>
                <path d="M4.1,7.96964018 C4.0909242,7.96309345 4.08174867,7.95647176 4.07280585,7.95 C4.04757314,7.97856072 4.02413564,8.00832084 4,8.0374063 C4.0081117,8.04157921 4.01619016,8.04570215 4.02460106,8.05 C4.04973404,8.02318841 4.07430186,7.99590205 4.1,7.96964018" id="Fill-223"></path>
                <path d="M5,34.9707189 C5.02505056,34.9972985 5.04992417,35.0236722 5.07472194,35.05 C5.08316481,35.0427885 5.09163296,35.0355998 5.1,35.0284799 C5.07548028,35.0024267 5.05063195,34.9760302 5.02613751,34.95 C5.01746714,34.956891 5.0086451,34.9638965 5,34.9707189" id="Fill-224"></path>
                <path d="M16.5576696,41.0219606 C16.7203048,41.0312705 16.8831367,41.0406353 17.0462635,41.05 C17.0467552,41.0382256 17.0483284,41.0266703 17.05,41.014184 L16.54941,40.9854326 L16.2991642,40.9702629 C16.21588,40.9647864 16.1330875,40.956736 16.05,40.95 C16.057473,40.9633078 16.0632743,40.9755203 16.0713373,40.9880066 C16.1522616,40.994414 16.2325959,41.0029025 16.3140118,41.0072289 L16.5576696,41.0219606" id="Fill-225"></path>
                <path d="M7.1,20.9525816 C7.07589641,20.952126 7.05199203,20.951101 7.02734064,20.95 C7.0189243,20.9827259 7.00941235,21.0157555 7,21.048899 C7.02395418,21.0492787 7.04785857,21.0496203 7.07101594,21.05 C7.08062749,21.0177677 7.09028884,20.9851936 7.1,20.9525816" id="Fill-226"></path>
                <path d="M1,27.0116958 C1.01706114,27.0254457 1.03313609,27.0494633 1.05069034,27.05 C1.06558185,27.0501776 1.08303748,27.0260707 1.1,27.0116065 C1.07080868,26.9903567 1.04349112,26.9706248 1.01518738,26.95 C1.01025641,26.9699105 1.00512821,26.9912496 1,27.0116958" id="Fill-227"></path>
            </g>
        </g>
    </g>
</svg>