<?xml version="1.0" encoding="UTF-8"?>
<svg width="25px" height="25px" viewBox="0 0 25 25" version="1.1" xmlns="http://www.w3.org/2000/svg" xmlns:xlink="http://www.w3.org/1999/xlink">
    <title>birthday-cake-svgrepo-com</title>
    <g id="Main" stroke="none" stroke-width="1" fill="none" fill-rule="evenodd">
        <g id="Overview" transform="translate(-43.000000, -595.000000)" fill-rule="nonzero">
            <g id="birthday-cake-svgrepo-com" transform="translate(43.000000, 595.000000)">
                <rect id="Rectangle" fill="#D15975" x="3.57142857" y="8.03571429" width="16.9642857" height="8.92857143"></rect>
                <rect id="Rectangle" fill="#F36E81" x="7.14285714" y="8.03571429" width="10.7142857" height="8.92857143"></rect>
                <path d="M22.3214286,9.49261601 C22.3214286,10.1598734 21.6778089,10.7266236 20.8915028,10.7140693 C20.1290061,10.7019478 19.5152332,10.1736543 19.5152332,9.52378547 C19.5152332,10.1813024 18.8870897,10.7142857 18.1121781,10.7142857 C17.3372665,10.7142857 16.7091229,10.1813024 16.7091229,9.52378547 C16.7091229,10.1813024 16.0809794,10.7142857 15.3060678,10.7142857 C14.5311562,10.7142857 13.9030126,10.1813024 13.9030126,9.52378547 C13.9030126,10.1813024 13.2748691,10.7142857 12.4999575,10.7142857 C11.7250459,10.7142857 11.0969023,10.1813024 11.0969023,9.52378547 C11.0969023,10.1813024 10.4687588,10.7142857 9.69384718,10.7142857 C8.91893557,10.7142857 8.29079203,10.1813024 8.29079203,9.52378547 C8.29079203,10.1813024 7.66264849,10.7142857 6.88773688,10.7142857 C6.11282527,10.7142857 5.48468173,10.1813024 5.48468173,9.52378547 C5.48468173,10.1736543 4.87090888,10.7019478 4.10841218,10.7140693 C3.32210606,10.7265515 2.67857143,10.1598734 2.67857143,9.49261601 L2.67857143,8.29122089 C2.67857143,7.65700894 3.28452119,7.14285714 4.03205196,7.14285714 L20.967948,7.14285714 C21.7153938,7.14285714 22.3214286,7.65700894 22.3214286,8.29122089 L22.3214286,9.49261601 L22.3214286,9.49261601 Z" id="Path" fill="#EDB7AB"></path>
                <g id="Group" opacity="0.6" transform="translate(2.678571, 8.035714)" fill="#BDC3C7">
                    <path d="M18.2130102,1.35635127 C17.4505102,1.34289111 16.8367347,0.756252564 16.8367347,0.0346118347 C16.8367347,0.764745283 16.2085884,1.35659163 15.4336735,1.35659163 C14.6587585,1.35659163 14.0306122,0.764745283 14.0306122,0.0346118347 C14.0306122,0.764745283 13.402466,1.35659163 12.627551,1.35659163 C11.8526361,1.35659163 11.2244898,0.764745283 11.2244898,0.0346118347 C11.2244898,0.764745283 10.5963435,1.35659163 9.82142857,1.35659163 C9.04651361,1.35659163 8.41836735,0.764745283 8.41836735,0.0346118347 C8.41836735,0.764745283 7.79022109,1.35659163 7.01530612,1.35659163 C6.24039116,1.35659163 5.6122449,0.764745283 5.6122449,0.0346118347 C5.6122449,0.764745283 4.98409864,1.35659163 4.20918367,1.35659163 C3.43426871,1.35659163 2.80612245,0.764745283 2.80612245,0.0346118347 C2.80612245,0.756252564 2.19234694,1.34289111 1.42984694,1.35635127 C0.643537415,1.37021203 0,0.740949646 0,0 L0,1.3219798 C0,2.06292944 0.643537415,2.69227195 1.42984694,2.67833107 C2.19234694,2.66487091 2.80612245,2.07823236 2.80612245,1.35659163 C2.80612245,2.08672508 3.43426871,2.67857143 4.20918367,2.67857143 C4.98409864,2.67857143 5.6122449,2.08672508 5.6122449,1.35659163 C5.6122449,2.08672508 6.24039116,2.67857143 7.01530612,2.67857143 C7.79022109,2.67857143 8.41836735,2.08672508 8.41836735,1.35659163 C8.41836735,2.08672508 9.04651361,2.67857143 9.82142857,2.67857143 C10.5963435,2.67857143 11.2244898,2.08672508 11.2244898,1.35659163 C11.2244898,2.08672508 11.8526361,2.67857143 12.627551,2.67857143 C13.402466,2.67857143 14.0306122,2.08672508 14.0306122,1.35659163 C14.0306122,2.08672508 14.6587585,2.67857143 15.4336735,2.67857143 C16.2085884,2.67857143 16.8367347,2.08672508 16.8367347,1.35659163 C16.8367347,2.07823236 17.4505102,2.66487091 18.2130102,2.67833107 C18.9993197,2.69219183 19.6428571,2.06292944 19.6428571,1.3219798 L19.6428571,0 C19.6428571,0.740949646 18.9993197,1.37021203 18.2130102,1.35635127 Z" id="Path"></path>
                </g>
                <g id="Group" transform="translate(4.464286, 14.285714)" fill="#ECF0F1">
                    <ellipse id="Oval" cx="0.689935065" cy="0.892857143" rx="1" ry="1"></ellipse>
                    <ellipse id="Oval" cx="3.44967532" cy="0.892857143" rx="1" ry="1"></ellipse>
                    <ellipse id="Oval" cx="6.20941558" cy="0.892857143" rx="1" ry="1"></ellipse>
                    <ellipse id="Oval" cx="8.96915584" cy="0.892857143" rx="1" ry="1"></ellipse>
                    <ellipse id="Oval" cx="11.7288961" cy="0.892857143" rx="1" ry="1"></ellipse>
                    <ellipse id="Oval" cx="14.4886364" cy="0.892857143" rx="1" ry="1"></ellipse>
                </g>
                <path d="M10.7142857,4.16666667 L10.7142857,4.16666667 C10.7142857,4.4953824 11.0141234,4.76190476 11.3839286,4.76190476 L12.0535714,4.76190476 L12.0535714,7.14285714 L13.3928571,7.14285714 L13.3928571,4.004329 C13.3928571,3.76522367 13.1748377,3.57142857 12.9058442,3.57142857 L11.3839286,3.57142857 C11.0141234,3.57142857 10.7142857,3.83795094 10.7142857,4.16666667 Z" id="Path" fill="#DA768E"></path>
                <g id="Group" opacity="0.6" transform="translate(12.500000, 3.571429)" fill="#BDC3C7">
                    <path d="M0.555555556,0 L0,0 C0.245481481,0 0.444444444,0.193795094 0.444444444,0.432900433 L0.444444444,3.57142857 L1,3.57142857 L1,0.432900433 C1,0.193795094 0.801037037,0 0.555555556,0 Z" id="Path"></path>
                </g>
                <path d="M10.7142857,1.78573842 C10.7142857,1.2925917 12.0535714,0 12.0535714,0 C12.0535714,0 13.3928571,1.2925917 13.3928571,1.78573842 C13.3928571,2.27888514 12.7932692,2.67857143 12.0535714,2.67857143 C11.3138736,2.67857143 10.7142857,2.27881274 10.7142857,1.78573842 Z" id="Path" fill="#F5DB91"></path>
                <g id="Group" opacity="0.6" transform="translate(11.607143, 0.000000)" fill="#BDC3C7">
                    <path d="M0.377763915,0 C0.377763915,0 0.214874887,0.149638031 0,0.366240347 C0.24065121,0.786776062 0.594371664,1.46025579 0.594371664,1.78573842 C0.594371664,2.19570463 0.342673459,2.54029923 0,2.64512548 C0.120325605,2.66633687 0.246716227,2.67857143 0.377763915,2.67857143 C1.15538574,2.67857143 1.78571429,2.27881274 1.78571429,1.78573842 C1.78571429,1.2925917 0.377763915,0 0.377763915,0 Z" id="Path"></path>
                </g>
                <path d="M1.78571429,22.3214286 L24.1071429,22.3214286 L24.1071429,18.3982955 C24.1071429,17.6063312 23.4383455,16.9642857 22.6133827,16.9642857 L3.27947443,16.9642857 C2.45451163,16.9642857 1.78571429,17.6063312 1.78571429,18.3982955 L1.78571429,22.3214286 Z" id="Path" fill="#C63C22"></path>
                <path d="M1.78571429,22.3214286 L24.1071429,22.3214286 L24.1071429,18.3982955 C24.1071429,17.6063312 23.4383455,16.9642857 22.6133827,16.9642857 L3.27947443,16.9642857 C2.45451163,16.9642857 1.78571429,17.6063312 1.78571429,18.3982955 L1.78571429,22.3214286 Z" id="Path" fill="#F492A6"></path>
                <path d="M3.57142857,22.3214286 L20.5357143,22.3214286 L20.5357143,18.3982955 C20.5357143,17.6063312 19.8619706,16.9642857 19.0309066,16.9642857 L5.07623627,16.9642857 C4.24517221,16.9642857 3.57142857,17.6063312 3.57142857,18.3982955 L3.57142857,22.3214286 Z" id="Path" fill="#EDB7AB"></path>
                <path d="M0.694444444,24.1071429 L24.3055556,24.1071429 C24.6890572,24.1071429 25,23.7073593 25,23.2142857 L25,23.2142857 C25,22.7212121 24.6890572,22.3214286 24.3055556,22.3214286 L0.694444444,22.3214286 C0.310942761,22.3214286 0,22.7212121 0,23.2142857 L0,23.2142857 C0,23.7073593 0.310942761,24.1071429 0.694444444,24.1071429 Z" id="Path" fill="#5B5869"></path>
                <g id="Group" transform="translate(2.678571, 19.642857)" fill="#ECF0F1">
                    <ellipse id="Oval" cx="0.701530612" cy="0.892857143" rx="1" ry="1"></ellipse>
                    <ellipse id="Oval" cx="4.3494898" cy="0.892857143" rx="1" ry="1"></ellipse>
                    <ellipse id="Oval" cx="7.99744898" cy="0.892857143" rx="1" ry="1"></ellipse>
                    <ellipse id="Oval" cx="11.6454082" cy="0.892857143" rx="1" ry="1"></ellipse>
                    <ellipse id="Oval" cx="15.2933673" cy="0.892857143" rx="1" ry="1"></ellipse>
                    <ellipse id="Oval" cx="18.9413265" cy="0.892857143" rx="1" ry="1"></ellipse>
                </g>
            </g>
        </g>
    </g>
</svg>