<?xml version="1.0" encoding="UTF-8"?>
<svg width="24px" height="24px" viewBox="0 0 24 24" version="1.1" xmlns="http://www.w3.org/2000/svg" xmlns:xlink="http://www.w3.org/1999/xlink">
    <title>hand-wave-simple-svgrepo-com</title>
    <g id="Main" stroke="none" stroke-width="1" fill="none" fill-rule="evenodd">
        <g id="Overview" transform="translate(-325.000000, -595.000000)">
            <g id="hand-wave-simple-svgrepo-com" transform="translate(337.000000, 607.000000) scale(-1, 1) translate(-337.000000, -607.000000) translate(325.000000, 595.000000)">
                <rect id="view-box" x="0" y="0" width="24" height="24"></rect>
                <path d="M8.148,14.862 C6.784,13.659 4.9,12.026 2.534,9.916 C2.1190306,9.52464679 2.09282221,8.87343485 2.475,8.45 C2.85948876,8.02419112 3.51075122,7.97575375 3.954,8.34 C6.111,9.795 7.814,11 9.087,11.907 C9.542,12.233 9.844,12.18 9.987,12.007 C10.13,11.834 10.067,11.594 9.68,11.119 C8.6,9.783 7.12,8.013 5.3,5.767 C4.93671685,5.33139959 4.9948914,4.68387205 5.43,4.32 C5.87581748,3.9469469 6.53213398,3.97378834 6.946,4.382 C9.22266667,6.52 11.0073333,8.214 12.3,9.464 C12.743,9.894 12.967,9.956 13.161,9.882 C13.355,9.808 13.474,9.582 13.261,9.2 C12.5,7.846 11.458,6.031 10.2,3.713 C9.85800594,3.25308066 9.93913621,2.60536125 10.384,2.244 C10.8333757,1.88299675 11.4852184,1.93011791 11.878,2.352 L17.678,10.021 C17.871,10.276 17.978,10.358 18.149,10.321 C18.32,10.284 18.336,10.173 18.375,9.866 C18.502,8.866 18.757,6.628 18.757,6.628 C18.8676071,6.0509 19.3872139,5.64400991 19.974,5.675 C20.5480541,5.70474902 20.9986453,6.17817717 21,6.753 L21,16.107 C20.9014692,18.2556424 19.6735748,20.1918204 17.772,21.197 C15.7871559,22.3460732 13.3183121,22.2507285 11.428,20.952 L2.448,15.484 C1.98141899,15.149591 1.86029137,14.5073944 2.173,14.026 C2.48548608,13.5472738 3.1215271,13.4029806 3.61,13.7 C5.473,14.561 6.923,15.234 8.066,15.775 C8.389,15.928 8.629,15.833 8.706,15.649 C8.783,15.465 8.629,15.286 8.148,14.862 Z" id="Path" fill="#FFA458" fill-rule="nonzero"></path>
            </g>
        </g>
    </g>
</svg>