<?xml version="1.0" encoding="UTF-8"?>
<svg width="44px" height="43px" viewBox="0 0 44 43" version="1.1" xmlns="http://www.w3.org/2000/svg" xmlns:xlink="http://www.w3.org/1999/xlink">
    <title>Group</title>
    <g id="Onboarding" stroke="none" stroke-width="1" fill="none" fill-rule="evenodd">
        <g id="Onboarding---Messaging" transform="translate(-173.000000, -1207.000000)" fill="#008F7C">
            <g id="Group" transform="translate(173.000000, 1207.000000)">
                <path d="M10.0516875,21.0173 C10.0516875,21.0057 10.0496875,20.9943 10.0486875,20.9827 C10.0476875,21.0004 10.0486875,21.0113 10.0516875,21.0173" id="Fill-178"></path>
                <path d="M40.6350007,25.5383393 C40.62339,25.5976983 40.6108861,25.6576247 40.5983823,25.7177782 C40.5867716,25.7780451 40.5751609,25.8386526 40.5617639,25.8989195 C40.5081761,26.1403278 40.4590539,26.3862759 40.4126111,26.6301811 C40.4010004,26.6912426 40.3902828,26.752077 40.3786721,26.8125709 C40.3670614,26.8727244 40.3545576,26.9324238 40.3420538,26.9918963 C40.3179392,27.1106142 40.295611,27.2281972 40.2732827,27.3436237 C40.2518476,27.4591638 40.2321987,27.5725473 40.2134429,27.6828665 C40.2045116,27.7382531 40.1955803,27.7926182 40.186649,27.8460753 C40.1768246,27.8993054 40.1678933,27.9515141 40.1580688,28.0024742 C40.1223436,28.2073365 40.0946565,28.397671 40.0767939,28.5666682 C40.0580382,28.7354383 40.0508931,28.8834385 40.05,29 C40.0964428,28.903187 40.1366337,28.8006991 40.1786108,28.6962818 C40.2196948,28.591751 40.2607789,28.4848368 40.3009697,28.3758796 C40.3813515,28.1578517 40.4626264,27.9333545 40.5287181,27.6995506 C40.5974892,27.4671085 40.6626877,27.2309211 40.7234206,26.9954147 C40.7787947,26.7579788 40.8270238,26.5199755 40.8716803,26.287874 C40.8931155,26.171653 40.9136575,26.0567939 40.9333063,25.9437509 C40.9493827,25.8297998 40.9636728,25.7175512 40.9770698,25.607686 C41.0029705,25.3881827 41.0235126,25.1780996 41.0378026,24.9819767 C41.046734,24.8842557 41.0476271,24.7886912 41.0494133,24.6976665 C41.0503065,24.6065284 41.0503065,24.5193626 41.0485202,24.4368502 C41.0449477,24.271712 41.0360164,24.1247333 41.01994,24 C40.965459,24.1582149 40.9127643,24.3411722 40.8636421,24.542062 C40.8377413,24.6422799 40.8154131,24.7474917 40.7895123,24.8554274 C40.7627184,24.9631362 40.7359244,25.0744768 40.7100236,25.1886548 C40.685016,25.3027194 40.6591152,25.4195079 40.6350007,25.5383393" id="Fill-179"></path>
                <path d="M0.0965,18.0360242 C0.0795,18.0062823 0.0645,17.9787309 0.0485,17.95 C0.0335,17.9647446 0.0185,17.9805845 0.0035,17.9956662 C0.0125,18.0142022 0.0155,18.040911 0.0315,18.0484097 C0.0455,18.0545603 0.0735,18.041248 0.0965,18.0360242" id="Fill-180"></path>
                <path d="M28.0910506,1.95 C28.0607004,1.98019967 28.0299611,2.01314476 28,2.0453411 C28.033463,2.04600666 28.0669261,2.04559068 28.1,2.05 C28.0968872,2.01672213 28.0941634,1.98302829 28.0910506,1.95" id="Fill-181"></path>
                <path d="M0.0888888889,21.7553131 C0.0894444444,21.6746954 0.0911111111,21.594361 0.0922222222,21.5141683 C0.0944444444,21.3537829 0.0972222222,21.1935392 0.1,21.0328705 C0.0683333333,21.0221026 0.0355555556,21.0110513 0.00333333333,21 C0.00277777778,21.1663361 0.00166666667,21.3329555 0.00111111111,21.499575 L0,21.7500708 L0.00333333333,22 C0.0311111111,21.9990082 0.0611111111,21.9978748 0.0888888889,21.9967413 C0.0888888889,21.9162652 0.0888888889,21.8356475 0.0888888889,21.7553131" id="Fill-182"></path>
                <path d="M0,26.06625 C0.0152610442,26.379375 0.0309236948,26.69 0.0465863454,27 C0.0642570281,26.9745833 0.0823293173,26.9489583 0.1,26.92375 C0.0847389558,26.6170833 0.0690763052,26.30625 0.053815261,26 C0.0357429719,26.021875 0.0176706827,26.0441667 0,26.06625" id="Fill-183"></path>
                <path d="M0,24.95 C0.00438579243,24.9781326 0.00438579243,25.0075916 0.0180913938,25.034014 C0.0230254103,25.0432635 0.0630457662,25.0439267 0.0986803298,25.05 C0.0970356576,25.0206457 0.106355467,24.9905236 0.091005193,24.9674171 C0.0833300562,24.9555846 0.0317969951,24.9555497 0,24.95" id="Fill-184"></path>
                <path d="M8.3045045,37.2380284 C8.2222973,37.1615973 8.14346847,37.0793948 8.06238739,37 C8.05788288,37.0393074 8.05337838,37.0748713 8.05,37.1126189 C8.12882883,37.189362 8.20540541,37.2709406 8.28648649,37.3430042 L8.52747748,37.5629387 C8.68963964,37.7084698 8.85067568,37.8541569 9.01283784,38 C9.0240991,37.9706754 9.03648649,37.9422867 9.05,37.9118702 L8.55225225,37.4638902 L8.3045045,37.2380284" id="Fill-185"></path>
                <path d="M29.0018051,39.3834561 C29.0149325,39.5667119 29.0409079,39.7051972 29.0816865,40 C29.0948138,39.3610708 29.1037516,39.1195753 29.0984448,39.101743 C29.073028,39.0304136 29.0431423,38.9909548 29.016329,39.001768 C29.009905,39.0044239 28.9948225,39.2908797 29.0018051,39.3834561" id="Fill-186"></path>
                <polyline id="Fill-187" points="39.075 30.9945 39.025 30.9695 39.025 31.0305 39.075 30.9945"></polyline>
                <path d="M11.1,1.98769071 C11.0967089,1.9751387 11.0931646,1.96241331 11.0898734,1.95 C11.0594937,1.97288488 11.0298734,1.99819695 11,2.02229542 C11.0035443,2.03144938 11.0073418,2.04053398 11.0113924,2.05 C11.0410127,2.02916089 11.0703797,2.00752427 11.1,1.98769071" id="Fill-188"></path>
                <path d="M14.5820248,1.00979624 L14.6977273,0.99984326 L14.8154959,0.991091954 L15.05,0.973772205 C15.0407025,0.965909091 15.031405,0.957967607 15.0221074,0.95 L14.7772727,0.962565308 L14.6553719,0.969043887 L14.5345041,0.976724138 C14.3733471,0.987225705 14.211157,0.997701149 14.05,1.00817659 C14.0727273,1.02215256 14.0964876,1.03605016 14.1202479,1.05 C14.2741736,1.03659875 14.4280992,1.02322362 14.5820248,1.00979624" id="Fill-189"></path>
                <path d="M5.62391304,6.53832706 L5.72701863,6.42307692 L5.83385093,6.3126681 L6.05,6.0922539 C6.02267081,6.06172673 5.99534161,6.03066165 5.96925466,6 L5.73322981,6.20441097 L5.61521739,6.30755783 L5.50217391,6.41541151 C5.35186335,6.56024744 5.20031056,6.70521786 5.05,6.85005379 C5.10341615,6.90075309 5.15807453,6.95010758 5.21273292,7 C5.34937888,6.84628833 5.48602484,6.69230769 5.62391304,6.53832706" id="Fill-190"></path>
                <polyline id="Fill-191" points="41.022 20.9731 41.049 21.0276 41.078 20.9724 41.022 20.9731"></polyline>
                <path d="M9.21442523,4.35819783 C9.36684278,4.27061715 9.5237432,4.17756267 9.68512648,4.08002964 C9.84763048,3.98523351 10.0179795,3.89429391 10.1883285,3.79589005 C10.273503,3.74699913 10.3597983,3.69748619 10.4472142,3.64772444 C10.4909222,3.62309237 10.5335094,3.59671865 10.5772174,3.57283301 C10.6220461,3.54956939 10.6668748,3.52605696 10.7105828,3.50266894 C10.8898975,3.40837042 11.0692123,3.31220584 11.2485271,3.21467281 L11.3818924,3.14139863 C11.4267211,3.1177618 11.4726705,3.09623984 11.5186199,3.07359825 C11.609398,3.02831506 11.7001761,2.98315627 11.7898335,2.93824629 C11.8806116,2.89271429 11.970269,2.84743109 12.0588056,2.80252111 C12.148463,2.75773554 12.2347582,2.70983985 12.3255363,2.67065248 C12.5037304,2.58854559 12.6785623,2.50668751 12.8477906,2.42570026 C12.9329651,2.38502003 13.0158982,2.34508623 13.0988313,2.30577444 C13.1817643,2.26932396 13.2635767,2.2334955 13.3442683,2.19828906 C13.5045309,2.12725417 13.6591899,2.05746331 13.8037624,1.98941412 C14.3898975,1.73388753 14.843788,1.51369179 15.05,1.35594704 C14.9043068,1.19173326 14.7664585,1.0533956 14.6117996,1.01109811 C14.459382,0.972905966 14.2879123,1.02913674 14.0817003,1.24472953 C14.0043708,1.32559237 13.9191963,1.3976225 13.8284182,1.46256159 C13.7376401,1.52874472 13.6434998,1.5938082 13.5459974,1.65041219 C13.3498719,1.76523743 13.1402978,1.85779429 12.9396894,1.94313569 C12.7446846,2.03544374 12.5474384,2.12302442 12.3490714,2.20849022 C12.2493276,2.25203175 12.1495837,2.29196556 12.0509606,2.33724875 L11.7573327,2.47608403 C11.5623279,2.56951172 11.3650817,2.65920727 11.1711976,2.75860637 C10.9795549,2.86260843 10.789033,2.96922298 10.6007525,3.08019168 C9.70081652,3.62533165 8.85243356,4.28168914 8.05,5 C8.25845341,4.90371101 8.50725264,4.77146916 8.77958694,4.60887264 C8.91407301,4.5250241 9.0631284,4.44640053 9.21442523,4.35819783" id="Fill-192"></path>
                <path d="M4.1,7.96964018 C4.09093851,7.96306847 4.0815534,7.95642179 4.07281553,7.95 C4.04757282,7.97853573 4.02427184,8.00829585 4,8.0374063 C4.00841424,8.04155422 4.01618123,8.04567716 4.02459547,8.05 C4.04983819,8.02313843 4.07443366,7.99587706 4.1,7.96964018" id="Fill-193"></path>
                <path d="M40.1550771,14.8930991 C40.1700881,15.0042002 40.1871006,15.1183497 40.2061146,15.2345317 C40.2251285,15.3506007 40.246144,15.4689278 40.2681601,15.5886099 C40.2791682,15.648338 40.291177,15.7084048 40.3021851,15.7689233 C40.3141939,15.829216 40.3262027,15.8898473 40.3362101,15.9512691 C40.3782409,16.1962786 40.4242747,16.4434333 40.4743115,16.6866363 C40.487321,16.7473805 40.4993298,16.807899 40.5123394,16.8680788 C40.5233474,16.9285972 40.5343555,16.988777 40.5453636,17.0485051 C40.5683805,17.1679613 40.5913974,17.2856111 40.615415,17.400551 C40.6384319,17.5154909 40.6634503,17.6277211 40.6884686,17.7364511 C40.7004775,17.7909855 40.7124863,17.8443908 40.7244951,17.8970057 C40.7365039,17.9497335 40.747512,18.0014452 40.7585201,18.0521407 C40.8025524,18.254697 40.8495869,18.4398654 40.8976222,18.6001942 C40.9456574,18.7606359 40.9956942,18.8962379 41.0407272,19 C41.0487331,18.8874311 41.0497338,18.772717 41.0497338,18.6560835 C41.0507346,18.539337 41.0487331,18.4205582 41.0467316,18.3003116 C41.0417279,18.0601572 41.0347228,17.8136799 41.0097044,17.5677671 C40.9866875,17.3216286 40.9596677,17.0740222 40.9276442,16.829916 C40.890617,16.5868259 40.8445832,16.3476877 40.7985494,16.1158884 C40.7745318,15.9999323 40.7505142,15.8861214 40.7254958,15.7746816 C40.6964745,15.6641451 40.6674532,15.5560925 40.6374312,15.4509755 C40.5773871,15.2408545 40.5153416,15.0425887 40.453296,14.8604688 C40.423274,14.7689007 40.3862468,14.6833168 40.3522218,14.6015717 C40.3181969,14.5199395 40.2841719,14.4427107 40.2501469,14.3705627 C40.182097,14.226041 40.114047,14.1012781 40.05,14 C40.0570051,14.1719583 40.0770198,14.3646915 40.1060411,14.571877 C40.1200514,14.6756391 40.1380646,14.7822238 40.1550771,14.8930991" id="Fill-194"></path>
                <path d="M5,34.9706825 C5.02512315,34.9972973 5.05,35.023683 5.07463054,35.05 C5.08300493,35.042831 5.09162562,35.0356161 5.1,35.0284929 C5.07536946,35.0024279 5.05049261,34.9760421 5.02610837,34.95 C5.01748768,34.9568713 5.00862069,34.96388 5,34.9706825" id="Fill-195"></path>
                <path d="M17.2995202,40.9702629 C17.2160269,40.9647317 17.1334933,40.9567908 17.05,40.95 C17.0576775,40.9633078 17.0634357,40.975575 17.0711132,40.9880613 C17.1517274,40.994414 17.2323417,41.0029025 17.3139155,41.0072837 L17.5576775,41.0219606 C17.7198656,41.0313253 17.8830134,41.0406353 18.0461612,41.05 C18.0471209,41.0382256 18.0480806,41.0266703 18.05,41.014184 L17.5490403,40.9854326 L17.2995202,40.9702629" id="Fill-196"></path>
                <path d="M18.8114146,42.3766222 C18.6995587,42.3770882 18.5888803,42.3673026 18.4782018,42.3587985 C18.3675233,42.3497119 18.2580223,42.3387614 18.1485212,42.3258305 C17.9295192,42.2990368 17.7128719,42.2685152 17.4985796,42.2226163 C17.3619976,42.1910463 17.2265931,42.154933 17.092366,42.1166062 C17.5115313,42.1873185 17.931874,42.2478957 18.3569265,42.2958914 C18.6300903,42.327112 18.9056091,42.3522748 19.1823053,42.3738263 C19.0574976,42.3768552 18.9338674,42.3782531 18.8114146,42.3766222 Z M43.0158545,19.4624836 C42.9934833,19.3080117 42.9664024,19.1542389 42.9452087,19 C42.8651434,19.011533 42.7862556,19.0230659 42.7038354,19.0349484 L42.7038354,19.3544931 C42.7038354,19.4609691 42.7038354,19.5673287 42.6979483,19.6735718 L42.6696899,20.3106808 C42.6543833,20.7350706 42.6049313,21.1565481 42.5613663,21.5763946 C42.5472372,21.6852006 42.5378177,21.794123 42.5213337,21.902463 L42.4707042,22.226784 C42.4365587,22.442765 42.4000583,22.6581635 42.363558,22.8729795 C42.3458965,22.9806205 42.3223479,23.0870966 42.2999767,23.1938057 L42.2316858,23.5132338 C42.1845885,23.72572 42.1410236,23.9384391 42.0903941,24.1494109 L41.9267313,24.7792972 C41.871392,24.9887545 41.8184076,25.1985612 41.753649,25.4051062 C41.6276639,25.8190115 41.5134531,26.2351302 41.3721615,26.6433273 L41.1484497,27.3150352 C41.0660295,27.5362584 40.9824319,27.7567827 40.8988344,27.976841 L40.7716719,28.3067537 C40.7304618,28.4168411 40.6810097,28.5240161 40.6350899,28.6324726 L40.353684,29.2802991 C40.3077642,29.3886391 40.2559573,29.4941832 40.2041504,29.6001933 L40.049907,29.9175246 L39.8944861,30.2339239 L39.8155983,30.3918906 C39.7885174,30.4440802 39.760259,30.4955708 39.7320007,30.5472944 C39.505934,30.9598018 39.286932,31.3754545 39.0361392,31.7731671 C38.9136865,31.9735378 38.7924111,32.1741415 38.6664261,32.3720658 L38.2708094,32.9550048 L38.0706462,33.2447269 C38.0023552,33.340136 37.9317094,33.4332151 37.8610636,33.5273428 C37.7209493,33.7148991 37.5784802,33.9016399 37.4360111,34.0875653 C37.3665427,34.18146 37.2888323,34.2698794 37.2146542,34.3605122 L36.9885875,34.6303137 L36.7625208,34.8984842 L36.6483101,35.0319871 L36.5293896,35.1612961 C36.2103059,35.5044892 35.8971094,35.8517596 35.556832,36.1720032 C35.4096531,36.3140101 35.2624743,36.4536872 35.1129406,36.5916168 C34.9622295,36.7281484 34.8044538,36.8562925 34.6478556,36.9863005 C34.4912573,37.1156095 34.3346591,37.2430546 34.1757059,37.3689853 C34.0132205,37.4896737 33.8495577,37.6089641 33.6858948,37.7270897 C33.5210545,37.8442832 33.3585691,37.9639232 33.191374,38.0761075 L32.6839014,38.4052047 L32.4307538,38.5682972 L32.3047688,38.6498434 C32.2623813,38.6765207 32.2188163,38.701334 32.1752514,38.7273123 L31.6595368,39.0345086 C31.3121948,39.2495576 30.9389493,39.4287263 30.5810104,39.6267671 C30.4032184,39.726603 30.2254264,39.8262059 30.0488118,39.9252263 C29.8745521,40.0261106 29.7038247,40.1330527 29.5401618,40.2495473 C29.4459674,40.3152502 29.3541278,40.3824676 29.2575785,40.4424623 C29.1610292,40.5022241 29.0644799,40.5603549 28.9667532,40.6167382 C28.7712997,40.729738 28.5734914,40.8358646 28.3745056,40.9347685 C28.2756014,40.9857931 28.1719875,41.0277312 28.0695511,41.0704847 C27.9671146,41.1126558 27.8646782,41.1530794 27.7610643,41.1915226 C27.5538365,41.2673606 27.3466087,41.3392378 27.1346712,41.3957376 C26.9215563,41.4492087 26.7084414,41.4942921 26.4929716,41.5302889 C26.2775018,41.5654703 26.0643868,41.5966908 25.8442073,41.60403 C25.6263827,41.6145145 25.4073806,41.615563 25.1895559,41.6065929 C25.0800549,41.6015836 24.9717313,41.5958754 24.8622303,41.5844589 C24.7515518,41.5714115 24.6420507,41.5558012 24.5325497,41.5375116 C24.3512254,41.5073395 24.1593042,41.4895158 23.975625,41.5093199 C23.7707521,41.5341332 23.5647018,41.5445012 23.3586514,41.5559177 C23.1526011,41.5673342 22.9477282,41.5771197 22.7428553,41.5858568 C22.5379823,41.592963 22.331932,41.5894682 22.1282365,41.5907496 C21.9233636,41.5894682 21.7196681,41.592497 21.5159726,41.5865558 L20.907241,41.5625579 L20.6046414,41.5510249 C20.5033824,41.5488116 20.4033008,41.5378611 20.3020417,41.5320363 C19.8993605,41.5019807 19.4990341,41.485555 19.0987077,41.4460633 C17.6434035,41.3309666 16.2104706,41.0869105 14.8222799,40.7086525 C14.160564,40.5286683 13.5094449,40.3168811 12.8712775,40.0757373 C12.7146792,39.9951231 12.5569036,39.9162562 12.4026601,39.8314481 L11.8704615,39.5324065 L11.6055397,39.3839924 C11.5172324,39.3361131 11.4324574,39.2803122 11.3453275,39.229171 C10.9991629,39.0187818 10.6494661,38.8215564 10.3103661,38.6041775 C9.0634671,37.8377595 7.89545599,36.9666129 6.82752648,35.9966788 C5.7607744,35.0270943 4.79292649,33.9582563 3.95459594,32.8043773 C3.80977198,32.6047055 3.66259316,32.3704349 3.46125253,32.2556877 C3.35999351,32.1967414 3.2634442,32.1326694 3.17278205,32.0641706 C3.08447476,31.9934584 3.00087719,31.9182028 2.92081191,31.8394525 C2.76185879,31.6816023 2.61938969,31.5096563 2.4886949,31.3288567 C2.36388726,31.1440962 2.25203136,30.9495502 2.14488518,30.7516259 C2.09072337,30.6526055 2.03891643,30.5526531 1.98828691,30.4522348 C1.93883483,30.3504185 1.89291504,30.2468548 1.84464039,30.1439901 C1.74455879,29.9231163 1.62328344,29.7121446 1.49141122,29.4765925 C1.36542615,29.2382445 1.22295705,28.9779956 1.06635879,28.667654 C1.06047164,28.9769472 1.03339073,29.0834232 1.06518136,29.164387 C1.25710254,29.6458592 1.46786261,30.1224386 1.6951067,30.5928438 C1.6562515,30.6063571 1.61857372,30.619754 1.58089594,30.6331509 C1.6409449,30.7559362 1.70099386,30.8789545 1.76104282,31.0018563 L1.85170497,31.1862673 L1.95060913,31.3663679 C1.98475462,31.3480783 2.02125497,31.3289732 2.05657788,31.310101 C2.38154872,31.9205327 2.74066504,32.5152377 3.13745913,33.0868767 C3.0938942,33.0937499 3.03266781,33.1193787 2.98557059,33.1296302 C3.0362001,33.2084971 3.07976503,33.2966835 3.14570115,33.3616875 C3.16807233,33.3837049 3.24107302,33.350504 3.31407371,33.3330298 C3.35881608,33.3943059 3.40120358,33.4568635 3.44594594,33.5176737 C4.34314802,34.7298001 5.3675126,35.8565358 6.50020079,36.8792419 C6.46370044,36.8529142 6.42837753,36.8275183 6.39069975,36.7997926 C6.52492683,37.0784477 6.54729801,37.1859722 6.61323412,37.2435206 C7.84247162,38.3256389 9.19769419,39.3003492 10.693031,40.039624 C11.3559244,40.3710511 12.0376567,40.6686948 12.7335181,40.933953 C14.0392886,41.5235322 15.4074629,42.0087322 16.8180247,42.379651 C18.2674417,42.7604719 19.7651334,42.9653859 21.2828414,42.996024 C22.8017268,43.0267786 24.3441608,42.8789469 25.8595139,42.5584703 C27.3748671,42.2384596 28.8631393,41.7466194 30.2842979,41.1032197 C31.7078115,40.460053 33.0642115,39.6661423 34.3323042,38.7468834 C35.8158667,37.666629 37.1593149,36.3897316 38.3355681,34.9724583 C38.4109236,34.8857863 38.480392,34.7936391 38.5522153,34.7037053 L38.7641528,34.4315739 L38.9760903,34.1582775 C39.0467361,34.0668293 39.117382,33.976313 39.1833181,33.8814864 L39.5812896,33.3161381 L39.7790979,33.0321242 L39.965132,32.7407712 L40.3348451,32.1555024 C40.397249,32.0584623 40.4537656,31.9576945 40.5114597,31.8577422 L40.6833646,31.5571861 L40.854092,31.2556981 C40.9106087,31.1546972 40.9694802,31.0556768 41.0212872,30.9522296 L41.3368385,30.3350412 C41.4063069,30.1954807 41.4675333,30.0527748 41.515808,29.9044772 C41.5652601,29.7564125 41.6100024,29.60695 41.6606319,29.4597008 C41.584099,29.433606 41.5087434,29.4079772 41.4298556,29.3811834 L41.286209,29.6658962 C41.2379344,29.7607228 41.1908372,29.8555494 41.1378528,29.9478132 L40.8258337,30.5029099 C40.6221382,30.8745277 40.389007,31.2279723 40.1605854,31.5821159 C40.099359,31.6730982 40.0416649,31.7657114 39.9780837,31.8548298 L39.7873399,32.1209035 C39.6907906,32.2544063 39.5942413,32.3868606 39.4965146,32.5191985 C39.8874215,31.9039905 40.2500701,31.2711918 40.583283,30.6220839 C41.4216135,28.9824224 42.0456517,27.231625 42.456575,25.4318999 C42.4848333,25.3200651 42.5060271,25.2062499 42.5295757,25.0933666 L42.5966892,24.7535519 L42.6626253,24.4135041 C42.6838191,24.3000384 42.7061903,24.1868056 42.7226743,24.0724079 L42.8239333,23.3866042 L42.872208,23.0435276 L42.9075309,22.6984706 L42.973467,22.0081236 C42.9864188,21.8932599 42.9911285,21.7776973 42.9981931,21.6620181 L43.033516,20.9689918 C43.0370483,20.8534291 43.0464677,20.7380995 43.0452903,20.6223038 L43.05,19.9278795 C43.0488226,19.7718932 43.0394031,19.6168389 43.0158545,19.4624836 L43.0158545,19.4624836 Z" id="Fill-197"></path>
                <path d="M3.31846774,11.7373987 C3.37853688,11.7738566 3.43507253,11.8080871 3.49514167,11.8440761 C3.4468508,11.9264873 3.39855992,12.0088984 3.35144687,12.0913096 L3.31493426,12.1533232 L3.28195513,12.2166262 L3.21599686,12.3434667 C3.12765989,12.5132127 3.04050075,12.6830758 2.95216379,12.8523529 C2.88031639,12.8151916 2.80846899,12.7780304 2.73662159,12.7405175 C2.92742944,12.4026668 3.10881467,12.0612993 3.31846774,11.7373987 Z M37.1609483,22.9497744 C37.1691931,22.8025362 37.1845048,22.6567047 37.1856826,22.5093493 L37.2834422,22.4936408 C37.2952205,22.2830996 37.3117101,22.0734961 37.3164214,21.8633066 L37.2857979,21.947359 C37.2834422,21.8731537 37.2810866,21.7146617 37.2881535,21.5406955 C37.291687,21.4537125 37.2963983,21.3628609 37.3046431,21.2764639 C37.3117101,21.190067 37.318777,21.1081247 37.3317331,21.0390775 L37.3847353,21.0502142 C37.4012248,20.9768295 37.4130031,20.9043827 37.4236035,20.8326393 L37.4188922,21.0500969 L37.400047,21.3577028 L37.3823796,21.6635503 L37.372957,21.8158293 L37.3576453,21.9682255 L37.2999318,22.5732385 L37.2198396,23.1726245 C37.1727266,23.4837473 37.1173687,23.7915876 37.0572996,24.0976696 C37.0502326,24.0889947 37.0419878,24.0798509 37.0360987,24.0714105 C37.0372765,24.06086 37.0372765,24.0492545 37.0384544,24.0392901 C37.0384544,23.9866548 37.0349209,23.9425771 37.0302096,23.9090499 C37.0184313,23.8417611 36.9972305,23.8158538 36.9642513,23.8434023 C36.9512952,23.8543045 36.9348057,23.8761089 36.9183161,23.9043608 C36.9230274,23.7728312 36.9289165,23.6383708 36.9512952,23.5035588 C36.9819187,23.314353 37.0219648,23.1203409 37.0891009,22.9226947 L37.1609483,22.9497744 Z M35.915986,27.7000816 C35.9289421,27.6207184 35.9466095,27.5434652 35.9619212,27.465157 C35.9760551,27.3927102 35.9925447,27.3212012 36.0102121,27.2499266 L36.0137456,27.2481682 C36.1998421,27.0032792 36.2516665,26.829782 36.3070243,26.6235782 C36.3117356,26.6058768 36.3152691,26.587472 36.3199804,26.5690672 C36.4248069,26.3299224 36.5261,26.0880813 36.6203261,25.8426062 C36.6215039,25.8411995 36.6215039,25.8397927 36.6215039,25.838386 C36.4236291,26.4773951 36.1892417,27.1002267 35.915986,27.7000816 Z M34.9961037,29.7419564 C34.946635,29.7121806 34.9006998,29.6842803 34.8524089,29.6548561 C34.8912772,29.5878018 34.9301455,29.520513 34.9690137,29.4532242 L34.9984594,29.402699 L35.0255494,29.3510015 L35.0797294,29.2474893 C35.1515768,29.1090432 35.2234242,28.9704799 35.2940938,28.8323855 C35.3529851,28.8627475 35.4118764,28.8931095 35.4707677,28.923706 C35.3141168,29.1991915 35.1668885,29.4777248 34.9961037,29.7419564 Z M17.3369553,39.4064555 C17.2792418,39.3864095 17.2227062,39.3648396 17.1649927,39.33987 C17.0978566,39.3113837 17.0307205,39.2790288 16.9624066,39.2404608 C16.8681805,39.1885289 16.7598205,39.1521882 16.6467492,39.1279221 C16.69504,39.079507 16.7433309,39.042463 16.7975109,39.0258166 C16.8728918,39.0036605 16.9765405,38.9969786 17.0719444,39.010577 C17.1673483,39.0244099 17.2545075,39.0584059 17.2992649,39.1130341 C17.3463779,39.1719997 17.3522671,39.287352 17.3369553,39.4064555 Z M16.3452256,37.8336093 C15.6868208,37.6071251 15.0378386,37.3603604 14.4241911,37.0561541 C14.364122,37.0150072 14.3052306,36.9739774 14.2522285,36.9246245 C14.1391572,36.8226363 14.0402197,36.7078702 13.9648389,36.5729409 C13.9153702,36.4847856 13.8765019,36.3885415 13.8505897,36.281278 C14.0661319,36.4121043 14.2852076,36.538007 14.5078168,36.6562899 C14.492505,36.6553521 14.4771933,36.6548832 14.4618815,36.6535937 C14.5667081,36.8004802 14.6797794,36.9229833 14.7952064,37.0290745 C14.9106333,37.1344624 15.0284159,37.2262518 15.1532655,37.2964713 C15.2757594,37.3689181 15.400609,37.4302282 15.5242808,37.4868493 C15.5867056,37.514984 15.6491304,37.5420636 15.7115551,37.5685571 C15.7751578,37.5925888 15.8375825,37.6165033 15.9011852,37.640535 C16.0166121,37.6848471 16.1402839,37.7221256 16.2592443,37.7645621 C16.3193135,37.7854286 16.377027,37.8085225 16.4347404,37.8329059 C16.4912761,37.8558826 16.5466339,37.8816727 16.5984583,37.9120347 C16.5996361,37.9129726 16.6019918,37.9141448 16.6031696,37.9150827 C16.5171883,37.8881202 16.431207,37.861744 16.3452256,37.8336093 Z M9.57743623,34.0444533 C9.13339575,33.5839822 8.70348918,33.111554 8.31834001,32.6118116 C8.29596131,32.5745332 8.27240479,32.5377236 8.25120392,32.5000935 C8.2146913,32.4321013 8.17817869,32.3649297 8.15108869,32.2927174 C8.09573086,32.1499339 8.05921824,32.0019923 8.05097346,31.8467826 C8.04508433,31.6912212 8.06392955,31.5308535 8.13459912,31.3559496 C8.16757826,31.2734212 8.10515347,31.1450567 8.06392955,31.0483437 C8.03330607,30.9766002 8.00386041,30.9046223 7.97441476,30.8325272 L7.93201301,30.7242087 L7.8955004,30.6135456 C7.8460317,30.4658385 7.79891865,30.3176624 7.75298343,30.1700726 C7.73767169,30.1228297 7.7247156,30.0746491 7.71175951,30.0268201 C7.87665518,30.0880131 8.00268259,30.1303323 8.05097346,30.0855513 C8.09926433,30.0422942 8.14519956,29.9852042 8.18642347,29.9227218 C8.35249697,30.3163729 8.53623786,30.702756 8.73882397,31.0801124 C8.71173397,31.1166875 8.68935527,31.1572484 8.67168787,31.1994504 C8.623397,31.3131614 8.58924004,31.4245279 8.56568351,31.5334326 C8.55508308,31.5879435 8.54566047,31.6418683 8.53977134,31.695207 C8.53623786,31.7478423 8.53388221,31.799657 8.53506003,31.8508856 C8.53741569,31.978195 8.55743873,32.1014015 8.58806221,32.2216773 C8.54801612,32.1992868 8.50443655,32.1753723 8.45850133,32.1468859 C8.48676916,32.3261273 8.53270438,32.4869639 8.58806221,32.634671 C8.64459787,32.781792 8.70820049,32.9175419 8.78829267,33.0371143 C8.86485137,33.1580934 8.94847703,33.2699288 9.03445835,33.3773095 C9.07686009,33.4309999 9.12043966,33.4837524 9.16401923,33.5359188 C9.20995445,33.5863268 9.25588968,33.6367348 9.3018249,33.6870255 C9.38427273,33.7797528 9.47849883,33.8694321 9.56565797,33.9619248 C9.60923754,34.0079954 9.65163928,34.0553554 9.69050755,34.1031844 C9.73173147,34.1499583 9.7694219,34.1982562 9.80240104,34.2488986 C9.81064582,34.2619109 9.81653495,34.2753921 9.82477974,34.2885217 C9.74115407,34.2075172 9.65870624,34.12663 9.57743623,34.0444533 Z M7.57513167,29.5132449 C7.55510862,29.4344678 7.53390775,29.3559251 7.51388471,29.277148 C7.37372339,28.6774103 7.22649511,28.0932638 7.02155335,27.5097036 C6.99446335,27.4338571 6.96855117,27.3570729 6.94499465,27.2798197 C6.92143812,27.2025666 6.8978816,27.125079 6.88139203,27.0454813 C6.84723507,26.8872237 6.81778942,26.7273249 6.79069941,26.5670744 C6.76125376,26.4072928 6.74594202,26.244815 6.7270968,26.0833922 C6.71060723,25.921735 6.68822853,25.7610156 6.67056114,25.6005307 C6.64818244,25.3754532 6.60106939,25.1646775 6.50566547,24.9775819 C6.45619677,24.8841513 6.40437242,24.7957614 6.33252502,24.7146398 C6.26185544,24.6336353 6.17587413,24.5594301 6.07222542,24.4934308 C5.97799933,24.5133595 5.92146367,24.517697 5.87199497,24.5383291 C5.82134844,24.5589612 5.77423539,24.5922539 5.73183365,24.6281256 C5.68707625,24.6661074 5.64585233,24.7051443 5.60698407,24.7448846 C5.59167233,24.6073763 5.57871624,24.4695163 5.5681158,24.3311874 L5.55162624,24.0966145 C5.54691493,24.0184235 5.54691493,23.9398809 5.54455928,23.8615727 C5.54220363,23.7049562 5.53867015,23.5483398 5.5363145,23.3918406 L5.53395884,23.2797708 C5.59167233,23.3317027 5.63878538,23.360658 5.67647582,23.350342 C5.87552845,23.2961827 6.13111673,23.1178791 6.18647457,22.9473126 C6.23123196,22.81168 6.19000804,22.6989068 6.1028489,22.6207158 C6.01568977,22.542642 5.88730671,22.4995022 5.74950104,22.5095838 C5.6847206,22.5141557 5.62229581,22.5433454 5.55515972,22.587892 C5.55987102,22.4762911 5.56576015,22.3648074 5.57636059,22.2534409 C5.59167233,22.0645868 5.6081619,21.8756155 5.62347364,21.686527 C5.64349668,21.4980246 5.66823103,21.3099911 5.6894319,21.1216059 C5.69885451,21.0343884 5.59756146,20.9311107 5.54927059,20.8335771 C5.52100276,20.8313498 5.49391275,20.8293569 5.46564492,20.8271296 C5.46682275,20.8244333 5.46682275,20.8217371 5.46682275,20.8191581 C5.47860101,20.5707522 5.45622231,20.3166022 5.46328927,20.0640934 C5.50922449,19.3686978 5.54927059,18.6539595 5.73183365,17.9659492 C5.75067887,17.8904545 5.77070191,17.8151942 5.79190278,17.7402856 C5.81428148,17.665377 5.83548235,17.5903512 5.86375018,17.5174355 C5.87317279,17.4887146 5.88612888,17.4606972 5.89672932,17.4319764 C5.90968541,17.4233015 5.92146367,17.413806 5.93559758,17.4054829 C6.07811455,17.3188515 6.2418324,17.2541417 6.43028459,17.215691 C6.4891759,17.2038509 6.55042287,17.1954105 6.61402548,17.1883769 C6.60224722,17.2374953 6.59164678,17.2866138 6.57986852,17.3354978 C6.55866765,17.4308041 6.53746678,17.5258759 6.51626591,17.6209477 C6.49624286,17.7162539 6.48210895,17.8123808 6.46444155,17.9080387 C6.44795199,18.0038138 6.43028459,18.099589 6.41379503,18.1952469 L6.38906067,18.3388511 C6.37963806,18.38668 6.37139328,18.434509 6.36668198,18.4825724 C6.34194763,18.675295 6.3183911,18.8674315 6.29365675,19.0592162 L6.27598936,19.2034065 L6.2642111,19.347714 C6.25596631,19.4439581 6.24889936,19.5403194 6.2418324,19.636329 C6.22652066,19.8288171 6.20885326,20.021188 6.20649761,20.213559 C6.20178631,20.4061643 6.19589718,20.5985352 6.19000804,20.7904372 C6.19118587,20.9824565 6.197075,21.1742412 6.20060848,21.3661432 C6.20296413,21.4620356 6.20178631,21.5582797 6.20767544,21.6538204 C6.2147424,21.7493611 6.22063153,21.8449018 6.22769848,21.9402081 C6.23358761,22.035866 6.24065457,22.1314067 6.2465437,22.2268302 C6.25361066,22.3222537 6.25949979,22.4179116 6.27127805,22.5123972 C6.29365675,22.7024236 6.31603545,22.8920983 6.33841415,23.081304 C6.34783676,23.1763758 6.36432632,23.2701581 6.37963806,23.3640576 C6.39612763,23.4580744 6.41143937,23.5519739 6.42675111,23.6457562 C6.44206285,23.7397729 6.45855242,23.8336724 6.47386416,23.9274547 C6.49035373,24.0211198 6.51273243,24.1132609 6.53157765,24.2062226 C6.57280156,24.391677 6.61166983,24.5774832 6.65407157,24.7623515 C6.75300897,25.1273991 6.84252377,25.4961979 6.96383987,25.8529223 C6.98739639,25.9202111 7.01330857,25.9933612 7.04039857,26.0719039 C7.0686664,26.1499777 7.09693423,26.2342645 7.13580249,26.3200753 C7.19704946,26.4680168 7.26771903,26.6315497 7.34192208,26.8034057 C7.34663339,27.0145331 7.36194513,27.2250743 7.40788035,27.4312781 C7.53508558,28.0409802 7.70704821,28.6441175 7.91905692,29.2343598 C7.85898779,29.2453792 7.79774082,29.2674181 7.74120517,29.3021175 C7.67171342,29.3440851 7.62342255,29.4177042 7.57513167,29.5132449 Z M6.08047021,29.9911829 C5.92970845,29.8425379 5.79425844,29.6775983 5.6847206,29.5026944 C5.62700712,29.413484 5.57753841,29.3187639 5.52453623,29.2262711 L5.36906317,28.947386 L5.21594577,28.6682665 L5.07460662,28.3823477 L4.9344453,28.0963118 C4.88733225,28.0011228 4.84021921,27.9065199 4.80017311,27.8080485 L4.55047396,27.2236676 C4.54694048,27.2155789 4.54458483,27.2071385 4.54105135,27.199167 C4.6199657,27.1375051 4.70476919,27.0997578 4.79192833,27.0740849 C4.84610834,27.2421896 4.90264399,27.4017367 4.96035748,27.5482715 C4.98862531,27.6257592 5.02396009,27.6983232 5.05693923,27.7674876 C5.08991836,27.8366521 5.1228975,27.9020652 5.1546988,27.9632582 C5.22065707,28.085644 5.28543751,28.1912663 5.3478623,28.2770771 C5.33961752,28.1314801 5.3207723,27.9681817 5.2936823,27.7926916 C5.27954838,27.7047707 5.26188099,27.6145053 5.24656925,27.520723 C5.23125751,27.4264718 5.21476794,27.329876 5.19710055,27.2314046 C5.18296663,27.1581372 5.16765489,27.0829942 5.15234315,27.0078511 C5.16883272,27.0052721 5.18650011,27.0028103 5.20298968,26.9999968 C5.2713036,26.9881568 5.33608404,26.9713933 5.39615318,26.9465409 C5.39968666,26.9540435 5.40204231,26.9613117 5.40439796,26.9688142 C5.44915536,27.0835803 5.50333536,27.2045595 5.54220363,27.3248352 C5.5634045,27.3849731 5.57753841,27.4454627 5.58931668,27.5041939 C5.60227276,27.562925 5.6081619,27.6209528 5.60462842,27.6779255 C5.59520581,27.8092207 5.59402798,27.9401643 5.59873929,28.0704044 C5.60345059,28.2007618 5.6128732,28.3308847 5.63407407,28.4577253 C5.65409712,28.5852692 5.68000929,28.7119925 5.70827712,28.8380124 C5.72241104,28.9009638 5.73772278,28.9637979 5.75421235,29.0265148 L5.7789467,29.1202971 C5.78836931,29.1512453 5.79779192,29.181959 5.80839235,29.2127899 C5.88848453,29.4581478 5.9768215,29.7022162 6.07458108,29.9430022 C6.08400369,29.9664478 6.09460412,29.9898934 6.10402673,30.0134562 C6.09695977,30.0057191 6.08753716,29.9990371 6.08047021,29.9911829 Z M4.68356832,23.2641795 C4.68592397,23.1339393 4.68827962,23.0045198 4.68827962,22.8758036 C4.68945745,22.7469702 4.68592397,22.6196607 4.69299093,22.4909445 C4.69888006,22.3161578 4.69770223,22.1435984 4.69770223,21.972094 C4.69534658,21.8866349 4.70241354,21.8005897 4.70830267,21.7151306 C4.7141918,21.6295542 4.72243658,21.5443296 4.73185919,21.4596911 C4.74245963,21.3749353 4.75423789,21.2906485 4.77072746,21.207065 C4.7860392,21.1234816 4.8131292,21.0397809 4.84139703,20.9572525 C4.89793269,20.7920784 4.97449139,20.6304212 5.07696227,20.4743909 C5.07931793,20.4701707 5.08167358,20.4657161 5.08402923,20.4614959 C5.08638488,20.4865826 5.08874054,20.5115522 5.08991836,20.5366389 C5.09698532,20.6151816 5.10287445,20.6938415 5.10994141,20.7725014 C5.11465271,20.8508096 5.12525315,20.9297039 5.13232011,21.0080121 C5.14880967,21.164863 5.16176576,21.3210105 5.17001054,21.4769236 C5.17001054,21.4793854 5.1723662,21.4816127 5.17589968,21.48384 C5.14409837,21.6458489 5.11818619,21.8089129 5.11229706,21.9739697 C5.10405228,22.1060855 5.09816315,22.238553 5.09345184,22.3710204 C5.08991836,22.5036051 5.09462967,22.6365415 5.09698532,22.7691262 L5.10758576,23.1671148 L5.10994141,23.266524 L5.13114228,23.5642828 C5.1499875,23.8288661 5.16058794,24.0929804 5.18650011,24.3558053 C5.19592272,24.487335 5.20534533,24.6188646 5.21241229,24.7505115 L5.2218349,24.9481577 C5.2265462,25.013688 5.23125751,25.0793356 5.23479099,25.1451005 C5.23832447,25.2041833 5.2442136,25.2624455 5.25010273,25.3207078 C5.20652316,25.4525891 5.17825533,25.5885734 5.16647707,25.7277229 C5.16294359,25.7781309 5.16058794,25.8287733 5.16058794,25.8797674 C5.16176576,25.9304099 5.16529924,25.9815212 5.17001054,26.032867 C5.17589968,26.1022659 5.18650011,26.1722509 5.19827837,26.2425877 C5.1947449,26.2386019 5.19003359,26.2359057 5.18650011,26.2320372 C5.10876358,26.147047 5.0333827,26.0533819 4.97213574,25.9533865 C4.94269009,25.9052059 4.91560008,25.8552668 4.89439921,25.8043899 C4.88615443,25.7679321 4.87908747,25.7312397 4.87084269,25.6951336 C4.85553095,25.6199905 4.83786355,25.5468403 4.82137399,25.4736901 C4.81077355,25.394913 4.79899529,25.3160187 4.78839485,25.237476 L4.76248268,25.0395954 L4.75070441,24.9408895 C4.74717093,24.9078313 4.74481528,24.8743041 4.74245963,24.8410114 L4.71536963,24.4432573 L4.70241354,24.2459628 L4.69534658,24.1477259 L4.69416876,24.0485511 L4.68356832,23.4593639 C4.68239049,23.4268918 4.68121267,23.3947713 4.68121267,23.362182 L4.68356832,23.2641795 Z M7.22531729,20.287647 C7.23591772,20.2841301 7.24887381,20.2808477 7.25947425,20.2774481 C7.27125251,21.4285085 7.41730296,22.5785138 7.6799582,23.7013222 C7.60693298,23.2974722 7.54686384,22.9216397 7.53979688,22.5855474 C7.65640168,23.2342864 7.82129735,23.874116 8.02270563,24.5018712 C7.95674736,24.4711575 7.88961127,24.4393888 7.82011952,24.4062133 C7.62813385,23.7960423 7.47383862,23.1715695 7.36194513,22.5370151 C7.23827337,21.784295 7.19822728,21.0306371 7.22531729,20.287647 Z M7.28067512,18.1957158 C7.27831946,18.2905532 7.2618299,18.3849216 7.22767294,18.4801106 C7.24180685,18.3328724 7.25711859,18.1848137 7.27243033,18.036286 C7.27949729,18.0896246 7.28185294,18.1427289 7.28067512,18.1957158 Z M9.33951534,27.4522619 C9.36896099,27.5393622 9.39958447,27.6319722 9.43374143,27.733726 C9.39016186,27.7133284 9.35247142,27.6910551 9.31831446,27.6683129 L9.27120142,27.5945765 L9.14046271,27.3698507 L9.009724,27.1448905 C9.00736834,27.141022 9.00501269,27.1371534 9.00265704,27.1334022 C9.00265704,27.131761 9.00265704,27.1300025 9.00265704,27.1283614 C8.98970095,27.0579074 8.97674486,26.9896808 8.95201051,26.9257916 C8.97910052,26.9159445 9.00501269,26.9060973 9.03210269,26.896133 C9.1310401,27.0834631 9.23351098,27.2692692 9.33951534,27.4522619 Z M9.13692923,18.0290178 C9.27591272,18.0269077 9.38662838,18.0160055 9.47614318,17.9974835 C9.56565797,17.9788443 9.63279406,17.9528197 9.68697407,17.9208165 C9.79297843,17.8564584 9.82949104,17.7651379 9.83184669,17.6540059 C9.83184669,17.5324406 9.78002234,17.3898916 9.84362496,17.289779 C9.87895974,17.2365575 9.91076105,17.1827499 9.94256236,17.1291768 C9.92489496,17.1866184 9.90722757,17.2444118 9.890738,17.3015017 L9.97554149,17.2302272 C9.9402067,17.3557782 9.90958322,17.4905903 9.87895974,17.6275124 C9.85422539,17.7658413 9.83066887,17.9060458 9.80593452,18.0423818 C9.75175451,18.3136471 9.71288625,18.5707278 9.63043841,18.7591129 C9.54563492,18.9474981 9.56801362,19.1710516 9.60217058,19.3614297 C9.63632754,19.5522766 9.69050755,19.711472 9.69404103,19.7877874 C9.73644277,20.0061829 9.69639668,20.2078148 9.65046146,20.335007 C9.61866015,20.4335956 9.57979188,20.4855276 9.5668358,20.4611442 C9.60099276,20.9125887 9.81182365,21.3285131 9.76824408,21.9461867 C9.7199532,22.0045662 9.71759755,22.1416055 9.73879842,22.3140477 C9.7647106,22.486021 9.82006843,22.6918731 9.87071496,22.8904571 C9.95198497,23.1809477 10.0379663,23.4519785 10.033255,23.5907763 C10.006165,23.5876111 9.9802528,23.5853838 9.95316279,23.5811636 C9.76588843,23.5519739 9.60217058,23.5490432 9.45612013,23.5680341 C9.41136274,23.4138795 9.36778317,23.2589042 9.32773707,23.1033429 C9.29004664,22.9403961 9.25117837,22.7773322 9.21231011,22.6143855 C9.18286445,22.4496803 9.15224097,22.2850924 9.12161749,22.1205045 C9.08746053,21.95662 9.07214879,21.7893358 9.04859226,21.6236929 L9.01561313,21.3747009 C9.009724,21.3334367 9.00619052,21.2915863 9.00383487,21.2498532 L8.99323443,21.1245366 C8.97438921,20.9897246 8.95318834,20.8573743 8.93198747,20.7277203 C8.91903138,20.6630106 8.91432007,20.5983008 8.90607529,20.5346461 C8.89665268,20.4708741 8.8884079,20.4078055 8.88016311,20.3455575 C8.86367355,20.2208271 8.84247267,20.0989101 8.82598311,19.9800411 C8.81302702,19.8610548 8.79771528,19.7449992 8.78004789,19.6319916 C8.7988931,19.5403194 8.81538267,19.4411446 8.83187224,19.3356395 C8.85307311,19.2303689 8.87309616,19.118768 8.89194138,19.0011885 C8.90136399,18.9423401 8.9107866,18.882085 8.9202092,18.8204231 C8.93080964,18.7589957 8.93552095,18.6955754 8.94965486,18.6318035 C8.97438921,18.5039079 8.99676791,18.3709715 9.02032443,18.233346 C9.03210269,18.1646505 9.0415253,18.0945482 9.05448139,18.0238598 C9.06861531,17.9535231 9.08392705,17.8820141 9.09806096,17.8096845 C9.10512792,17.7802603 9.10983922,17.7498983 9.11572836,17.7201224 C9.12161749,17.8160148 9.12161749,17.915424 9.13692923,18.0290178 Z M9.59510362,15.8689773 L9.61041537,15.8832791 L9.59039232,15.8808173 C9.59157015,15.8769488 9.5939258,15.8730803 9.59510362,15.8689773 Z M9.85658104,29.4315371 C9.84951409,29.390859 9.84244713,29.3500637 9.83420235,29.3098546 C9.83891365,29.3083306 9.84362496,29.3068066 9.84715843,29.3053999 C9.89780496,29.3674134 9.94727366,29.4295442 9.99674236,29.4915577 C9.97436366,29.5036322 9.95198497,29.5155894 9.93078409,29.5274295 L9.85658104,29.4315371 Z M19.2002764,39.1380037 C19.3734168,39.1364797 19.5477351,39.1526571 19.7161643,39.1708275 C19.7020304,39.2021273 19.6890743,39.2337788 19.6761182,39.2678921 C19.5972038,39.4901561 19.541846,39.7196883 19.4841325,39.9498066 C19.4652873,39.8756013 19.4464421,39.7957692 19.426419,39.705152 C19.3651721,39.4333006 19.2650568,39.2496046 19.1248955,39.1737582 C19.0989833,39.1608631 19.0730712,39.1516021 19.0459812,39.1442167 C19.0966277,39.1405827 19.148452,39.1381209 19.2002764,39.1380037 Z M19.4629316,38.7660397 C19.5724695,38.7394289 19.6867186,38.7517379 19.819813,38.8292255 C19.8457251,38.8442307 19.8751708,38.8551328 19.9069721,38.8627527 C19.9034386,38.866035 19.901083,38.870138 19.8975495,38.8736548 C19.8539699,38.8706069 19.8103904,38.8674418 19.7668108,38.8645111 C19.6902521,38.8566568 19.616049,38.849037 19.541846,38.8414172 C19.4676429,38.8342663 19.3957955,38.8273498 19.325126,38.8210195 C19.3710612,38.7972223 19.4169964,38.7774108 19.4629316,38.7660397 Z M20.6654922,40.4148495 C20.6996492,40.4173113 20.7349839,40.4196558 20.7703187,40.4220004 C20.7691409,40.4232899 20.7691409,40.4245794 20.7679631,40.4258689 C20.50413,40.4951506 20.3003661,40.544269 20.1413595,40.5649011 C20.0612673,40.5762722 19.9929534,40.5768584 19.9328843,40.5691213 C19.8728152,40.5616188 19.8221686,40.5462619 19.7785891,40.5217613 C19.6914299,40.4739323 19.6313608,40.3903489 19.5795364,40.2630394 C19.5913147,40.2659701 19.6019151,40.2685491 19.6148712,40.2714798 C19.6961412,40.2878917 19.7891895,40.3021935 19.8951939,40.318371 C20.1060247,40.3493191 20.3651465,40.3855425 20.6654922,40.4148495 Z M27.1623816,37.9613877 C27.3308107,37.8729979 27.5110181,37.8019578 27.6818029,37.7364274 C27.8502321,37.6655045 28.0186612,37.5980985 28.189446,37.5323337 C28.2742495,37.4989238 28.3602308,37.4682101 28.4438565,37.4333934 L28.6959113,37.326716 C28.7960265,37.2835762 28.8973196,37.2410225 28.9986126,37.1977654 C28.9526774,37.2651714 28.9102757,37.3328119 28.8737631,37.3964666 C28.7854261,37.5506212 29.0586818,37.9156688 29.1599748,38.1890442 C29.1823535,38.2505888 29.1705753,38.323739 29.1752866,38.3917311 C28.9703448,38.5746066 28.8113383,38.7118804 28.6782439,38.8033181 C28.6122856,38.850092 28.5510387,38.881978 28.494503,38.9024929 C28.4379674,38.9232422 28.3849652,38.9329721 28.3354965,38.9314482 C28.1340882,38.9248834 27.9621256,38.73896 27.6570686,38.364417 C27.4815725,38.1498901 27.3096099,38.0323105 27.1494255,38.0291454 C27.091712,38.0289109 27.0339985,38.0412198 26.9774629,38.0694717 C27.037532,38.0314899 27.098779,37.9944459 27.1623816,37.9613877 Z M2.13357457,14.5284768 C2.11472935,14.6242519 2.09352848,14.7193237 2.06997195,14.8133405 C2.02285891,15.0020773 1.96278977,15.1867112 1.90389846,15.3725174 C1.84971845,15.5592613 1.78964932,15.7449503 1.72840235,15.9309909 C1.6989567,16.0243042 1.66479974,16.1165626 1.63888756,16.2108138 L1.56115103,16.4940363 C1.5105045,16.6834765 1.45985798,16.8731512 1.42570102,17.0655221 C1.39389971,17.2585964 1.36916536,17.4528429 1.35856492,17.6479101 C1.35385362,17.7455609 1.34678666,17.84286 1.35385362,17.9414486 C1.35856492,18.0398028 1.36680971,18.1382742 1.37976579,18.2367456 C1.4068558,18.4336884 1.44690189,18.6301623 1.51521581,18.8256984 C1.5776406,18.618674 1.64595452,18.413408 1.70602365,18.2087281 L1.79553845,17.9024117 C1.82851758,17.8010096 1.86149671,17.6997248 1.8921202,17.5983227 C1.9239215,17.497155 1.95336716,17.3961046 1.98281281,17.2948198 C2.01225847,17.1937693 2.03934847,17.0924845 2.07350543,16.9923719 C2.13710805,16.7916778 2.19599936,16.5908665 2.25135719,16.3893518 C2.27844719,16.2861913 2.31378198,16.1854925 2.34558329,16.0837388 L2.44334286,15.7800014 L2.54110244,15.4769674 L2.65064028,15.1781536 L2.76135594,14.8800431 L2.81553595,14.7311637 C2.83438117,14.6815764 2.85675986,14.6332785 2.87678291,14.5842772 L3.12177076,14.0004825 C3.46922949,13.231585 3.86262345,12.4877742 4.31373089,11.7856966 C4.77190529,11.0880736 5.27837056,10.4284325 5.84019366,9.82775693 C5.98153281,9.67876032 6.12993891,9.53574233 6.27598936,9.39213821 C6.34901458,9.32133258 6.42086198,9.2481824 6.49742069,9.18054193 L6.72827462,8.97937892 L6.96030639,8.78114661 L7.07691118,8.68326135 C7.08868944,8.67435204 7.09928988,8.66591163 7.11106814,8.65723677 C7.08162249,8.68771601 7.05099901,8.71725743 7.02155335,8.74808836 L6.66820549,9.13705039 L6.49153156,9.33282091 L6.32310241,9.53562511 L5.98506628,9.94299191 L5.66351973,10.3652467 L5.50333536,10.5774291 C5.44915536,10.647883 5.40204231,10.7224399 5.35021796,10.795004 L5.04633879,11.2340223 C4.99451444,11.3065863 4.94857922,11.3832534 4.90028834,11.4582792 L4.75777137,11.6848806 L4.61407657,11.911951 L4.54222917,12.0260137 L4.47627091,12.1425382 C4.29841915,12.4540126 4.11114478,12.7633769 3.94978259,13.0865741 C3.38324818,14.1647187 2.86618247,15.2953814 2.46572156,16.4921606 C2.06643848,17.6874159 1.78611584,18.9470292 1.69188974,20.2368873 C1.66244408,20.5333566 1.6541993,20.8336943 1.64359887,21.1367283 L1.64006539,21.3642676 L1.63888756,21.4783303 L1.64359887,21.5920413 C1.65184365,21.743617 1.66244408,21.8953098 1.67893365,22.0464165 C1.68717844,22.1219112 1.69660104,22.197406 1.70720148,22.272549 C1.71897974,22.3476921 1.72958018,22.4229524 1.74724757,22.4968059 C1.78140453,22.6452164 1.82262845,22.7922201 1.87091932,22.9368793 C1.90154281,23.028786 1.93687759,23.1194031 1.97456803,23.2093169 C1.99459108,23.8264043 2.03934847,24.4475947 2.11590718,25.0706608 C2.10412891,25.1236478 2.09706196,25.176752 2.09352848,25.2286839 C2.09235065,25.2918697 2.09823978,25.3531799 2.11119587,25.4102699 C2.15595327,25.6021719 2.20188849,25.79466 2.25017936,25.986562 C2.43627591,27.0541561 2.72484333,28.1172956 3.14650511,29.1372951 C3.25250947,29.4153596 3.37853688,29.6870938 3.50574211,29.9618759 L3.60232386,30.1667902 L3.65297038,30.2687784 L3.70832822,30.3679532 C3.78253127,30.4996001 3.8602678,30.6296058 3.94271563,30.7569152 C3.98393955,30.82057 4.02634129,30.8834041 4.06874304,30.9456521 C4.11232261,31.0074312 4.15590218,31.0696791 4.20537088,31.1273553 C4.30195263,31.2438797 4.40324568,31.3564185 4.51160569,31.4632131 C4.6199657,31.5695387 4.73185919,31.6723476 4.85553095,31.764137 C4.89204356,31.7909822 4.93208965,31.8158345 4.97095791,31.8412729 C5.18532229,32.1543885 5.40910927,32.4623461 5.64231886,32.7639734 C5.64231886,32.7857778 5.64231886,32.8066443 5.64114103,32.8292693 C5.63171842,32.9518896 5.64231886,33.0885773 5.67294234,33.2181141 C5.68825408,33.2829411 5.70827712,33.3460097 5.7341893,33.4045064 C5.7612793,33.4614791 5.79308061,33.5135283 5.83077105,33.558661 C6.00862281,33.7713124 6.18529674,33.9863082 6.37374893,34.1923948 C6.56455678,34.3942612 6.75772028,34.5946036 6.95441726,34.7936565 C7.15700336,34.9856757 7.36312295,35.1734748 7.57042037,35.3622116 C7.67171342,35.4583384 7.78242908,35.5437976 7.88961127,35.6341802 L8.21351348,35.9014597 C8.2818274,35.9559707 8.35720828,36.0013379 8.45025655,36.040492 C8.54330482,36.0807011 8.64813135,36.1219653 8.76944745,36.1787036 C8.73646832,36.0489324 8.67404353,35.9438962 8.59984048,35.8505829 C8.78004789,36.0023929 8.96143312,36.1532652 9.14870749,36.2989794 C9.14635184,36.2939386 9.14281836,36.2878428 9.14164053,36.2835053 C9.13810705,36.2815125 9.1357514,36.2796368 9.13221792,36.2790507 C9.13457358,36.2789334 9.13692923,36.2775267 9.13928488,36.2763544 C9.04859226,36.043071 8.97085573,35.7929068 8.87427398,35.4912795 C9.10983922,35.4140263 9.29475794,35.2877719 9.44787535,35.3147343 C9.45965361,35.3171961 9.4726097,35.3212991 9.48556579,35.3248159 C9.57625841,35.4205911 9.6481058,35.5292613 9.69993016,35.65153 C9.73290929,35.7222184 9.75646582,35.7987681 9.77413321,35.8793037 C9.72230886,35.9599564 9.65635059,36.0383819 9.59510362,36.094534 C9.48321013,36.198984 9.29711359,36.2207884 9.13928488,36.2763544 C9.14046271,36.2785818 9.14164053,36.2808091 9.14164053,36.2835053 C9.37720578,36.3866658 9.60688189,36.5344902 9.84362496,36.6165497 C9.84951409,36.6443327 9.85186974,36.6745775 9.8589367,36.7013054 C9.89780496,36.8456129 9.95434062,36.9774943 10.033255,37.0893296 C10.188728,37.3161655 10.4101594,37.4979859 10.6822372,37.6623394 C11.6115421,38.2079178 12.5903157,38.6796427 13.6056019,39.0720044 C13.6338697,39.086189 13.6609597,39.1001391 13.6904054,39.1144409 C13.7822758,39.1606286 13.8765019,39.2075198 13.9719058,39.2553487 C14.0684876,39.3007159 14.1686028,39.3435041 14.2698959,39.3885196 C14.4713041,39.4776128 14.6809572,39.5682299 14.8976772,39.6602538 C15.1155751,39.7458301 15.3405399,39.8280068 15.5725717,39.9132315 C15.6879986,39.9548474 15.8046034,39.998925 15.9247417,40.039017 C16.0437021,40.0762954 16.1650182,40.1140428 16.2875122,40.1520246 C16.4100061,40.1893031 16.5336778,40.2269332 16.6585274,40.2646806 C16.783377,40.3021935 16.9094044,40.3408787 17.0366096,40.3710063 C17.2933757,40.4353644 17.5536753,40.4989019 17.8175084,40.5612671 L17.9164458,40.5845954 L18.016561,40.603938 C18.0825193,40.6167159 18.1496554,40.6294937 18.2167915,40.6422715 C18.3510637,40.6671238 18.4853359,40.6920934 18.6207859,40.7171801 C18.7562359,40.7407429 18.8928637,40.7682915 19.0294916,40.7875168 C19.1661194,40.8054527 19.3039251,40.8233886 19.4417308,40.8415589 C19.5795364,40.8585569 19.7173421,40.8756722 19.8551478,40.8926702 C19.9246395,40.900759 19.9941313,40.91002 20.063623,40.9164675 L20.2720982,40.9322932 C20.5500652,40.9529254 20.8280322,40.9713301 21.107177,40.9876248 C21.385144,40.9948929 21.6642888,40.9972375 21.941078,40.9988787 C22.2178671,41.0046228 22.4923006,40.9870387 22.7655563,40.9747297 C23.0376342,40.9607796 23.3085342,40.9491741 23.5735451,40.9170536 C23.838556,40.8893879 24.1000334,40.8599637 24.3579774,40.8283121 C24.6135657,40.7875168 24.8644426,40.7450804 25.1094305,40.7011199 C25.2319244,40.6782605 25.3532405,40.659504 25.472201,40.6323072 C25.5899836,40.6047586 25.7077662,40.577679 25.8231932,40.5508338 C26.0528693,40.4955023 26.2778341,40.4425153 26.4921985,40.383198 C26.705385,40.319426 26.9115046,40.2555368 27.1082016,40.1918821 C27.207139,40.15941 27.3037207,40.1276412 27.3979468,40.0965759 C27.4909951,40.0656277 27.5805099,40.0278803 27.6688469,39.9941187 C27.8455208,39.9249543 28.0115943,39.8567277 28.1670673,39.7901422 C28.2448039,39.7560289 28.3201847,39.7230879 28.39321,39.6912019 C28.4650574,39.6586126 28.5321935,39.6220375 28.5981517,39.5885103 C28.860807,39.4520571 29.077527,39.3248649 29.2424227,39.2106849 C29.3248705,39.1545328 29.3920066,39.0976773 29.4461866,39.0448075 C29.4991888,38.992055 29.5392349,38.9434054 29.5651471,38.8992105 C29.4544314,38.9160913 29.3472492,38.9341444 29.2412448,38.9485634 C29.4037849,38.8785784 29.5663249,38.8089451 29.7276871,38.7373188 C29.9797419,38.6161052 30.229441,38.490437 30.4767845,38.3648859 C30.7264837,38.2430862 30.9632268,38.1013577 31.2011477,37.9654906 C31.4378907,37.8279824 31.673456,37.6934048 31.8960651,37.5434703 C32.1198521,37.3970528 32.3401056,37.2506352 32.5556478,37.1045692 C32.5898048,37.079248 32.6216061,37.0543957 32.655763,37.0291917 C32.6204282,37.0777241 32.5850935,37.1278976 32.5497587,37.181588 C32.6887422,37.1610731 32.8183031,37.1330556 32.9419748,37.0985906 C33.0632909,37.0620155 33.1751844,37.0171173 33.2823666,36.968116 C33.4943753,36.8696446 33.6816497,36.7504239 33.8500788,36.6185426 C34.0149745,36.483965 34.1574915,36.3319204 34.2929415,36.1770624 C34.3600776,36.0993404 34.424858,36.0202116 34.4872828,35.9403794 C34.5508854,35.8608989 34.6133102,35.7807151 34.6710237,35.6968971 C34.6262663,35.7185843 34.5826867,35.7406231 34.5367515,35.7606691 L34.3965902,35.819283 C34.3047197,35.8580854 34.2116715,35.8970051 34.1174454,35.9363936 C34.0538427,35.9639422 33.9902401,35.9939525 33.9254597,36.0236112 C34.0408867,35.9247881 34.1527802,35.8267856 34.2599623,35.7286659 C34.4225024,35.5738079 34.5767976,35.4224667 34.7240259,35.2753458 C34.7970511,35.201375 34.8688985,35.1289282 34.9395681,35.0581225 C35.0090598,34.9871997 35.0726624,34.9126428 35.136265,34.8419544 C35.2622924,34.6996398 35.3800751,34.5624832 35.4884351,34.4316569 C35.5426151,34.3657748 35.5944394,34.3018856 35.645086,34.2399893 C35.6957325,34.1778586 35.7393121,34.1142038 35.7828916,34.0540659 C35.9572099,33.8119904 36.0926599,33.5991046 36.1880638,33.4219733 C36.2375325,33.3341697 36.2716895,33.2524619 36.2964239,33.1807184 C36.3199804,33.1090922 36.3341143,33.0473131 36.3376478,32.996319 C36.2233986,33.0780268 36.1173943,33.1605552 36.0055008,33.234526 C35.8947851,33.308614 35.7852473,33.381178 35.6792429,33.4525698 C35.5720607,33.5223204 35.468412,33.5910159 35.3647633,33.6586564 C35.2622924,33.7258279 35.1621772,33.7919445 35.0585285,33.8521996 C34.6462893,34.0961507 34.2693849,34.3280274 33.8724575,34.5332934 C33.7935432,34.5747921 33.7240514,34.706439 33.7158066,34.7997523 C33.6840053,35.1588213 33.5049757,35.4216461 33.2906114,35.6578603 C33.1822514,35.7753226 33.0656466,35.8879785 32.9466861,35.9964143 C32.8265478,36.1028572 32.7052317,36.2096518 32.5956939,36.3253557 C32.4437543,36.4847856 32.2941704,36.6018962 32.1257412,36.6457394 C31.9573121,36.6879414 31.774749,36.6632064 31.5674516,36.5493781 C31.4084451,36.4616917 31.2482607,36.4091736 31.0892542,36.3827973 C31.009162,36.3695506 30.9302476,36.3629858 30.8513333,36.3616963 C30.7724189,36.3606413 30.6935046,36.3652132 30.6134124,36.3706056 C30.5698328,36.3741225 30.5262532,36.3818595 30.4814958,36.3878381 C30.9632268,36.0799978 31.4272903,35.7449606 31.8748643,35.3867122 C31.6958347,35.4605658 31.4826481,35.5623196 31.2494385,35.6872845 C31.1328337,35.7517598 31.0056285,35.8121321 30.8760676,35.8801243 C30.7453289,35.9474131 30.6110567,36.0189221 30.4720732,36.0938307 C30.3330897,36.1667464 30.1870393,36.2366142 30.0409888,36.3122262 C29.9679636,36.3497391 29.8937606,36.3878381 29.8195575,36.4261716 C29.7818671,36.4450453 29.7453545,36.4653257 29.707664,36.4836133 C29.6699736,36.5015491 29.6311053,36.5196022 29.5934149,36.5376553 C29.4402975,36.6101021 29.2860022,36.6840729 29.1328848,36.7589815 L29.0174579,36.8152509 C28.9797674,36.8334212 28.9397213,36.8499503 28.9008531,36.8674173 C28.8231165,36.902234 28.74538,36.9369334 28.6676435,36.9713984 C28.5910848,37.0064495 28.5145261,37.0412662 28.4379674,37.0758484 C28.3614087,37.1101962 28.2860278,37.1470057 28.2094691,37.1771333 C28.0563517,37.2403191 27.9067677,37.3031532 27.7607173,37.3654012 C27.6888699,37.3967011 27.6170225,37.4274148 27.5463529,37.4577768 C27.4745055,37.485677 27.403836,37.5132256 27.335522,37.5403052 C27.1977164,37.5946989 27.0657998,37.6483893 26.9421281,37.7009074 C26.4391963,37.897264 26.0493358,38.066541 25.8726619,38.1877547 C25.9986893,38.3140091 26.1164719,38.4202175 26.2483884,38.4528068 C26.380305,38.482231 26.5263554,38.4389739 26.7030294,38.2732138 C26.7654541,38.2147171 26.8349459,38.1625507 26.9067933,38.1149562 C26.8361237,38.1700532 26.7678098,38.2524644 26.7018515,38.3662927 C26.6724059,38.4170523 26.6417824,38.4635918 26.6099811,38.5081384 C26.6052698,38.4970017 26.6005585,38.4858651 26.5958472,38.4747284 C26.4533302,38.5237297 26.3096354,38.5727309 26.1659406,38.6218494 L26.0587584,38.6583073 L25.9492206,38.6903105 L25.7301449,38.7537307 C25.7395675,38.7824516 25.7478123,38.8116413 25.7572349,38.8407138 L25.9845554,38.7947605 L26.0976267,38.7710805 L26.210698,38.7428286 C26.2978571,38.7205553 26.3850163,38.6981647 26.4733532,38.6757742 C26.3543928,38.7994496 26.2236541,38.8894806 26.0787815,38.9475084 C25.9574654,38.998737 25.8267267,39.0322641 25.688921,39.0532479 C25.6206071,39.0637984 25.5487597,39.0710666 25.4769123,39.0758729 C25.403887,39.0812654 25.329684,39.0833755 25.2519475,39.0799759 C25.0988301,39.0758729 24.93629,39.1106896 24.7784613,39.1693035 C24.699547,39.1986105 24.6218104,39.2338961 24.5476074,39.2732846 C24.4734043,39.3124387 24.4039126,39.3574542 24.3367765,39.3988356 C24.163636,39.5104366 23.9987404,39.5973024 23.8303112,39.62743 C23.7466856,39.6425524 23.6618821,39.6434902 23.5747229,39.6262577 C23.5429216,39.6196929 23.5099425,39.609963 23.4769634,39.5978885 C23.4428064,39.567761 23.4086494,39.5388057 23.3721368,39.5123122 C23.3073564,39.4640143 23.2402203,39.4215779 23.1695507,39.3842994 C23.100059,39.3472554 23.0282116,39.3152522 22.9540085,39.2833662 C22.9280963,39.2728157 22.9021842,39.2650787 22.876272,39.255466 C23.4380951,39.2014239 23.9975625,39.1164337 24.5523187,39.0027227 C24.3591552,38.9866625 24.12359,38.9796288 23.8597569,38.983849 C23.7278403,38.9883037 23.5865012,38.9837318 23.4404507,38.9846696 C23.3603586,38.9847869 23.2767329,38.9856074 23.1919294,38.9866625 C23.2225529,38.9463361 23.2543542,38.9060097 23.2837999,38.8655661 C23.2095968,38.9027274 23.1365716,38.9411781 23.0611907,38.9740019 C23.065902,38.9789255 23.0694355,38.983849 23.072969,38.9888898 C23.0435233,38.989476 23.0152555,38.9897104 22.9858098,38.9904138 C22.8291589,38.9915861 22.6677968,38.9867797 22.5029011,38.9871314 C22.4216311,38.9871314 22.3380054,38.9871314 22.2555576,38.9871314 C22.2131558,38.986897 22.1719319,38.9881865 22.1295302,38.9870142 C22.0871284,38.9857247 22.0459045,38.9842007 22.0035028,38.9826768 C21.8338958,38.977167 21.6642888,38.9725952 21.493504,38.9690783 L21.3662988,38.9666165 C21.323897,38.9650926 21.2814953,38.9618102 21.2390936,38.9594656 C21.1542901,38.9547765 21.0694866,38.9500874 20.9846831,38.9453983 C20.9681935,38.9445777 20.951704,38.9437571 20.9352144,38.9428193 C20.9340366,38.9422331 20.9340366,38.9412953 20.9328587,38.9404747 C20.8527666,38.860877 20.7714966,38.8003874 20.6914044,38.7547858 C20.7926974,38.7416563 20.8928127,38.7309885 20.9929279,38.7200864 C21.1213109,38.7082463 21.2485162,38.7027366 21.3757214,38.7023849 C21.439324,38.7021505 21.5029266,38.7033228 21.5665292,38.7055501 C21.6301319,38.7083636 21.6937345,38.7070741 21.7573371,38.7096531 C21.8857201,38.7135216 22.0129254,38.7216103 22.1401306,38.732747 C22.2037332,38.7381394 22.2685137,38.7444697 22.3321163,38.7515034 C22.3957189,38.7583026 22.4604993,38.761585 22.524102,38.7675636 C22.652485,38.7785831 22.7820459,38.7915953 22.9116068,38.8055455 L23.1059481,38.8267637 C23.1707285,38.8335629 23.235509,38.8367281 23.3014673,38.8418861 C23.2944003,38.8492715 23.289689,38.8574774 23.2837999,38.8655661 C23.2979338,38.858298 23.3120677,38.8509126 23.3273794,38.8435273 L23.3108899,38.8286393 C23.4710742,38.7715494 23.6571708,38.777528 23.8432673,38.7302852 C24.028186,38.67976 24.2107491,38.5682763 24.3532661,38.2940803 C24.2449061,38.2973627 24.1447908,38.2984177 24.0505647,38.2988867 C24.0034517,38.2990039 23.9575165,38.2992383 23.9139369,38.2993556 C23.8691795,38.2999417 23.8267777,38.29959 23.784376,38.2975972 C23.6159469,38.2920874 23.4663629,38.290329 23.3156012,38.3027552 C23.2413981,38.3086166 23.1660172,38.3171742 23.0918142,38.326318 C23.0164333,38.3327655 22.9410524,38.340737 22.8656716,38.3490602 C22.7149098,38.3660582 22.5629702,38.3852836 22.4122085,38.4005232 C22.2614467,38.4140044 22.110685,38.4154112 21.9622789,38.4109565 C21.8880758,38.4082603 21.8138728,38.4028678 21.7408475,38.3941929 C21.6678223,38.3857525 21.5959749,38.3735608 21.5253053,38.3531632 C20.9729048,38.2089729 20.4511278,38.0856492 19.921106,38.0541149 C19.7891895,38.0461434 19.6549173,38.0457917 19.5194673,38.0543493 C19.4523312,38.0596246 19.3840173,38.0634931 19.3157034,38.0693545 C19.2485673,38.0755676 19.1790755,38.0841252 19.1095838,38.0951446 C18.9706003,38.1173007 18.8280833,38.1495384 18.6820329,38.1927954 C18.5359824,38.2327701 18.3863985,38.2805991 18.2321032,38.3423782 C18.2686159,38.0563422 18.2038354,37.8985535 18.0872306,37.803599 C18.0295171,37.7578801 17.9600254,37.7234151 17.8834667,37.6955149 C18.0448289,37.7169676 18.2061911,37.738303 18.3663754,37.7630381 C18.4229111,37.7728853 18.4806246,37.7779261 18.5383381,37.7842564 L18.7103007,37.8025439 L19.0530481,37.8411119 C19.1672973,37.8572893 19.2815464,37.8624473 19.3957955,37.8752252 C19.5100447,37.886948 19.623116,37.9003119 19.7361873,37.9166066 C20.1908282,37.9724071 20.63958,38.0590385 21.0953988,38.2149515 C21.1472231,38.2334735 21.2025809,38.2449618 21.2579388,38.2519955 C21.3132966,38.2594981 21.3698323,38.2617254 21.4275458,38.2585603 C21.5417949,38.2539884 21.6583997,38.2405072 21.771471,38.2371076 C22.3768737,38.2251503 22.9787429,38.1407463 23.5770786,38.0489569 L24.0234747,37.9649045 C24.1718808,37.9370043 24.3214648,37.9125036 24.468693,37.8774525 C24.6159213,37.8449804 24.7643274,37.8137978 24.9127335,37.7839047 L25.024627,37.7616314 L25.1341648,37.7353723 L25.3555962,37.6844955 L25.5923392,37.6316257 L25.7112997,37.6051322 C25.750168,37.5962229 25.7890362,37.5846173 25.8279045,37.5744185 L26.2978571,37.4476952 L26.4156398,37.4158092 C26.454508,37.4047898 26.4921985,37.3916603 26.5310667,37.379703 L26.9963081,37.2314098 L27.1129129,37.1941313 C27.1506033,37.1808846 27.1882938,37.1662311 27.227162,37.152281 L27.6865142,36.9823006 L27.8007634,36.9395124 L27.9138347,36.8919179 L28.1399773,36.79626 L28.3672978,36.6998987 C28.4049882,36.683604 28.4426787,36.6678955 28.4803691,36.6511319 L28.5910848,36.5980277 L29.0351253,36.3836179 C29.6205049,36.0821079 30.1988176,35.754456 30.7441511,35.3718243 L30.9502707,35.2305647 C31.0197624,35.1837908 31.0845429,35.13139 31.151679,35.0819198 L31.550962,34.7780652 C31.6817008,34.6731463 31.8077282,34.5638899 31.9361112,34.4558058 L32.1280969,34.2923902 C32.1905217,34.2361208 32.2517686,34.1783275 32.3130156,34.121003 C32.4425765,33.9988516 32.574493,33.8775208 32.7016983,33.7524387 L33.0750692,33.3662901 C33.2010966,33.2389806 33.3153457,33.1013551 33.435484,32.967012 C33.5520888,32.8310277 33.6745827,32.6985602 33.7841205,32.5560112 L34.1221567,32.1329358 C34.2316945,31.9892145 34.3353432,31.8417418 34.4425254,31.6955587 C34.4955276,31.622174 34.5497076,31.5493755 34.6027098,31.4751703 L34.7534715,31.2488033 L34.9042333,31.0216157 C34.953702,30.9454176 35.0067042,30.8710952 35.0526394,30.7924353 L35.3364955,30.3245789 L35.4083429,30.2072338 L35.4743012,30.0873097 L35.6085733,29.8471098 C35.7923142,29.5289534 35.950143,29.1971986 36.1197499,28.8677883 C36.1998421,28.7010903 36.275223,28.5322822 36.3541373,28.3638257 L36.4707421,28.1103791 L36.5791021,27.8529467 C36.6497717,27.6806218 36.7263304,27.508883 36.7958222,27.3347996 C36.8629583,27.1590751 36.9300944,26.9833505 36.9972305,26.8078604 C37.0714335,26.6235782 37.0785005,26.418195 37.1138352,26.2201971 C37.0325652,26.4172572 36.9560065,26.6134966 36.8653139,26.8055158 C36.8452909,26.8493591 36.8264457,26.8924989 36.8064226,26.9362249 L36.9560065,26.4521911 C37.0125422,26.2806867 37.0537661,26.1051966 37.0997013,25.9306443 C37.1432809,25.7556231 37.1939274,25.5814225 37.2280844,25.4039396 L37.3388001,24.8719596 C37.372957,24.6937732 37.400047,24.5141801 37.4306705,24.3348215 C37.4448044,24.2451422 37.4601162,24.1553457 37.4742501,24.0651974 L37.5402083,23.5224325 C37.5508088,23.4316981 37.5649427,23.341081 37.5708318,23.2498777 L37.6144114,22.7023064 L37.6261897,22.5650325 L37.643857,22.152156 C37.6650579,21.7839433 37.657991,21.4157306 37.6627023,21.0442356 C37.6591688,20.8590155 37.650924,20.6737955 37.6462127,20.4875205 L37.6367901,20.2076976 L37.6179449,19.928578 C37.6049888,19.742303 37.5955662,19.5545039 37.5802544,19.3672911 C37.5614092,19.1798437 37.542564,18.9925136 37.5237188,18.8051835 C37.508407,18.6064823 37.4224257,18.4204416 37.3658901,18.2274846 C37.3812018,18.4406048 37.4012248,18.6506772 37.4059361,18.8634457 C37.4141809,19.0753937 37.4247814,19.2848799 37.4318483,19.4941316 C37.4330262,19.7027972 37.4353818,19.9116972 37.4365596,20.1205973 C37.4365596,20.1725292 37.4389153,20.2241095 37.4377375,20.2760414 L37.4377375,20.2955012 C37.4283148,20.1714742 37.4165366,20.0475643 37.400047,19.9224822 C37.3352666,19.5492287 37.2457518,19.1658936 37.1680153,18.7150353 L37.291687,18.8186647 C37.3541118,18.4913645 37.12208,18.7572373 37.1103018,18.3831632 L37.2398627,18.3414301 C37.17626,18.2630046 37.1444587,18.1961848 37.1326805,18.1352263 C37.2634192,17.898426 37.3870909,17.6781549 37.3317331,17.4958655 C37.298754,17.3739486 37.2740196,17.252735 37.25753,17.1314041 C37.2563522,17.1197986 37.2551744,17.1083102 37.2539966,17.0967047 C37.2551744,17.097408 37.25753,17.0984631 37.2587079,17.0991665 C37.25753,17.0965875 37.2551744,17.0942429 37.2528187,17.0916639 C37.2398627,16.983697 37.2327957,16.8753785 37.2221953,16.7679978 C37.20335,16.5263912 37.2068835,16.2832606 37.217484,16.0377854 C37.217484,15.5510554 37.2457518,15.0507269 37.1385696,14.5699754 C36.9819187,13.8225306 36.7722656,13.0832918 36.5119661,12.3596442 C36.5861691,12.3462802 36.6603722,12.3190834 36.7298639,12.2765296 C36.8146674,12.2250666 36.8747365,12.1349184 36.9336278,12.0178078 C36.9583622,12.1142863 36.9842744,12.2105304 37.0090087,12.3072433 C37.1797935,13.0423792 37.3611788,13.7585242 37.6120557,14.4739658 C37.6462127,14.5669275 37.6768362,14.6609443 37.7062818,14.7555471 C37.7357275,14.8505017 37.7639953,14.9454563 37.7840184,15.0428726 C37.8264201,15.237002 37.8617549,15.4330069 37.894734,15.6294808 C37.9312466,15.8252513 37.9500919,16.0245387 37.9724706,16.2224193 C37.9936714,16.4204172 38.0195836,16.6174772 38.0431401,16.8143028 C38.0702301,17.0901399 38.1279436,17.3486273 38.2445484,17.5780423 C38.3057954,17.6926911 38.369398,17.8010096 38.4565571,17.9003016 C38.5437163,17.9997109 38.6497206,18.0906797 38.7769259,18.1715669 C38.891175,18.1470663 38.9606667,18.141791 39.0219137,18.116587 C39.0831607,18.0910314 39.1408742,18.0503533 39.1926985,18.0065101 C39.2480563,17.9597362 39.2987029,17.9119072 39.3458159,17.8632576 C39.3646611,18.0318313 39.3811507,18.2008739 39.3941068,18.3703854 L39.4153077,18.6579453 C39.420019,18.7539549 39.420019,18.8500817 39.4223746,18.9460914 C39.4259081,19.1381106 39.4294416,19.3301298 39.4329751,19.5219146 L39.4353307,19.6593056 C39.365839,19.5957681 39.3069477,19.5602481 39.2610124,19.5729087 C39.0172024,19.6392597 38.7027228,19.8577724 38.6355867,20.0667897 C38.5814067,20.233136 38.6320532,20.3714649 38.7380576,20.4673573 C38.8452398,20.562898 39.0030685,20.6160022 39.1714976,20.603576 C39.2515898,20.5979491 39.3281485,20.5621946 39.4094185,20.5075664 C39.4047072,20.6443713 39.3976403,20.7811762 39.3835064,20.9175122 C39.3646611,21.1490373 39.3446381,21.3806795 39.3257929,21.6125562 C39.3022364,21.8436123 39.2716129,22.0740823 39.2457007,22.3050212 C39.2339224,22.411933 39.3575942,22.5386563 39.4176633,22.6581115 C39.4518203,22.6606905 39.4847994,22.6633867 39.5189564,22.666083 C39.5189564,22.6692481 39.5189564,22.6725305 39.5189564,22.6759301 C39.5036446,22.9802536 39.5319125,23.2919625 39.521312,23.601444 C39.4659542,24.453925 39.4164855,25.330086 39.1938763,26.1736577 C39.1703198,26.2661505 39.1455855,26.3582916 39.1184955,26.4501982 C39.0925833,26.5419876 39.0654933,26.6340115 39.0325141,26.7234563 C38.9665559,26.9032839 38.8970641,27.0819391 38.8252167,27.2594221 L38.7145011,27.5250604 C38.6768106,27.6130985 38.6332311,27.6989093 38.593185,27.7857752 C38.5095593,27.958569 38.4271115,28.1313629 38.3446636,28.3040395 L38.2692828,28.4610076 L38.1880128,28.6148106 L38.0219393,28.921127 C37.9100458,29.1245173 37.8016858,29.3296661 37.678014,29.525671 C37.5566979,29.7233172 37.4353818,29.9210806 37.3152435,30.118844 C37.190394,30.3140284 37.0608331,30.5053442 36.9348057,30.6995908 C36.8759144,30.7895046 36.9289165,30.9590161 36.9300944,31.0933592 C37.0078309,31.1417743 37.0879231,31.1907755 37.1656596,31.2389562 C37.4601162,30.8642959 37.7993301,30.5131985 38.0325397,30.0922333 C38.1126319,29.9522632 38.1915462,29.8108864 38.2692828,29.6684546 C38.2975506,29.617226 38.3222849,29.5647079 38.3481971,29.5124243 C38.3317076,29.5710382 38.3163958,29.631645 38.3022619,29.6944792 C38.2716384,29.8185062 38.2480819,29.9514426 38.2315923,30.0956329 C38.3458415,30.0139251 38.4494902,29.9291693 38.5437163,29.8421863 C38.6355867,29.7539137 38.7156789,29.6622415 38.7887041,29.5696315 C38.9347546,29.3840598 39.0478259,29.192275 39.1385185,28.997794 C39.2268555,28.801789 39.2857468,28.6007432 39.3363933,28.4008697 C39.3623055,28.3006399 39.3846842,28.2004101 39.4047072,28.1002975 C39.4259081,28.0004194 39.4459311,27.9003068 39.4600651,27.7987875 C39.4294416,27.8387622 39.3999959,27.8787369 39.3681946,27.9177737 L39.270435,28.0338293 C39.2056546,28.110848 39.1396963,28.1881012 39.0737381,28.2661749 C38.9429994,28.4224397 38.8181498,28.5835107 38.7050785,28.7599387 C38.7050785,28.7608765 38.7039006,28.7618143 38.7039006,28.7627521 L38.7415911,28.680341 L38.8829302,28.3434281 C39.006602,28.0436765 39.1385185,27.7484967 39.2551233,27.4471039 C39.3163703,27.2975212 39.3787951,27.1485245 39.4423977,27.0007002 L39.5401572,26.7794912 C39.5707807,26.7049343 39.602582,26.6307291 39.6343833,26.5567583 C39.7168312,26.3646219 39.7875008,26.1701408 39.8452142,25.9748392 C39.8593481,25.9260724 39.8734821,25.8771884 39.887616,25.8283044 C39.8982164,25.7789515 39.9088169,25.7294813 39.9194173,25.6798939 C39.9394403,25.5808364 39.9571077,25.4817789 39.9724195,25.3827213 C40.0042208,25.1843718 40.0265995,24.9864912 40.0407334,24.7890795 C40.0500224,24.5900266 40.0513338,24.3917942 40.0489782,24.194617 C40.0478003,24.0960284 40.0454447,23.9977914 40.043089,23.8997889 L40.0383777,23.7531369 C40.0360221,23.7043701 40.0313108,23.6550172 40.0277773,23.6061331 C40.0112877,23.4114177 39.995976,23.2170539 39.9794864,23.0222212 C39.9712416,22.9259771 39.9641747,22.8294986 39.9559299,22.7330201 C39.9500408,22.6370105 39.9359069,22.5402975 39.9276621,22.4441706 C39.9088169,22.2520342 39.8923273,22.0606011 39.8817268,21.8694024 C39.8817268,21.8664717 39.8793712,21.8636583 39.8746599,21.860962 C39.9135282,21.662378 39.9453295,21.4625045 39.9535742,21.260052 C39.9629969,21.0980431 39.9700638,20.9356826 39.9759529,20.773322 C39.9806642,20.6109614 39.9735973,20.4480147 39.9712416,20.2853024 L39.9594634,19.7974001 L39.9547521,19.6756003 L39.9300177,19.3105528 C39.907639,18.9863005 39.8935051,18.6623999 39.8628816,18.3401406 C39.8499255,18.1789523 39.8393251,18.0176467 39.8299025,17.8563412 L39.8181242,17.6141484 C39.8122351,17.5338474 39.8075238,17.4533118 39.8028125,17.3726591 C39.7981012,17.300095 39.7910342,17.2288205 39.7839673,17.1574287 C39.8381473,16.9956543 39.8711264,16.8289563 39.8852603,16.6583897 C39.8911495,16.5966106 39.8935051,16.5344799 39.8935051,16.4719974 C39.8923273,16.4098667 39.887616,16.3471498 39.8829047,16.2843156 C39.8699486,16.1585301 39.8511034,16.0315724 39.8251912,15.9040285 C39.799279,15.7763673 39.7662999,15.6482373 39.7297873,15.5198728 C39.6920968,15.3916255 39.6426281,15.2645505 39.5943373,15.1368894 C39.5389794,14.9960987 39.474199,14.8479227 39.4259081,14.7005673 C39.3999959,14.6269482 39.3823285,14.5526257 39.3670168,14.4806478 C39.3528829,14.4085527 39.3458159,14.3373954 39.3493494,14.267762 C39.3599498,14.106691 39.3623055,13.946206 39.3564164,13.7864244 C39.3505272,13.6266429 39.3399268,13.467213 39.3128368,13.3116516 C39.2881024,13.1553869 39.257479,13.00006 39.2221442,12.8454364 C39.2044768,12.7683005 39.1856316,12.6912818 39.1656085,12.6144976 L39.134985,12.499497 C39.1243846,12.461398 39.1114285,12.4240023 39.0996502,12.3861377 C39.0007128,12.0852138 38.8923528,11.7860483 38.7733924,11.4909858 C38.647365,11.1988539 38.5189819,10.9076599 38.3953102,10.6141214 C38.206858,10.206989 37.9524475,10.036657 37.5543423,10.2202358 C37.5201853,10.1509541 37.4860283,10.0813208 37.454227,10.0115702 C37.4200701,9.94275745 37.3859131,9.87417916 37.3517561,9.80571809 C37.28462,9.66809258 37.2198396,9.52988094 37.156237,9.3916693 C37.0325652,9.11278422 36.8912261,8.84679422 36.7475313,8.58385213 C36.7110187,8.51832176 36.6745061,8.45337753 36.6368156,8.38913666 C36.5991252,8.32454411 36.5602569,8.26077216 36.5178552,8.20016535 C36.4342295,8.07766224 36.3458926,7.95844151 36.2528443,7.84367544 C36.1586182,7.72914382 36.0608586,7.61848072 35.9548543,7.5148513 C35.8453164,7.41403534 35.7287116,7.319198 35.603862,7.23198048 C35.5626381,7.39867849 35.5685273,7.53618677 35.6333077,7.6297346 C35.6910212,7.7075739 35.7440234,7.78834389 35.7982034,7.86887943 C35.8523834,7.94929774 35.9053856,8.02959882 35.9572099,8.1107205 C36.0090343,8.19172495 36.058503,8.27343276 36.1044382,8.35619563 C36.1503734,8.43942741 36.1951308,8.52183859 36.2269321,8.61034563 C36.295246,8.78548405 36.3411813,8.96671831 36.349426,9.15697913 C36.3576708,9.34782608 36.3341143,9.54441719 36.248133,9.75870972 C36.2080869,9.85999459 36.2846456,10.0171971 36.3352921,10.135949 C36.3718047,10.2237526 36.4083173,10.3120252 36.4436521,10.400415 L36.4954765,10.5332342 L36.5414117,10.668984 C36.6014808,10.8501011 36.6591943,11.0315698 36.7145522,11.2125696 C36.7333974,11.2704802 36.7498869,11.329563 36.7663765,11.3882942 C36.5637904,11.3130339 36.4094952,11.2613364 36.349426,11.316199 C36.2917126,11.3693033 36.2351769,11.4391711 36.1845304,11.5157208 C35.9807664,11.033211 35.7546238,10.5594932 35.5072803,10.0969121 C35.5390816,10.052131 35.5673494,10.002192 35.5897281,9.95061172 C35.6474416,9.8112278 35.6910212,9.67477457 35.7181112,9.54113481 C35.7322451,9.47431494 35.7428455,9.40819842 35.7510903,9.34278528 C35.7558016,9.27854441 35.7581573,9.21488969 35.7569795,9.15205556 C35.7546238,8.99590805 35.7298894,8.84480134 35.6910212,8.69756315 C35.7416677,8.72487724 35.7934921,8.75430144 35.8500277,8.78923534 C35.8158708,8.5694331 35.7593351,8.37225585 35.692199,8.19113881 C35.6227073,8.01084236 35.5437929,7.84437881 35.4472112,7.69784398 C35.3518072,7.54955074 35.2505142,7.41251138 35.1445098,7.2808645 C35.0926855,7.21498244 35.0385055,7.15027266 34.9855033,7.08626625 C34.9289676,7.02448717 34.8736098,6.96282532 34.8170741,6.90104624 C34.7146033,6.78756967 34.6003541,6.67737549 34.4931719,6.56401615 C34.4401697,6.50762955 34.3883454,6.44948453 34.3400545,6.39098783 C34.289408,6.33366341 34.2434728,6.27446334 34.2034267,6.21221535 C34.0444201,5.96357506 33.984351,5.66722304 34.1622028,5.2512986 C34.1940041,5.17803119 34.1457132,5.03419261 34.0832884,4.96526263 C33.9407714,4.80536383 33.8029658,4.63655572 33.659271,4.47314008 C33.5143983,4.31253792 33.3589253,4.16318963 33.1940296,4.03212888 C32.8665939,3.76637333 32.466133,3.61104642 31.9808686,3.66825361 C31.9007764,3.67833521 31.8242177,3.68583779 31.7511925,3.68642393 C31.6769895,3.68865126 31.6063199,3.68396215 31.5391838,3.66790193 C31.510916,3.66121994 31.483826,3.65113835 31.4579138,3.63988447 C31.4202233,3.61596999 31.3837107,3.59639294 31.3483759,3.57880876 C31.2906625,3.53555168 31.2353046,3.47728943 31.1846581,3.39874677 C31.1045659,3.27425078 30.9243585,3.18656435 30.7688854,3.15667124 C30.6039898,3.12068229 30.4449832,3.0769563 30.2918658,3.02607941 C30.1375706,2.97508529 29.9915201,2.91541631 29.843114,2.85832635 C29.6958858,2.79912628 29.5533688,2.73347868 29.4143853,2.66232137 C29.3437157,2.6266841 29.2754018,2.58975732 29.2070879,2.55154104 C29.138774,2.51273862 29.0692822,2.47839086 29.0009683,2.43970567 C28.8631626,2.36385924 28.7288904,2.28355816 28.5957961,2.19962302 C28.52866,2.15765544 28.4627017,2.11475005 28.3955656,2.07114128 C28.3296074,2.02764975 28.2612934,1.98814396 28.1941573,1.94535579 C28.0598852,1.86118619 27.9267908,1.77443758 27.7925186,1.68651668 L27.5911103,1.55369752 C27.5239742,1.5098543 27.4544825,1.46976237 27.3861686,1.42756035 C27.396769,1.42310569 27.4061916,1.41677538 27.4179699,1.41126567 C27.3979468,1.41126567 27.3791016,1.41114845 27.3590786,1.41114845 L27.3579007,1.41103122 L27.3673233,1.43646966 C27.1612038,1.40868666 26.9609733,1.29755465 26.732475,1.24480212 C26.5027989,1.19626978 26.2413215,1.21490901 25.9362645,1.43482847 C26.0564028,1.49238735 26.1671184,1.54748444 26.2695893,1.5998853 C26.3214137,1.62602711 26.3708824,1.65146555 26.4191732,1.67620063 C26.4674641,1.70034957 26.5145772,1.72496742 26.5593346,1.75075755 C26.7407198,1.85122182 26.9044376,1.93785321 27.0740446,2.00854161 C27.1588481,2.04406165 27.2460072,2.07676822 27.3331664,2.10888865 C27.4179699,2.14405701 27.505129,2.17781863 27.5922881,2.21099412 C27.6240895,2.22318581 27.6570686,2.23549474 27.6888699,2.24756921 C27.7159599,2.28179974 27.7454056,2.31134116 27.7807403,2.32986316 C27.8655438,2.37323747 27.9491695,2.42071475 28.033973,2.46784035 C28.1175986,2.5147315 28.2012243,2.56197432 28.2836721,2.61050666 C28.36612,2.65903899 28.44739,2.70909528 28.5251265,2.76173059 C28.602863,2.81506927 28.6794217,2.86817349 28.7477357,2.9321799 C28.8867192,3.05714479 29.0080353,3.19793545 29.1010835,3.36334396 C29.1611527,3.47142804 29.2082657,3.58924204 29.2412448,3.72065447 C28.9762339,3.56052121 28.7076896,3.40624935 28.4344339,3.26112126 C28.4544569,3.26217631 28.4721243,3.26276245 28.4921474,3.26440364 C28.3625865,3.08434166 28.2247808,2.93429 28.0834417,2.80404985 C27.9409247,2.67498198 27.7960521,2.56244323 27.6441125,2.47639799 C27.4933507,2.38742204 27.3414112,2.31227899 27.1882938,2.24299732 C27.1117351,2.2084151 27.0351763,2.17523962 26.9597955,2.14288473 C26.8820589,2.11334331 26.8043224,2.08391912 26.7265859,2.05449493 C26.5852467,2.00021843 26.4333072,1.95449957 26.2872567,1.90256762 C26.2142315,1.87689472 26.1423841,1.84864281 26.0728923,1.81874971 C26.0034006,1.79061502 25.9350867,1.75884627 25.8714841,1.72180227 C25.6182514,1.57327457 25.4333327,1.33623985 25.4062427,0.883857543 C25.4003536,0.804377056 25.2943492,0.697699706 25.2083679,0.664758678 C25.0093153,0.587739976 24.8102626,0.50052245 24.6100322,0.420455823 C24.4086239,0.34402326 24.2036821,0.282009723 23.9975625,0.241097201 C23.9952069,0.240511062 23.9928512,0.240393834 23.9904956,0.239924923 C23.9775395,0.22527144 23.9657612,0.208507857 23.9504495,0.19573002 C23.8232443,0.0898732651 23.6395034,0.05458768 23.3556473,0.136295497 C23.2496429,0.167126423 23.1389272,0.186586247 23.0270337,0.197488438 C22.9139624,0.20944568 22.7985355,0.21870668 22.6819307,0.218823908 C22.4498989,0.220816782 22.2155115,0.197722894 21.9917245,0.172870588 C21.7691154,0.156107005 21.547684,0.134771534 21.3250749,0.110974279 C21.2143592,0.0999548608 21.1036435,0.0850669229 20.9929279,0.0756886943 L20.6596031,0.0510708442 C20.4369939,0.0353623114 20.2143848,0.0155508034 19.9905978,0.00582089128 C19.7679886,0.00101454913 19.5442016,-0.00144723588 19.3204147,0.000897321268 C18.247415,0.0252807156 17.176771,0.168064246 16.1214387,0.384584099 C16.3581817,0.404161151 16.6467492,0.41295324 16.9706514,0.407795214 C17.1320136,0.402285505 17.305154,0.407912442 17.4841836,0.406857392 C17.583121,0.406622936 17.6855919,0.405685113 17.7880628,0.404161151 C17.7503723,0.453748535 17.7126819,0.503101462 17.6761693,0.552688846 C17.7668619,0.507204438 17.8575545,0.460078839 17.9482471,0.419869684 C17.9447136,0.413891063 17.9400023,0.407795214 17.935291,0.401582138 C17.9706258,0.400878771 18.0059606,0.400527087 18.0412954,0.399706492 C18.2332811,0.398299758 18.4323337,0.404043923 18.6325642,0.403692239 C18.7338572,0.403692239 18.8351503,0.403692239 18.9376211,0.403809467 C18.9882677,0.403926695 19.040092,0.402519961 19.0919164,0.403809467 C19.1425629,0.405450657 19.1943873,0.407326303 19.2462116,0.409084721 C19.453509,0.415883937 19.6619843,0.421510874 19.8704595,0.425965532 L20.0271104,0.428896229 C20.0789347,0.430654647 20.1307591,0.434874849 20.1837613,0.437688318 C20.28741,0.443315255 20.3910587,0.449176648 20.4947074,0.454920813 C20.5983561,0.460078839 20.7020048,0.465236865 20.8044757,0.47039489 C20.9069466,0.475787372 21.0082396,0.477428562 21.1095327,0.487861841 C21.310941,0.50485988 21.5088158,0.520333958 21.7019793,0.534049617 C21.798561,0.540848833 21.8939649,0.54753082 21.9870132,0.55409558 C22.0812393,0.563708265 22.1731097,0.573086493 22.2626245,0.582347494 C22.3533172,0.591256811 22.4428319,0.599462761 22.5299911,0.607317028 C22.4734554,0.636506764 22.4169198,0.660772931 22.3592063,0.674840274 C22.2261119,0.70731239 22.0859506,0.692307224 21.9234106,0.59735266 C21.7950275,0.523381882 21.5959749,0.527484857 21.4440353,0.572148671 C21.2803175,0.616109117 21.1189553,0.64987074 20.9599487,0.674840274 C20.8009422,0.699692579 20.6431135,0.71387715 20.4852848,0.731109645 C20.3274561,0.7456459 20.1708052,0.752445115 20.0153321,0.752914027 C19.9364178,0.753148482 19.8586812,0.751741748 19.7809447,0.74892828 C19.7032082,0.745528672 19.6254716,0.747052634 19.5465573,0.743887482 C19.3910842,0.739198367 19.2344333,0.729351227 19.0777825,0.715752796 C19.0000459,0.708836352 18.9223094,0.701216542 18.843395,0.69254168 C18.7644807,0.684218502 18.6867442,0.680232755 18.6078298,0.672730172 C18.4500011,0.659366196 18.2921724,0.643423208 18.1331658,0.626425169 L17.8940671,0.600166128 C17.8151528,0.592077406 17.7350606,0.588091659 17.6549684,0.581761355 C17.6632132,0.57273481 17.6691023,0.562653214 17.6761693,0.552688846 C17.6585019,0.561715391 17.6408345,0.570741936 17.6231671,0.579885709 L17.6431901,0.598056027 C17.4464932,0.668041058 17.2179949,0.660655703 16.9906744,0.718566264 C16.7645318,0.780462573 16.539567,0.917033027 16.3652487,1.25335975 C16.4983431,1.249374 16.620837,1.2480845 16.7362639,1.24738113 C16.7939774,1.2472639 16.8505131,1.24702945 16.9046931,1.24679499 C16.9588731,1.24609162 17.0106975,1.24667776 17.0625218,1.24913955 C17.2686414,1.25582154 17.4535601,1.25804886 17.637301,1.24280924 C17.7279936,1.23554112 17.8198641,1.22499061 17.9117345,1.21385396 C18.0047828,1.20588247 18.0966532,1.19615256 18.1885237,1.1858365 C18.3734424,1.1652044 18.5595389,1.1416416 18.7444576,1.12288514 C18.9293764,1.10635602 19.1142951,1.10448037 19.2968581,1.10999008 C19.3875508,1.11338969 19.4782434,1.11995445 19.5677582,1.13073941 C19.657273,1.14105546 19.7456099,1.1559434 19.8327691,1.18079571 C20.5088413,1.35769254 21.1495788,1.50891648 21.798561,1.54736722 C21.961101,1.55721436 22.1248189,1.55756604 22.2908924,1.54713276 C22.3733402,1.54068523 22.4569659,1.53599611 22.5405915,1.52872799 C22.6242172,1.5212254 22.7078428,1.5106749 22.7938242,1.49719369 C22.964609,1.46999683 23.1389272,1.43049104 23.3179568,1.37738682 C23.4969864,1.32850281 23.6795495,1.26977165 23.8691795,1.19415968 C23.8244221,1.5447882 23.9045143,1.73809694 24.0470312,1.85473866 C24.1177008,1.91065635 24.2036821,1.95285838 24.2967304,1.98708891 C24.0988556,1.96071264 23.9009808,1.93468806 23.7054616,1.90432604 C23.6359699,1.89225157 23.5653003,1.8860385 23.4946308,1.87841869 L23.2837999,1.85591094 L22.8633159,1.80866811 C22.7231546,1.7888566 22.5818154,1.7825263 22.4428319,1.76681777 C22.3026706,1.75251597 22.1636871,1.73610407 22.0247036,1.71617533 C21.4675918,1.64759703 20.917547,1.54150582 20.3592574,1.35018996 C20.2944769,1.32756498 20.2285187,1.31349764 20.1602047,1.30482278 C20.0918908,1.29579623 20.0223991,1.29309999 19.9517295,1.29696851 C19.8115682,1.30259545 19.6690512,1.31889012 19.5300677,1.32311033 C18.7880372,1.33776381 18.0495402,1.44127601 17.3169323,1.55381475 L16.7704209,1.65697526 C16.5878578,1.69097134 16.404117,1.7210989 16.2239095,1.76412152 C16.0425243,1.80386177 15.8611391,1.84219528 15.6797538,1.87877037 L15.543126,1.90596723 L15.407676,1.93820489 L15.1355981,2.00057011 L14.8458529,2.06539712 L14.7009803,2.09786923 C14.6526894,2.10877143 14.6055763,2.12319045 14.5572855,2.13561661 L13.9813284,2.29094352 L13.8376336,2.32998039 C13.7893428,2.34334437 13.7434075,2.35963904 13.6951167,2.37440975 L13.4112606,2.46502688 L13.1262266,2.55611293 L12.9825318,2.60183179 C12.9354188,2.61789201 12.8894835,2.63606233 12.8423705,2.65294314 L12.2793696,2.86137427 L12.1380304,2.91400958 L12.0002247,2.97227182 L11.7222578,3.08961691 L11.4454686,3.20778259 C11.3983556,3.2275941 11.3524203,3.24681947 11.3064851,3.26745157 L11.1698573,3.33263026 L10.6257016,3.59533789 C9.9084054,3.96495732 9.19817619,4.36657996 8.53034873,4.83584307 L8.27829392,5.00910585 C8.19231261,5.06619581 8.11339825,5.13043668 8.03095041,5.19116071 L7.54215254,5.56347638 C7.38196817,5.6923098 7.22649511,5.82606678 7.0686664,5.95865149 L6.83310116,6.1589939 C6.75772028,6.22792388 6.6823394,6.29896396 6.60695852,6.36906622 C6.44795199,6.51900065 6.28776762,6.66752835 6.13111673,6.82086238 L5.67412016,7.2943457 C5.5186471,7.45037598 5.37848578,7.61894964 5.23243533,7.78388923 C5.08874054,7.95058725 4.93797878,8.1128306 4.80370659,8.28761734 L4.39028959,8.8063506 C4.2560174,8.98242685 4.12763435,9.16330943 3.99689564,9.3424336 C3.93093737,9.43234736 3.8649791,9.52167499 3.80137649,9.61252658 L3.61645777,9.89023937 L3.43153906,10.1685383 C3.37029209,10.2620861 3.30551165,10.3532894 3.24897599,10.4496507 L2.90033943,11.0230122 L2.81318029,11.166968 L2.73191029,11.3138545 L2.56819244,11.6085653 C2.34204981,11.9985824 2.14888631,12.4052458 1.94041107,12.8090958 C1.8426515,13.0133067 1.75078105,13.2203311 1.6541993,13.4267694 L1.5105045,13.7375404 L1.37741014,14.0531178 C1.290251,14.2642452 1.19720273,14.4749037 1.11239924,14.6883756 C1.02995141,14.9038404 0.947503574,15.119188 0.866233565,15.3344183 C0.774363121,15.5603164 0.766118337,15.8118874 0.722538767,16.0546663 C0.822653995,15.8131769 0.915702266,15.5725081 1.02641793,15.3371145 C1.05115228,15.283307 1.0747088,15.2306716 1.09944316,15.1769813 L0.915702266,15.7703887 C0.84621052,15.9806955 0.796741819,16.1956914 0.74020616,16.4096322 C0.686026155,16.6241592 0.624779192,16.8377483 0.582377448,17.0553232 L0.445749607,17.707579 C0.40452569,17.9259745 0.371546556,18.1460112 0.333856117,18.3659307 C0.316188724,18.4760077 0.297343505,18.5859674 0.280853938,18.6965133 L0.23963002,19.028737 L0.199583929,19.3618986 C0.186627841,19.4731478 0.170138274,19.5842798 0.163071316,19.695998 L0.107713484,20.3671274 L0.0947573961,20.5354667 L0.0876904388,20.7040403 L0.072378698,21.0416565 C0.0464665214,21.4929838 0.0547113048,21.9445455 0.05,22.3999757 C0.0535334786,22.6269289 0.0629560883,22.8539992 0.0700230456,23.0824763 L0.0806234815,23.4253678 L0.10300218,23.7674387 C0.119491747,23.9959158 0.131270009,24.2261513 0.150115228,24.4555662 C0.173671752,24.68545 0.19605045,24.9150994 0.219606975,25.1447488 C0.238452194,25.3883483 0.343278727,25.6163564 0.412770473,25.8529223 C0.393925254,25.5917386 0.37036873,25.334189 0.364479599,25.0732398 C0.355056989,24.8134629 0.340923074,24.5566166 0.332678291,24.3001221 C0.330322639,24.0443309 0.327966986,23.7883052 0.325611334,23.5321624 C0.325611334,23.4685076 0.323255681,23.4053218 0.324433507,23.3416671 L0.330322639,23.1507029 L0.339745248,22.770533 L0.347990032,22.3928248 L0.371546556,22.0157028 L0.393925254,21.6406909 L0.40452569,21.4539469 L0.422193083,21.2673202 L0.494040482,20.5255023 L0.592977884,19.7906008 C0.737850508,18.8160857 0.938080964,17.8612648 1.19955838,16.9319995 C1.46692493,16.0040238 1.7978941,15.1038311 2.19011023,14.2404479 C2.17479849,14.3377471 2.15241979,14.4323499 2.13357457,14.5284768 L2.13357457,14.5284768 Z" id="Fill-198"></path>
                <path d="M1,27.0115722 C1.01634615,27.0255131 1.03269231,27.0494628 1.05,27.05 C1.06538462,27.0501777 1.08269231,27.0260493 1.1,27.0114829 C1.07019231,26.9903034 1.04326923,26.9704645 1.01442308,26.95 C1.00961538,26.9699283 1.00480769,26.9911971 1,27.0115722" id="Fill-199"></path>
                <path d="M35.1,33.05 C35.0762194,32.9783844 35.0699964,32.9498671 35.0651069,32.95 C35.0433266,32.9518675 35.0202127,32.9586468 35.0017661,32.969627 C34.9973211,32.9722275 35.0015438,33.0077464 35.0113228,33.014859 C35.0302139,33.0291732 35.0557725,33.0341077 35.1,33.05" id="Fill-200"></path>
                <path d="M38.0655,24.9531069 C38.0535,24.9472069 38.0305,24.9601069 38.0125,24.9652069 C38.0255,24.9939069 38.0385,25.0207069 38.0515,25.0484069 C38.0635,25.0342069 38.0755,25.0188069 38.0875,25.0042069 C38.0805,24.9862069 38.0785,24.9604069 38.0655,24.9531069" id="Fill-201"></path>
                <path d="M38,22.9671761 C38.0315068,22.9779437 38.0643836,22.9890587 38.0965753,23 C38.0972603,22.8337965 38.0986301,22.6670719 38.0993151,22.500521 L38.1,22.2500868 L38.0965753,22 C38.0684932,22.0012157 38.0390411,22.0022577 38.010274,22.0034734 C38.0109589,22.084057 38.0109589,22.1646405 38.0109589,22.2450504 C38.010274,22.3252866 38.0089041,22.4056964 38.0075342,22.4861063 C38.0047945,22.6462313 38.0020548,22.80653 38,22.9671761" id="Fill-202"></path>
                <path d="M38.0458128,18.05 C38.0640394,18.0478039 38.082266,18.0455567 38.1,18.0433606 C38.0842365,18.0120531 38.0689655,17.9809755 38.053202,17.95 C38.035468,17.9525281 38.0172414,17.9550817 38,17.9575843 C38.0152709,17.9882789 38.0305419,18.0193309 38.0458128,18.05" id="Fill-203"></path>
                <path d="M38.0013542,19.95 C38.0026963,19.9793664 37.9939726,20.0095034 38.0087359,20.0326199 C38.0167886,20.0444349 38.0684602,20.0444777 38.1,20.05 C38.0953026,20.021875 38.0959736,19.9924229 38.0818814,19.9660103 C38.077184,19.9567209 38.0369204,19.956036 38.0013542,19.95" id="Fill-204"></path>
                <path d="M29.1,37.9776786 C29.0962848,37.9685374 29.0922601,37.9594388 29.0885449,37.95 C29.0591331,37.9708333 29.0297214,37.9924745 29,38.0123299 C29.0034056,38.0248724 29.0068111,38.0376276 29.0102167,38.05 C29.0405573,38.0270833 29.069969,38.0017857 29.1,37.9776786" id="Fill-205"></path>
                <path d="M33.3731707,34.5768914 L33.264939,34.6874897 L33.05,34.9078622 C33.0759146,34.9381902 33.1033537,34.9693423 33.1307927,35 L33.3670732,34.7956156 L33.4844512,34.6924345 L33.5972561,34.584803 C33.7481707,34.4397561 33.8990854,34.2948739 34.05,34.1501566 C33.9966463,34.0992253 33.9417683,34.0501071 33.8868902,34 C33.7496951,34.1537828 33.6125,34.3077303 33.4753049,34.4618428 L33.3731707,34.5768914" id="Fill-206"></path>
                <path d="M35.0752988,32.95 C35.0501992,32.97683 35.025498,33.0041194 35,33.0303369 C35.0087649,33.0368913 35.0183267,33.0435375 35.0270916,33.05 C35.0521912,33.0214548 35.0756972,32.9917152 35.1,32.9625881 C35.0920319,32.9584533 35.0836653,32.9543492 35.0752988,32.95" id="Fill-207"></path>
            </g>
        </g>
    </g>
</svg>